<svg width="100" height="100" viewBox="0 0 100 100" fill="none" xmlns="http://www.w3.org/2000/svg">
<circle cx="50" cy="50" r="50" fill="white"/>
<mask id="mask0_732_734" style="mask-type:alpha" maskUnits="userSpaceOnUse" x="0" y="0" width="100" height="100">
<circle cx="50" cy="50" r="50" fill="#7C72F1"/>
</mask>
<g mask="url(#mask0_732_734)">
<path d="M16 91.0909C16 80.5473 24.5473 72 35.0909 72H63.9091C74.4527 72 83 80.5473 83 91.0909C83 96.0113 79.0113 100 74.0909 100H24.9091C19.9887 100 16 96.0113 16 91.0909Z" fill="#D57847"/>
<path d="M65 72C66.1046 72 67 72.8954 67 74V100C67 101.105 66.1046 102 65 102H34C32.8954 102 32 101.105 32 100V74C32 72.8954 32.8954 72 34 72H38.3457C38.1219 72.8015 38 73.6382 38 74.5C38 80.299 43.3726 85 50 85C56.6274 85 62 80.299 62 74.5C62 73.6382 61.8781 72.8015 61.6543 72H65Z" fill="#DF3131"/>
</g>
<path d="M43 61H57V73C57 75.7614 54.7614 78 52 78H48C45.2386 78 43 75.7614 43 73V61Z" fill="#B85627"/>
<path d="M29 33C29 23.6112 36.6112 16 46 16H66C68.7614 16 71 18.2386 71 21V36C71 43.1797 65.1797 49 58 49H42C34.8203 49 29 43.1797 29 36V33Z" fill="#3C2929"/>
<path d="M62 72C62 89.3333 38 89.3333 38 72" stroke="#CBCBCB"/>
<path d="M31 38C31 32.4772 35.4772 28 41 28H59C64.5228 28 69 32.4772 69 38V50C69 60.4934 60.4934 69 50 69C39.5066 69 31 60.4934 31 50V38Z" fill="#D67648"/>
<rect width="10" height="4" rx="2" transform="matrix(0.92787 0.372904 0.372904 -0.92787 52.6149 39.9912)" fill="#3C2929"/>
<rect width="10" height="4" rx="2" transform="matrix(0.937934 -0.346813 -0.346813 -0.937934 38.004 43.6099)" fill="#3C2929"/>
<rect x="40" y="44" width="3" height="5" rx="1.5" fill="#341615"/>
<rect x="56" y="44" width="3" height="5" rx="1.5" fill="#341615"/>
<path d="M55.8837 56.1254C55.6123 57.4235 54.7849 58.5498 53.5834 59.2566C52.3819 59.9634 50.9048 60.1927 49.4769 59.8943C48.0491 59.5958 46.7876 58.7939 45.9698 57.665C45.152 56.5361 44.8451 55.1727 45.1164 53.8747L50.5 55.0001L55.8837 56.1254Z" fill="white"/>
<path d="M31 51C29.6739 51 28.4021 50.4205 27.4645 49.3891C26.5268 48.3576 26 46.9587 26 45.5C26 44.0413 26.5268 42.6424 27.4645 41.6109C28.4021 40.5795 29.6739 40 31 40L31 45.5L31 51Z" fill="#B85627"/>
<path d="M31 51C29.6739 51 28.4021 50.4205 27.4645 49.3891C26.5268 48.3576 26 46.9587 26 45.5C26 44.0413 26.5268 42.6424 27.4645 41.6109C28.4021 40.5795 29.6739 40 31 40L31 45.5L31 51Z" fill="#B85627"/>
<path d="M69 51C70.3261 51 71.5979 50.4205 72.5355 49.3891C73.4732 48.3576 74 46.9587 74 45.5C74 44.0413 73.4732 42.6424 72.5355 41.6109C71.5979 40.5795 70.3261 40 69 40L69 45.5L69 51Z" fill="#B85627"/>
<path d="M69 51C70.3261 51 71.5979 50.4205 72.5355 49.3891C73.4732 48.3576 74 46.9587 74 45.5C74 44.0413 73.4732 42.6424 72.5355 41.6109C71.5979 40.5795 70.3261 40 69 40L69 45.5L69 51Z" fill="#B85627"/>
</svg>
