<svg width="100" height="100" viewBox="0 0 100 100" fill="none" xmlns="http://www.w3.org/2000/svg">
<circle cx="50" cy="50" r="50" fill="#88D4FF"/>
<path d="M29 33C29 23.6112 36.6112 16 46 16H54C63.3888 16 71 23.6112 71 33V51.5C71 58.6797 65.1797 64.5 58 64.5H42C34.8203 64.5 29 58.6797 29 51.5V33Z" fill="#2F2F2F"/>
<path d="M43 61H57V83C57 85.7614 54.7614 88 52 88H48C45.2386 88 43 85.7614 43 83V61Z" fill="#FCC0AC"/>
<mask id="mask0_732_787" style="mask-type:alpha" maskUnits="userSpaceOnUse" x="0" y="0" width="100" height="100">
<circle cx="50" cy="50" r="50" fill="#7C72F1"/>
</mask>
<g mask="url(#mask0_732_787)">
<path d="M21 91.0909C21 80.5473 29.5473 72 40.0909 72H58.9091C69.4527 72 78 80.5473 78 91.0909C78 96.0113 74.0113 100 69.0909 100H29.9091C24.9887 100 21 96.0113 21 91.0909Z" fill="#FCC0AC"/>
<path d="M58.9092 72.0002C69.4528 72.0003 78 80.5475 78 91.0911C77.9999 96.0114 74.0111 100 69.0908 100H29.9092C24.9889 100 21.0001 96.0114 21 91.0911C21 80.5475 29.5472 72.0003 40.0908 72.0002H58.9092Z" fill="#F6F6F6"/>
<path d="M21 91.0909C21 80.5473 29.5473 72 40.0909 72H58.9091C69.4527 72 78 80.5473 78 91.0909C78 96.0113 74.0113 100 69.0909 100H29.9091C24.9887 100 21 96.0113 21 91.0909Z" fill="#242424"/>
<rect x="39" y="72" width="21" height="28" fill="white"/>
<path d="M40 72H60L49.5 79L40 72Z" fill="#FCC0AC"/>
<path d="M46 83L49.5 79L53 83L49.5 87L46 83Z" fill="black"/>
<path d="M43.5 100.5L49.5 86L54.5 100L43.5 100.5Z" fill="black"/>
</g>
<path d="M30.9999 38C30.9999 32.4772 35.4771 28 40.9999 28H58.9999C64.5228 28 68.9999 32.4772 68.9999 38V52C68.9999 61.3888 61.3888 69 51.9999 69H47.9999C38.6111 69 30.9999 61.3888 30.9999 52V38Z" fill="#FFCAB9"/>
<rect x="40" y="44" width="3" height="4" rx="1.5" fill="#341615"/>
<rect x="56" y="44" width="3" height="4" rx="1.5" fill="#341615"/>
<path d="M56 55C56 56.3261 55.4205 57.5979 54.3891 58.5355C53.3576 59.4732 51.9587 60 50.5 60C49.0413 60 47.6424 59.4732 46.6109 58.5355C45.5795 57.5979 45 56.3261 45 55L50.5 55H56Z" fill="#EAA18C"/>
<path d="M38 40.5C38 39.837 38.4214 39.2011 39.1716 38.7322C39.9217 38.2634 40.9391 38 42 38C43.0609 38 44.0783 38.2634 44.8284 38.7322C45.5786 39.2011 46 39.837 46 40.5L42 40.5L38 40.5Z" fill="#2F2F2F"/>
<path d="M54 40.5C54 39.837 54.4214 39.2011 55.1716 38.7322C55.9217 38.2634 56.9391 38 58 38C59.0609 38 60.0783 38.2634 60.8284 38.7322C61.5786 39.2011 62 39.837 62 40.5L58 40.5L54 40.5Z" fill="#2F2F2F"/>
<ellipse cx="65.9978" cy="23.4746" rx="6.36563" ry="5" transform="rotate(29.2827 65.9978 23.4746)" fill="#2F2F2F"/>
<ellipse cx="60.5812" cy="19.3007" rx="7.87254" ry="6.40653" transform="rotate(-6.85818 60.5812 19.3007)" fill="#2F2F2F"/>
<ellipse cx="56.5812" cy="26.3007" rx="7.87254" ry="6.40653" transform="rotate(-6.85818 56.5812 26.3007)" fill="#2F2F2F"/>
<ellipse cx="62.5812" cy="26.3007" rx="7.87254" ry="6.40653" transform="rotate(-6.85818 62.5812 26.3007)" fill="#2F2F2F"/>
<path d="M31 51C29.6739 51 28.4021 50.4205 27.4645 49.3891C26.5268 48.3576 26 46.9587 26 45.5C26 44.0413 26.5268 42.6424 27.4645 41.6109C28.4021 40.5795 29.6739 40 31 40L31 45.5L31 51Z" fill="#EAA18C"/>
<path d="M31 51C29.6739 51 28.4021 50.4205 27.4645 49.3891C26.5268 48.3576 26 46.9587 26 45.5C26 44.0413 26.5268 42.6424 27.4645 41.6109C28.4021 40.5795 29.6739 40 31 40L31 45.5L31 51Z" fill="#FCC0AC"/>
<path d="M69 51C70.3261 51 71.5979 50.4205 72.5355 49.3891C73.4732 48.3576 74 46.9587 74 45.5C74 44.0413 73.4732 42.6424 72.5355 41.6109C71.5979 40.5795 70.3261 40 69 40L69 45.5L69 51Z" fill="#EAA18C"/>
<path d="M69 51C70.3261 51 71.5979 50.4205 72.5355 49.3891C73.4732 48.3576 74 46.9587 74 45.5C74 44.0413 73.4732 42.6424 72.5355 41.6109C71.5979 40.5795 70.3261 40 69 40L69 45.5L69 51Z" fill="#FCC0AC"/>
</svg>
