<svg width="100" height="100" viewBox="0 0 100 100" fill="none" xmlns="http://www.w3.org/2000/svg">
<circle cx="50" cy="50" r="50" fill="#4F4CDF"/>
<mask id="mask0_732_716" style="mask-type:alpha" maskUnits="userSpaceOnUse" x="0" y="0" width="100" height="100">
<circle cx="50" cy="50" r="50" fill="#7C72F1"/>
</mask>
<g mask="url(#mask0_732_716)">
<path d="M21 91.0909C21 80.5473 29.5473 72 40.0909 72H58.9091C69.4527 72 78 80.5473 78 91.0909C78 96.0113 74.0113 100 69.0909 100H29.9091C24.9887 100 21 96.0113 21 91.0909Z" fill="#D8F3FF"/>
</g>
<path d="M43 61H57V71C57 74.866 53.866 78 50 78C46.134 78 43 74.866 43 71V61Z" fill="#FBC0AD"/>
<path d="M31 51C29.6739 51 28.4021 50.4205 27.4645 49.3891C26.5268 48.3576 26 46.9587 26 45.5C26 44.0413 26.5268 42.6424 27.4645 41.6109C28.4021 40.5795 29.6739 40 31 40L31 45.5L31 51Z" fill="#EAA18C"/>
<path d="M31 51C29.6739 51 28.4021 50.4205 27.4645 49.3891C26.5268 48.3576 26 46.9587 26 45.5C26 44.0413 26.5268 42.6424 27.4645 41.6109C28.4021 40.5795 29.6739 40 31 40L31 45.5L31 51Z" fill="#FFCAB9"/>
<path d="M69 51C70.3261 51 71.5979 50.4205 72.5355 49.3891C73.4732 48.3576 74 46.9587 74 45.5C74 44.0413 73.4732 42.6424 72.5355 41.6109C71.5979 40.5795 70.3261 40 69 40L69 45.5L69 51Z" fill="#EAA18C"/>
<path d="M69 51C70.3261 51 71.5979 50.4205 72.5355 49.3891C73.4732 48.3576 74 46.9587 74 45.5C74 44.0413 73.4732 42.6424 72.5355 41.6109C71.5979 40.5795 70.3261 40 69 40L69 45.5L69 51Z" fill="#FFCAB9"/>
<path d="M34.9365 48C30.5533 48 27 44.4467 27 40.0635L27 30.0896C27 26.7264 29.7264 24 33.0896 24L37 24L37 45.9365C37 47.0761 36.0761 48 34.9365 48Z" fill="#3C2929"/>
<path d="M65.0635 48C69.4467 48 73 44.4467 73 40.0635L73 30.0896C73 26.7264 70.2736 24 66.9104 24L63 24L63 45.9365C63 47.0761 63.9239 48 65.0635 48Z" fill="#3C2929"/>
<rect x="31" y="17" width="38" height="52" rx="19" fill="#FFCAB9"/>
<rect width="10" height="4" rx="2" transform="matrix(1 0 0 -1 53 42)" fill="#3C2929"/>
<rect width="10" height="4" rx="2" transform="matrix(1 0 0 -1 37 42)" fill="#3C2929"/>
<rect x="40" y="44" width="3" height="5" rx="1.5" fill="#341615"/>
<rect x="56" y="44" width="3" height="5" rx="1.5" fill="#341615"/>
<path d="M56 55C56 56.3261 55.4205 57.5979 54.3891 58.5355C53.3576 59.4732 51.9587 60 50.5 60C49.0413 60 47.6424 59.4732 46.6109 58.5355C45.5795 57.5979 45 56.3261 45 55L50.5 55H56Z" fill="#404040"/>
<rect x="46" y="55" width="9" height="2" fill="white"/>
</svg>
