<svg width="100" height="100" viewBox="0 0 100 100" fill="none" xmlns="http://www.w3.org/2000/svg">
<ellipse cx="50.0003" cy="49.9997" rx="49.9994" ry="49.9997" fill="url(#paint0_linear_1038_1161)"/>
<mask id="mask0_1038_1161" style="mask-type:alpha" maskUnits="userSpaceOnUse" x="0" y="0" width="100" height="100">
<ellipse cx="49.9994" cy="49.9994" rx="49.9997" ry="49.9994" transform="rotate(-90 49.9994 49.9994)" fill="url(#paint1_linear_1038_1161)"/>
</mask>
<g mask="url(#mask0_1038_1161)">
<path d="M21 91.0918C21 80.5482 29.5472 72.001 40.0908 72.001H58.9085C69.452 72.001 77.9993 80.5482 77.9993 91.0918V91.0918C77.9993 96.0121 74.0106 100.001 69.0902 100.001H29.909C24.9887 100.001 21 96.0121 21 91.0918V91.0918Z" fill="url(#paint2_linear_1038_1161)"/>
</g>
<path d="M43.001 61H57.0008V71C57.0008 74.8659 53.8668 77.9999 50.0009 77.9999V77.9999C46.1349 77.9999 43.001 74.8659 43.001 71V61Z" fill="#EAA18C"/>
<path d="M31 23.001H68.9995V50.0009C68.9995 60.4942 60.493 69.0007 49.9998 69.0007V69.0007C39.5065 69.0007 31 60.4942 31 50.0009V23.001Z" fill="url(#paint3_linear_1038_1161)"/>
<rect width="9.99987" height="3.99997" rx="1.99999" transform="matrix(1 0 0 -1 53 42.001)" fill="#3D2B2A"/>
<rect width="9.99987" height="3.99997" rx="1.99999" transform="matrix(1 0 0 -1 37.001 42.001)" fill="#3D2B2A"/>
<rect x="40.001" y="44" width="2.99996" height="4.99997" rx="1.49998" fill="black"/>
<rect x="56" y="44" width="2.99996" height="4.99997" rx="1.49998" fill="black"/>
<path d="M56.0008 55C56.0008 56.326 55.4214 57.5978 54.3899 58.5355C53.3585 59.4731 51.9596 59.9999 50.5009 59.9999C49.0422 59.9999 47.6433 59.4732 46.6119 58.5355C45.5804 57.5978 45.001 56.326 45.001 55L50.5009 55H56.0008Z" fill="white"/>
<path d="M31.0001 51.0009C29.674 51.0009 28.4022 50.4214 27.4646 49.39C26.5269 48.3586 26.0001 46.9596 26.0001 45.5009C26.0001 44.0423 26.5269 42.6433 27.4646 41.6119C28.4022 40.5804 29.674 40.001 31.0001 40.001L31.0001 45.5009L31.0001 51.0009Z" fill="#EAA18C"/>
<path d="M31.0001 51.0009C29.674 51.0009 28.4022 50.4214 27.4646 49.39C26.5269 48.3586 26.0001 46.9596 26.0001 45.5009C26.0001 44.0423 26.5269 42.6433 27.4646 41.6119C28.4022 40.5804 29.674 40.001 31.0001 40.001L31.0001 45.5009L31.0001 51.0009Z" fill="#EAA18C"/>
<path d="M68.9999 51.0009C70.326 51.0009 71.5978 50.4214 72.5354 49.39C73.4731 48.3586 73.9999 46.9596 73.9999 45.5009C73.9999 44.0423 73.4731 42.6433 72.5354 41.6119C71.5978 40.5804 70.326 40.001 68.9999 40.001L68.9999 45.5009L68.9999 51.0009Z" fill="#EAA18C"/>
<path d="M68.9999 51.0009C70.326 51.0009 71.5978 50.4214 72.5354 49.39C73.4731 48.3586 73.9999 46.9596 73.9999 45.5009C73.9999 44.0423 73.4731 42.6433 72.5354 41.6119C71.5978 40.5804 70.326 40.001 68.9999 40.001L68.9999 45.5009L68.9999 51.0009Z" fill="#EAA18C"/>
<ellipse cx="63.9999" cy="24.9999" rx="8.99989" ry="8.99994" fill="url(#paint4_linear_1038_1161)"/>
<rect x="23.001" y="14.001" width="37.9995" height="17.9999" rx="8.99994" fill="url(#paint5_linear_1038_1161)"/>
<defs>
<linearGradient id="paint0_linear_1038_1161" x1="50.0003" y1="0" x2="50.0003" y2="99.9993" gradientUnits="userSpaceOnUse">
<stop stop-color="#7C72F1"/>
<stop offset="1" stop-color="#685FD4"/>
</linearGradient>
<linearGradient id="paint1_linear_1038_1161" x1="49.9994" y1="3.8147e-06" x2="49.9994" y2="99.9987" gradientUnits="userSpaceOnUse">
<stop stop-color="#6963B5"/>
<stop offset="0.0001" stop-color="#7C72F1"/>
<stop offset="0.850003" stop-color="#7C72F1"/>
</linearGradient>
<linearGradient id="paint2_linear_1038_1161" x1="49.4996" y1="72.001" x2="49.4996" y2="100.001" gradientUnits="userSpaceOnUse">
<stop stop-color="#57E699"/>
<stop offset="1" stop-color="#1CB97A"/>
</linearGradient>
<linearGradient id="paint3_linear_1038_1161" x1="49.9998" y1="23.001" x2="49.9998" y2="69.0007" gradientUnits="userSpaceOnUse">
<stop stop-color="#F3B9A6"/>
<stop offset="1" stop-color="#FFBAA6"/>
</linearGradient>
<linearGradient id="paint4_linear_1038_1161" x1="63.9999" y1="16" x2="63.9999" y2="33.9999" gradientUnits="userSpaceOnUse">
<stop stop-color="#2F2423"/>
<stop offset="1" stop-color="#1A0A09"/>
</linearGradient>
<linearGradient id="paint5_linear_1038_1161" x1="42.0007" y1="14.001" x2="42.0007" y2="32.0008" gradientUnits="userSpaceOnUse">
<stop stop-color="#2F1F1F"/>
<stop offset="1" stop-color="#160B0B"/>
</linearGradient>
</defs>
</svg>
