<svg width="100" height="100" viewBox="0 0 100 100" fill="none" xmlns="http://www.w3.org/2000/svg">
<circle cx="50" cy="50" r="50" fill="#A556D6"/>
<path d="M24 24C24 19.5817 27.5817 16 32 16C36.4183 16 40 19.5817 40 24C40 28.4183 36.4183 32 32 32C27.5817 32 24 28.4183 24 24Z" fill="#590B19"/>
<path d="M60 24C60 19.5817 63.5817 16 68 16C72.4183 16 76 19.5817 76 24C76 28.4183 72.4183 32 68 32C63.5817 32 60 28.4183 60 24Z" fill="#590B19"/>
<path d="M29 37C29 25.402 38.402 16 50 16C61.598 16 71 25.402 71 37V47C71 58.598 61.598 68 50 68C38.402 68 29 58.598 29 47V37Z" fill="#590B19"/>
<mask id="mask0_732_506" style="mask-type:alpha" maskUnits="userSpaceOnUse" x="0" y="0" width="100" height="100">
<circle cx="50" cy="50" r="50" fill="white"/>
</mask>
<g mask="url(#mask0_732_506)">
<path d="M21 91.0909C21 80.5473 29.5473 72 40.0909 72H58.9091C69.4527 72 78 80.5473 78 91.0909C78 96.0113 74.0113 100 69.0909 100H29.9091C24.9887 100 21 96.0113 21 91.0909Z" fill="#FFA1EA"/>
</g>
<path d="M43 61H57V73C57 75.7614 54.7614 78 52 78H48C45.2386 78 43 75.7614 43 73V61Z" fill="#FCC0AC"/>
<path d="M68 51C69.3261 51 70.5979 50.4205 71.5355 49.3891C72.4732 48.3576 73 46.9587 73 45.5C73 44.0413 72.4732 42.6424 71.5355 41.6109C70.5979 40.5795 69.3261 40 68 40L68 45.5L68 51Z" fill="#EAA18C"/>
<path d="M68 51C69.3261 51 70.5979 50.4205 71.5355 49.3891C72.4732 48.3576 73 46.9587 73 45.5C73 44.0413 72.4732 42.6424 71.5355 41.6109C70.5979 40.5795 69.3261 40 68 40L68 45.5L68 51Z" fill="#EAA18C"/>
<path d="M32 51C30.6739 51 29.4021 50.4205 28.4645 49.3891C27.5268 48.3576 27 46.9587 27 45.5C27 44.0413 27.5268 42.6424 28.4645 41.6109C29.4021 40.5795 30.6739 40 32 40L32 45.5L32 51Z" fill="#EAA18C"/>
<path d="M32 51C30.6739 51 29.4021 50.4205 28.4645 49.3891C27.5268 48.3576 27 46.9587 27 45.5C27 44.0413 27.5268 42.6424 28.4645 41.6109C29.4021 40.5795 30.6739 40 32 40L32 45.5L32 51Z" fill="#EAA18C"/>
<path d="M31 45C31 35.6112 38.6112 28 48 28H53C61.8366 28 69 35.1634 69 44V50C69 60.4934 60.4934 69 50 69C39.5066 69 31 60.4934 31 50V45Z" fill="#FFCAB9"/>
<path d="M38.0808 40.6995C38.2135 40.0498 38.7537 39.5112 39.5824 39.2019C40.4112 38.8927 41.4608 38.8382 42.5002 39.0505C43.5396 39.2627 44.4837 39.7244 45.1249 40.3339C45.766 40.9433 46.0517 41.6507 45.919 42.3003L41.9999 41.4999L38.0808 40.6995Z" fill="#3C2929"/>
<path d="M54.0966 42.3738C53.9517 41.7267 54.2241 41.0142 54.8537 40.3928C55.4833 39.7714 56.4186 39.2921 57.4539 39.0604C58.4891 38.8287 59.5395 38.8635 60.374 39.1571C61.2084 39.4508 61.7585 39.9793 61.9034 40.6263L58 41.5L54.0966 42.3738Z" fill="#3C2929"/>
<path d="M54 59.5C54 60.4283 53.6313 61.3185 52.9749 61.9749C52.3185 62.6313 51.4283 63 50.5 63C49.5717 63 48.6815 62.6313 48.0251 61.9749C47.3687 61.3185 47 60.4283 47 59.5L50.5 59.5H54Z" fill="#EAA18C"/>
<circle cx="42.5" cy="46.5" r="1.5" fill="#333333"/>
<circle cx="57.5" cy="46.5" r="1.5" fill="#333333"/>
<rect x="35" y="25" width="17" height="11" fill="#590B19"/>
<rect x="53" y="25" width="12" height="11" fill="#590B19"/>
</svg>
