<svg width="100" height="100" viewBox="0 0 100 100" fill="none" xmlns="http://www.w3.org/2000/svg">
<circle cx="50" cy="50" r="50" fill="#72F1C3"/>
<mask id="mask0_732_695" style="mask-type:alpha" maskUnits="userSpaceOnUse" x="0" y="0" width="100" height="100">
<circle cx="50" cy="50" r="50" fill="#7C72F1"/>
</mask>
<g mask="url(#mask0_732_695)">
<path d="M16 91.0909C16 80.5473 24.5473 72 35.0909 72H63.9091C74.4527 72 83 80.5473 83 91.0909C83 96.0113 79.0113 100 74.0909 100H24.9091C19.9887 100 16 96.0113 16 91.0909Z" fill="#EAA18C"/>
<path d="M16 91.0909C16 80.5473 24.5473 72 35.0909 72H63.9091C74.4527 72 83 80.5473 83 91.0909C83 96.0113 79.0113 100 74.0909 100H24.9091C19.9887 100 16 96.0113 16 91.0909Z" fill="#177932"/>
</g>
<path d="M43 61H57V73C57 75.7614 54.7614 78 52 78H48C45.2386 78 43 75.7614 43 73V61Z" fill="#EAA18C"/>
<path d="M41 73.5556C41 71.5919 42.5919 70 44.5556 70H54.4444C56.4081 70 58 71.5919 58 73.5556C58 76.0102 56.0102 78 53.5556 78H45.4444C42.9898 78 41 76.0102 41 73.5556Z" fill="#177932"/>
<path d="M31 33C31 23.6112 38.6112 16 48 16H62C66.9706 16 71 20.0294 71 25V36C71 43.1797 65.1797 49 58 49H44C36.8203 49 31 43.1797 31 36V33Z" fill="#3C2929"/>
<path d="M50 30.28C50 22.3934 43.6066 16 35.72 16C32.0086 16 29 19.0086 29 22.72V38.5C29 44.299 33.701 49 39.5 49C45.299 49 50 44.299 50 38.5V30.28Z" fill="#3C2929"/>
<path d="M31 38C31 32.4772 35.4772 28 41 28H59C64.5228 28 69 32.4772 69 38V50C69 60.4934 60.4934 69 50 69C39.5066 69 31 60.4934 31 50V38Z" fill="#F3B9A6"/>
<ellipse cx="50.5" cy="56" rx="4.5" ry="4" fill="white"/>
<rect width="10" height="4" rx="2" transform="matrix(1 0 0 -1 53 42)" fill="#3C2929"/>
<rect width="10" height="4" rx="2" transform="matrix(0.92787 0.372904 0.372904 -0.92787 50 53.7114)" fill="#3C2929"/>
<rect x="51.7703" y="53.7114" width="10" height="4" rx="2" transform="rotate(158.105 51.7703 53.7114)" fill="#3C2929"/>
<rect width="10" height="4" rx="2" transform="matrix(1 0 0 -1 36.9999 42)" fill="#3C2929"/>
<rect x="40" y="44" width="3" height="4" rx="1.5" fill="#3C2929"/>
<rect x="56" y="44" width="3" height="4" rx="1.5" fill="#3C2929"/>
<path d="M31 51C29.6739 51 28.4021 50.4205 27.4645 49.3891C26.5268 48.3576 26 46.9587 26 45.5C26 44.0413 26.5268 42.6424 27.4645 41.6109C28.4021 40.5795 29.6739 40 31 40L31 45.5L31 51Z" fill="#B85627"/>
<path d="M31 51C29.6739 51 28.4021 50.4205 27.4645 49.3891C26.5268 48.3576 26 46.9587 26 45.5C26 44.0413 26.5268 42.6424 27.4645 41.6109C28.4021 40.5795 29.6739 40 31 40L31 45.5L31 51Z" fill="#EAA18C"/>
<path d="M69 51C70.3261 51 71.5979 50.4205 72.5355 49.3891C73.4732 48.3576 74 46.9587 74 45.5C74 44.0413 73.4732 42.6424 72.5355 41.6109C71.5979 40.5795 70.3261 40 69 40L69 45.5L69 51Z" fill="#B85627"/>
<path d="M69 51C70.3261 51 71.5979 50.4205 72.5355 49.3891C73.4732 48.3576 74 46.9587 74 45.5C74 44.0413 73.4732 42.6424 72.5355 41.6109C71.5979 40.5795 70.3261 40 69 40L69 45.5L69 51Z" fill="#EAA18C"/>
</svg>
