<svg width="100" height="100" viewBox="0 0 100 100" fill="none" xmlns="http://www.w3.org/2000/svg">
<circle cx="50" cy="50" r="50" fill="white"/>
<path d="M29 33C29 23.6112 36.6112 16 46 16H54C63.3888 16 71 23.6112 71 33V58C71 65.1797 65.1797 71 58 71H42C34.8203 71 29 65.1797 29 58V33Z" fill="#590B19"/>
<mask id="mask0_732_570" style="mask-type:alpha" maskUnits="userSpaceOnUse" x="0" y="0" width="100" height="100">
<circle cx="50" cy="50" r="50" fill="white"/>
</mask>
<g mask="url(#mask0_732_570)">
<path d="M21 84C21 77.3726 26.3726 72 33 72H66C72.6274 72 78 77.3726 78 84V86C78 93.732 71.732 100 64 100H35C27.268 100 21 93.732 21 86V84Z" fill="#9980FF"/>
</g>
<path d="M43 61H57V71C57 74.866 53.866 78 50 78C46.134 78 43 74.866 43 71V61Z" fill="#EAA18C"/>
<path d="M31 38C31 32.4772 35.4772 28 41 28H59C64.5228 28 69 32.4772 69 38V50C69 60.4934 60.4934 69 50 69C39.5066 69 31 60.4934 31 50V38Z" fill="#F3B9A6"/>
<path d="M38.0775 42.2834C37.9476 41.6332 38.2364 40.9271 38.8801 40.3204C39.5239 39.7137 40.4701 39.2562 41.5104 39.0484C42.5507 38.8407 43.6 38.8997 44.4275 39.2125C45.2549 39.5254 45.7927 40.0664 45.9226 40.7166L42 41.5L38.0775 42.2834Z" fill="#3C2929"/>
<path d="M54.0903 40.655C54.2303 40.0069 54.7766 39.4744 55.6089 39.1746C56.4411 38.8748 57.4912 38.8323 58.5281 39.0564C59.5651 39.2805 60.5039 39.7529 61.138 40.3696C61.7722 40.9864 62.0498 41.6969 61.9097 42.345L58 41.5L54.0903 40.655Z" fill="#3C2929"/>
<path d="M56 54.5C56 56.2239 55.4205 57.8772 54.3891 59.0962C53.3576 60.3152 51.9587 61 50.5 61C49.0413 61 47.6424 60.3152 46.6109 59.0962C45.5795 57.8772 45 56.2239 45 54.5L50.5 54.5H56Z" fill="white"/>
<path d="M69 51.0001C70.8565 51.0001 72.637 50.4206 73.9497 49.3892C75.2625 48.3577 76 46.9588 76 45.5001C76 44.0414 75.8128 41.0315 74.5 40.0001C73.1872 38.9686 70.5 39.5001 69 40.0001L69 45.5001L69 51.0001Z" fill="#EAA18C"/>
<path d="M69 51.0001C70.8565 51.0001 72.637 50.4206 73.9497 49.3892C75.2625 48.3577 76 46.9588 76 45.5001C76 44.0414 75.8128 41.0315 74.5 40.0001C73.1872 38.9686 70.5 39.5001 69 40.0001L69 45.5001L69 51.0001Z" fill="#EAA18C"/>
<path d="M31 51.0001C29.1435 51.0001 27.363 50.4206 26.0503 49.3892C24.7375 48.3577 24 46.9588 24 45.5001C24 44.0414 24.1872 41.0315 25.5 40.0001C26.8128 38.9686 29.5 39.5001 31 40.0001L31 45.5001L31 51.0001Z" fill="#EAA18C"/>
<path d="M31 51.0001C29.1435 51.0001 27.363 50.4206 26.0503 49.3892C24.7375 48.3577 24 46.9588 24 45.5001C24 44.0414 24.1872 41.0315 25.5 40.0001C26.8128 38.9686 29.5 39.5001 31 40.0001L31 45.5001L31 51.0001Z" fill="#EAA18C"/>
<path d="M38.6527 47C38.2922 47 37.9929 46.7044 38.0707 46.3524C38.1932 45.7985 38.4713 45.2861 38.8787 44.8787C39.4413 44.3161 40.2044 44 41 44C41.7956 44 42.5587 44.3161 43.1213 44.8787C43.5287 45.2861 43.8068 45.7985 43.9293 46.3524C44.0071 46.7044 43.7078 47 43.3473 47C42.9868 47 42.7058 46.6973 42.5703 46.3633C42.4859 46.1551 42.3601 45.9637 42.1982 45.8018C41.8804 45.484 41.4494 45.3055 41 45.3055C40.5506 45.3055 40.1196 45.484 39.8018 45.8018C39.6399 45.9637 39.5141 46.1551 39.4297 46.3633C39.2942 46.6973 39.0132 47 38.6527 47Z" fill="#3C2929"/>
<path d="M55.5864 47C55.2625 47 54.9942 46.735 55.0571 46.4173C55.1717 45.8386 55.4554 45.3019 55.8787 44.8787C56.4413 44.3161 57.2044 44 58 44C58.7956 44 59.5587 44.3161 60.1213 44.8787C60.5446 45.3019 60.8283 45.8386 60.9429 46.4173C61.0058 46.735 60.7375 47 60.4136 47C60.0897 47 59.836 46.7309 59.7339 46.4236C59.645 46.1564 59.4948 45.9108 59.292 45.708C58.9493 45.3653 58.4846 45.1728 58 45.1728C57.5154 45.1728 57.0507 45.3653 56.708 45.708C56.5052 45.9108 56.355 46.1564 56.2661 46.4236C56.164 46.7309 55.9103 47 55.5864 47Z" fill="#3C2929"/>
<rect x="33" y="25" width="34" height="10" fill="#590B19"/>
</svg>
