<svg width="100" height="100" viewBox="0 0 100 100" fill="none" xmlns="http://www.w3.org/2000/svg">
<circle cx="50" cy="50" r="50" fill="#CB4200"/>
<path d="M29 33C29 23.6112 36.6112 16 46 16H54C63.3888 16 71 23.6112 71 33V65C71 72.1797 65.1797 78 58 78H42C34.8203 78 29 72.1797 29 65V33Z" fill="#FECC6D"/>
<mask id="mask0_732_659" style="mask-type:alpha" maskUnits="userSpaceOnUse" x="0" y="0" width="100" height="100">
<circle cx="50" cy="50" r="50" fill="#7C72F1"/>
</mask>
<g mask="url(#mask0_732_659)">
<path d="M21 91.0909C21 80.5473 29.5473 72 40.0909 72H58.9091C69.4527 72 78 80.5473 78 91.0909C78 96.0113 74.0113 100 69.0909 100H29.9091C24.9887 100 21 96.0113 21 91.0909Z" fill="#3B55B1"/>
</g>
<path d="M43 61H57V73C57 75.7614 54.7614 78 52 78H48C45.2386 78 43 75.7614 43 73V61Z" fill="#EAA18C"/>
<path d="M31 38C31 32.4772 35.4771 28 41 28H59C64.5228 28 69 32.4772 69 38V50C69 60.4934 60.4934 69 50 69C39.5066 69 31 60.4934 31 50V38Z" fill="#F3B9A6"/>
<rect x="40" y="44" width="3" height="4" rx="1.5" fill="#341615"/>
<rect x="56" y="44" width="3" height="4" rx="1.5" fill="#341615"/>
<path d="M56 55C56 56.3261 55.4205 57.5979 54.3891 58.5355C53.3576 59.4732 51.9587 60 50.5 60C49.0413 60 47.6424 59.4732 46.6109 58.5355C45.5795 57.5979 45 56.3261 45 55L50.5 55H56Z" fill="#FC6464"/>
<path d="M38 40.5C38 39.837 38.4214 39.2011 39.1716 38.7322C39.9217 38.2634 40.9391 38 42 38C43.0609 38 44.0783 38.2634 44.8284 38.7322C45.5786 39.2011 46 39.837 46 40.5L42 40.5L38 40.5Z" fill="#3C2929"/>
<path d="M54 40.5C54 39.837 54.4214 39.2011 55.1716 38.7322C55.9217 38.2634 56.9391 38 58 38C59.0609 38 60.0783 38.2634 60.8284 38.7322C61.5786 39.2011 62 39.837 62 40.5L58 40.5L54 40.5Z" fill="#3C2929"/>
<path d="M69.4451 28.7136C70.3541 29.8045 70.8582 30.8173 70.9019 31.6406C70.9456 32.4639 70.5273 33.066 69.6929 33.3805C68.8585 33.695 67.6403 33.7098 66.1723 33.4233C64.7043 33.1368 63.0433 32.5601 61.3719 31.7566C59.7004 30.9531 58.0833 29.9538 56.6983 28.8687C55.3133 27.7836 54.214 26.6547 53.5212 25.606C52.8285 24.5573 52.5691 23.6295 52.7717 22.9246C52.9742 22.2196 53.6308 21.7648 54.6693 21.6102L61.8049 27.5895L69.4451 28.7136Z" fill="#FECC6D"/>
<ellipse cx="46.0403" cy="28.8724" rx="16.6624" ry="3.87455" transform="rotate(-18.1509 46.0403 28.8724)" fill="#FECC6D"/>
<path d="M31 51C29.6739 51 28.4021 50.4205 27.4645 49.3891C26.5268 48.3576 26 46.9587 26 45.5C26 44.0413 26.5268 42.6424 27.4645 41.6109C28.4021 40.5795 29.6739 40 31 40L31 45.5L31 51Z" fill="#EAA18C"/>
<path d="M31 51C29.6739 51 28.4021 50.4205 27.4645 49.3891C26.5268 48.3576 26 46.9587 26 45.5C26 44.0413 26.5268 42.6424 27.4645 41.6109C28.4021 40.5795 29.6739 40 31 40L31 45.5L31 51Z" fill="#EAA18C"/>
<path d="M69 51C70.3261 51 71.5979 50.4205 72.5355 49.3891C73.4732 48.3576 74 46.9587 74 45.5C74 44.0413 73.4732 42.6424 72.5355 41.6109C71.5979 40.5795 70.3261 40 69 40L69 45.5L69 51Z" fill="#EAA18C"/>
<path d="M69 51C70.3261 51 71.5979 50.4205 72.5355 49.3891C73.4732 48.3576 74 46.9587 74 45.5C74 44.0413 73.4732 42.6424 72.5355 41.6109C71.5979 40.5795 70.3261 40 69 40L69 45.5L69 51Z" fill="#EAA18C"/>
<circle cx="50" cy="93" r="1.75" fill="#5C7CEB" stroke="#354C9C" stroke-width="0.5"/>
<circle cx="50" cy="85" r="1.75" fill="#5C7CEB" stroke="#354C9C" stroke-width="0.5"/>
</svg>
