<svg width="100" height="100" viewBox="0 0 100 100" fill="none" xmlns="http://www.w3.org/2000/svg">
<circle cx="50" cy="50" r="50" fill="#FFA1EA"/>
<path d="M32.5846 71.0667C32.8547 73.3126 31 75.0001 28.5259 75.6802C26.0143 75.9823 23.7592 74.4065 23.4891 72.1606C23.219 69.9147 25.0361 67.8491 27.5477 67.547C30.0594 67.2449 32.3144 68.8207 32.5846 71.0667Z" fill="#333333"/>
<path d="M27.9661 31.8966C28.5476 22.955 35.9697 16 44.9302 16H55.4303C64.2416 16 71.5925 22.7324 72.3649 31.5098L75.2312 64.0819C75.9088 71.7822 69.7575 78.3691 62.0289 78.219L38.6033 77.7641C31.1927 77.6202 25.402 71.3192 25.8831 63.9228L27.9661 31.8966Z" fill="#333333"/>
<ellipse cx="71.0368" cy="71.6136" rx="4.5805" ry="4.09591" transform="rotate(-6.85818 71.0368 71.6136)" fill="#333333"/>
<mask id="mask0_732_609" style="mask-type:alpha" maskUnits="userSpaceOnUse" x="0" y="0" width="100" height="100">
<circle cx="50" cy="50" r="50" fill="#7C72F1"/>
</mask>
<g mask="url(#mask0_732_609)">
<path d="M21 91.0909C21 80.5473 29.5473 72 40.0909 72H58.9091C69.4527 72 78 80.5473 78 91.0909C78 96.0113 74.0113 100 69.0909 100H29.9091C24.9887 100 21 96.0113 21 91.0909Z" fill="white"/>
</g>
<path d="M43 61H57V73C57 75.7614 54.7614 78 52 78H48C45.2386 78 43 75.7614 43 73V61Z" fill="#B85627"/>
<path d="M31 38C31 32.4772 35.4771 28 41 28H59C64.5228 28 69 32.4772 69 38V50C69 60.4934 60.4934 69 50 69C39.5066 69 31 60.4934 31 50V38Z" fill="#D67648"/>
<rect x="40" y="44" width="3" height="4" rx="1.5" fill="#341615"/>
<rect x="56" y="44" width="3" height="4" rx="1.5" fill="#341615"/>
<path d="M56 55C56 56.3261 55.4205 57.5979 54.3891 58.5355C53.3576 59.4732 51.9587 60 50.5 60C49.0413 60 47.6424 59.4732 46.6109 58.5355C45.5795 57.5979 45 56.3261 45 55L50.5 55H56Z" fill="#CB1C1C"/>
<path d="M38 40.5C38 39.837 38.4214 39.2011 39.1716 38.7322C39.9217 38.2634 40.9391 38 42 38C43.0609 38 44.0783 38.2634 44.8284 38.7322C45.5786 39.2011 46 39.837 46 40.5L42 40.5L38 40.5Z" fill="#3C2929"/>
<path d="M54 40.5C54 39.837 54.4214 39.2011 55.1716 38.7322C55.9217 38.2634 56.9391 38 58 38C59.0609 38 60.0783 38.2634 60.8284 38.7322C61.5786 39.2011 62 39.837 62 40.5L58 40.5L54 40.5Z" fill="#3C2929"/>
<ellipse cx="53.7378" cy="24.3289" rx="6.0676" ry="5" transform="rotate(29.2827 53.7378 24.3289)" fill="#333333"/>
<ellipse cx="61.5324" cy="27.7744" rx="5.1566" ry="5" transform="rotate(29.2827 61.5324 27.7744)" fill="#333333"/>
<ellipse cx="66.7378" cy="32.3288" rx="4.19502" ry="3.4569" transform="rotate(29.2827 66.7378 32.3288)" fill="#333333"/>
<ellipse cx="34.3715" cy="29.0025" rx="5.78842" ry="5" transform="rotate(-6.85818 34.3715 29.0025)" fill="#333333"/>
<ellipse cx="42.3441" cy="26.6553" rx="5.78842" ry="5" transform="rotate(-6.85818 42.3441 26.6553)" fill="#333333"/>
<ellipse cx="47.097" cy="26.6553" rx="4.43093" ry="4.15606" transform="rotate(-6.85818 47.097 26.6553)" fill="#333333"/>
<ellipse cx="53.3441" cy="27.6553" rx="5.78842" ry="5" transform="rotate(-6.85818 53.3441 27.6553)" fill="#333333"/>
<ellipse cx="72.0368" cy="59.902" rx="4.5805" ry="4.09591" transform="rotate(-6.85818 72.0368 59.902)" fill="#333333"/>
<ellipse cx="28.0368" cy="60.6136" rx="4.5805" ry="4.09591" transform="rotate(-6.85818 28.0368 60.6136)" fill="#333333"/>
<ellipse cx="72.0368" cy="66.6136" rx="4.5805" ry="4.09591" transform="rotate(-6.85818 72.0368 66.6136)" fill="#333333"/>
<ellipse cx="29.0368" cy="66.6136" rx="4.5805" ry="4.09591" transform="rotate(-6.85818 29.0368 66.6136)" fill="#333333"/>
<ellipse cx="72.4376" cy="54.0834" rx="3.39929" ry="3.58164" transform="rotate(-6.85818 72.4376 54.0834)" fill="#333333"/>
<ellipse cx="3.39929" cy="3.58164" rx="3.39929" ry="3.58164" transform="matrix(-0.992845 -0.119412 -0.119412 0.992845 30.6053 50.8118)" fill="#333333"/>
<ellipse cx="72.4376" cy="48.0834" rx="3.39929" ry="3.58164" transform="rotate(-6.85818 72.4376 48.0834)" fill="#333333"/>
<ellipse cx="27.1654" cy="48.0385" rx="2.75747" ry="3.58164" transform="rotate(-6.85818 27.1654 48.0385)" fill="#333333"/>
<ellipse cx="72.4376" cy="42.0834" rx="3.39929" ry="3.58164" transform="rotate(-6.85818 72.4376 42.0834)" fill="#333333"/>
<ellipse cx="2.49629" cy="3.58164" rx="2.49629" ry="3.58164" transform="matrix(-0.992845 -0.119412 -0.119412 0.992845 29.8123 38.5962)" fill="#333333"/>
<ellipse cx="72.4376" cy="36.0834" rx="3.39929" ry="3.58164" transform="rotate(-6.85818 72.4376 36.0834)" fill="#333333"/>
<ellipse cx="27.8027" cy="35.9619" rx="3.39929" ry="3.58164" transform="rotate(-6.85818 27.8027 35.9619)" fill="#333333"/>
<ellipse cx="70.8027" cy="31.9619" rx="3.39929" ry="3.58164" transform="rotate(-6.85818 70.8027 31.9619)" fill="#333333"/>
<ellipse cx="29.8027" cy="30.9619" rx="3.39929" ry="3.58164" transform="rotate(-6.85818 29.8027 30.9619)" fill="#333333"/>
<ellipse cx="69.8027" cy="25.9619" rx="3.39929" ry="3.58164" transform="rotate(-6.85818 69.8027 25.9619)" fill="#333333"/>
<ellipse cx="66.8027" cy="22.9619" rx="3.39929" ry="3.58164" transform="rotate(-6.85818 66.8027 22.9619)" fill="#333333"/>
<ellipse cx="64.8027" cy="19.9619" rx="3.39929" ry="3.58164" transform="rotate(-6.85818 64.8027 19.9619)" fill="#333333"/>
<ellipse cx="60.8027" cy="18.9619" rx="3.39929" ry="3.58164" transform="rotate(-6.85818 60.8027 18.9619)" fill="#333333"/>
<ellipse cx="56.8027" cy="16.9619" rx="3.39929" ry="3.58164" transform="rotate(-6.85818 56.8027 16.9619)" fill="#333333"/>
<ellipse cx="52.8027" cy="16.9619" rx="3.39929" ry="3.58164" transform="rotate(-6.85818 52.8027 16.9619)" fill="#333333"/>
<ellipse cx="46.8747" cy="17.5614" rx="3.39929" ry="2.97785" transform="rotate(-6.85818 46.8747 17.5614)" fill="#333333"/>
<ellipse cx="41.7306" cy="17.3624" rx="3.39929" ry="2.97785" transform="rotate(-6.85818 41.7306 17.3624)" fill="#333333"/>
<ellipse cx="37.7306" cy="19.3624" rx="3.39929" ry="2.97785" transform="rotate(-6.85818 37.7306 19.3624)" fill="#333333"/>
<ellipse cx="33.7306" cy="21.3624" rx="3.39929" ry="2.97785" transform="rotate(-6.85818 33.7306 21.3624)" fill="#333333"/>
<ellipse cx="31.7306" cy="25.3624" rx="3.39929" ry="2.97785" transform="rotate(-6.85818 31.7306 25.3624)" fill="#333333"/>
<path d="M31 51C29.6739 51 28.4021 50.4205 27.4645 49.3891C26.5268 48.3576 26 46.9587 26 45.5C26 44.0413 26.5268 42.6424 27.4645 41.6109C28.4021 40.5795 29.6739 40 31 40L31 45.5L31 51Z" fill="#D67648"/>
<path d="M31 51C29.6739 51 28.4021 50.4205 27.4645 49.3891C26.5268 48.3576 26 46.9587 26 45.5C26 44.0413 26.5268 42.6424 27.4645 41.6109C28.4021 40.5795 29.6739 40 31 40L31 45.5L31 51Z" fill="#D67648"/>
<path d="M69 51C70.3261 51 71.5979 50.4205 72.5355 49.3891C73.4732 48.3576 74 46.9587 74 45.5C74 44.0413 73.4732 42.6424 72.5355 41.6109C71.5979 40.5795 70.3261 40 69 40L69 45.5L69 51Z" fill="#D67648"/>
<path d="M69 51C70.3261 51 71.5979 50.4205 72.5355 49.3891C73.4732 48.3576 74 46.9587 74 45.5C74 44.0413 73.4732 42.6424 72.5355 41.6109C71.5979 40.5795 70.3261 40 69 40L69 45.5L69 51Z" fill="#D67648"/>
</svg>
