<svg width="100" height="100" viewBox="0 0 100 100" fill="none" xmlns="http://www.w3.org/2000/svg">
<circle cx="50" cy="50" r="50" fill="#D69B56"/>
<path d="M41 15C41 10.0294 45.0294 6 50 6C54.9706 6 59 10.0294 59 15C59 19.9706 54.9706 24 50 24C45.0294 24 41 19.9706 41 15Z" fill="#4C0714"/>
<path d="M29 37C29 25.402 38.402 16 50 16C61.598 16 71 25.402 71 37V47C71 58.598 61.598 68 50 68C38.402 68 29 58.598 29 47V37Z" fill="#590B19"/>
<mask id="mask0_732_552" style="mask-type:alpha" maskUnits="userSpaceOnUse" x="0" y="0" width="100" height="100">
<circle cx="50" cy="50" r="50" fill="white"/>
</mask>
<g mask="url(#mask0_732_552)">
<path d="M21 91.0909C21 80.5473 29.5473 72 40.0909 72H58.9091C69.4527 72 78 80.5473 78 91.0909C78 96.0113 74.0113 100 69.0909 100H29.9091C24.9887 100 21 96.0113 21 91.0909Z" fill="#DEDEDE"/>
</g>
<path d="M43 61H57V73C57 75.7614 54.7614 78 52 78H48C45.2386 78 43 75.7614 43 73V61Z" fill="#FCC0AC"/>
<path d="M31 38C31 32.4772 35.4772 28 41 28H59C64.5228 28 69 32.4772 69 38V50C69 60.4934 60.4934 69 50 69C39.5066 69 31 60.4934 31 50V38Z" fill="#FFCAB9"/>
<path d="M38.0775 42.2834C37.9476 41.6332 38.2364 40.9271 38.8801 40.3204C39.5239 39.7137 40.4701 39.2562 41.5104 39.0484C42.5507 38.8407 43.6 38.8997 44.4275 39.2125C45.2549 39.5254 45.7927 40.0664 45.9226 40.7166L42 41.5L38.0775 42.2834Z" fill="#3C2929"/>
<path d="M54.0903 40.655C54.2303 40.0069 54.7766 39.4744 55.6089 39.1746C56.4411 38.8748 57.4912 38.8323 58.5281 39.0564C59.5651 39.2805 60.5039 39.7529 61.138 40.3696C61.7722 40.9864 62.0498 41.6969 61.9097 42.345L58 41.5L54.0903 40.655Z" fill="#3C2929"/>
<path d="M54 57.5C54 58.4283 53.6313 59.3185 52.9749 59.9749C52.3185 60.6313 51.4283 61 50.5 61C49.5717 61 48.6815 60.6313 48.0251 59.9749C47.3687 59.3185 47 58.4283 47 57.5L50.5 57.5H54Z" fill="#EAA18C"/>
<path d="M69 51.0001C70.8565 51.0001 72.637 50.4206 73.9497 49.3892C75.2625 48.3577 76 46.9588 76 45.5001C76 44.0414 75.8128 41.0315 74.5 40.0001C73.1872 38.9686 70.5 39.5001 69 40.0001L69 45.5001L69 51.0001Z" fill="#FFCAB9"/>
<path d="M69 51.0001C70.8565 51.0001 72.637 50.4206 73.9497 49.3892C75.2625 48.3577 76 46.9588 76 45.5001C76 44.0414 75.8128 41.0315 74.5 40.0001C73.1872 38.9686 70.5 39.5001 69 40.0001L69 45.5001L69 51.0001Z" fill="#FCC0AC"/>
<path d="M31 51.0001C29.1435 51.0001 27.363 50.4206 26.0503 49.3892C24.7375 48.3577 24 46.9588 24 45.5001C24 44.0414 24.1872 41.0315 25.5 40.0001C26.8128 38.9686 29.5 39.5001 31 40.0001L31 45.5001L31 51.0001Z" fill="#FFCAB9"/>
<path d="M31 51.0001C29.1435 51.0001 27.363 50.4206 26.0503 49.3892C24.7375 48.3577 24 46.9588 24 45.5001C24 44.0414 24.1872 41.0315 25.5 40.0001C26.8128 38.9686 29.5 39.5001 31 40.0001L31 45.5001L31 51.0001Z" fill="#FCC0AC"/>
<rect x="33" y="25" width="34" height="10" fill="#590B19"/>
<path d="M60 46L56 46" stroke="#3C2929" stroke-linecap="round"/>
<path d="M44 46L40 46" stroke="#3C2929" stroke-linecap="round"/>
</svg>
