<svg width="188" height="40" viewBox="0 0 188 40" fill="none" xmlns="http://www.w3.org/2000/svg">
<path d="M172.796 9.36438H175.259L175.751 12.2844V16.8617H173.275V11.9161L172.796 9.36438ZM178.414 9.15393C179.106 9.15393 179.692 9.29861 180.171 9.58798C180.659 9.87735 181.027 10.2851 181.276 10.8112C181.533 11.3286 181.662 11.9512 181.662 12.679V16.8617H179.186V13.0473C179.186 12.4247 179.048 11.9555 178.773 11.6399C178.498 11.3154 178.094 11.1532 177.562 11.1532C177.189 11.1532 176.865 11.2409 176.59 11.4163C176.324 11.5829 176.115 11.824 175.964 12.1397C175.822 12.4466 175.751 12.8149 175.751 13.2446L174.966 12.8368C175.063 12.0388 175.272 11.368 175.592 10.8244C175.92 10.2807 176.324 9.86858 176.803 9.58798C177.291 9.29861 177.828 9.15393 178.414 9.15393ZM184.311 9.15393C185.003 9.15393 185.594 9.29861 186.082 9.58798C186.57 9.87735 186.938 10.2851 187.187 10.8112C187.444 11.3286 187.573 11.9512 187.573 12.679V16.8617H185.097V13.0473C185.097 12.4247 184.959 11.9555 184.684 11.6399C184.409 11.3154 184.005 11.1532 183.472 11.1532C183.1 11.1532 182.776 11.2409 182.501 11.4163C182.234 11.5829 182.026 11.824 181.875 12.1397C181.733 12.4466 181.662 12.8149 181.662 13.2446L180.877 12.8368C180.974 12.0388 181.183 11.368 181.502 10.8244C181.822 10.2807 182.226 9.86858 182.714 9.58798C183.202 9.29861 183.734 9.15393 184.311 9.15393Z" fill="white"/>
<path d="M169.099 6.73404H171.561V16.8619H169.099V6.73404Z" fill="white"/>
<path d="M162.37 8.35171C161.828 8.35171 161.433 8.45255 161.185 8.65423C160.936 8.85591 160.812 9.18474 160.812 9.64071V16.8618H158.349V9.87747C158.349 9.1672 158.487 8.56654 158.762 8.07549C159.046 7.57567 159.463 7.19423 160.013 6.93117C160.563 6.65934 161.251 6.52342 162.077 6.52342C162.423 6.52342 162.733 6.55411 163.009 6.6155C163.284 6.66811 163.559 6.74264 163.834 6.8391V8.65423C163.612 8.55777 163.381 8.48324 163.142 8.43063C162.902 8.37801 162.645 8.35171 162.37 8.35171ZM156.778 11.7715V9.95639H163.741V11.7715H156.778ZM165.045 9.25927L166.283 9.50918L167.521 9.25927V16.8618H165.045V9.25927ZM166.283 8.57531C165.849 8.57531 165.494 8.4657 165.218 8.24648C164.943 8.0185 164.806 7.72036 164.806 7.35207C164.806 6.97501 164.943 6.67688 165.218 6.45766C165.494 6.23844 165.849 6.12883 166.283 6.12883C166.727 6.12883 167.082 6.23844 167.348 6.45766C167.615 6.67688 167.748 6.97501 167.748 7.35207C167.748 7.72036 167.615 8.0185 167.348 8.24648C167.082 8.4657 166.727 8.57531 166.283 8.57531Z" fill="white"/>
<path d="M149.864 16.8617L149.531 14.139L149.891 13.113L149.531 12.1002L149.864 9.36438H152.433L151.967 13.113L152.433 16.8617H149.864ZM150.476 13.113C150.343 13.911 150.09 14.6081 149.718 15.2044C149.345 15.7919 148.874 16.2522 148.306 16.5854C147.738 16.9099 147.099 17.0721 146.389 17.0721C145.644 17.0721 144.987 16.9055 144.419 16.5723C143.86 16.2391 143.421 15.7787 143.101 15.1912C142.782 14.5949 142.622 13.9022 142.622 13.113C142.622 12.3238 142.782 11.6355 143.101 11.048C143.421 10.4517 143.86 9.98696 144.419 9.65375C144.987 9.32054 145.644 9.15393 146.389 9.15393C147.099 9.15393 147.738 9.32054 148.306 9.65375C148.874 9.97819 149.345 10.4342 149.718 11.0217C150.099 11.6092 150.352 12.3063 150.476 13.113ZM145.125 13.113C145.125 13.5164 145.209 13.8759 145.378 14.1916C145.546 14.4985 145.777 14.744 146.07 14.9282C146.372 15.1035 146.718 15.1912 147.108 15.1912C147.499 15.1912 147.867 15.1035 148.213 14.9282C148.568 14.744 148.879 14.4985 149.145 14.1916C149.411 13.8759 149.611 13.5164 149.744 13.113C149.611 12.7097 149.411 12.3545 149.145 12.0476C148.879 11.7319 148.568 11.4864 148.213 11.311C147.867 11.1269 147.499 11.0348 147.108 11.0348C146.718 11.0348 146.372 11.1269 146.07 11.311C145.777 11.4864 145.546 11.7319 145.378 12.0476C145.209 12.3545 145.125 12.7097 145.125 13.113Z" fill="white"/>
<path d="M133.744 16.8622V15.1523L139.149 10.7723L140.853 11.1406H133.784V9.36494H141.785V11.0749L136.393 15.4548L134.942 15.0866H141.811V16.8622H133.744Z" fill="white"/>
<path d="M126.71 16.8617L126.377 14.139L126.736 13.113L126.377 12.1002L126.71 9.36438H129.279L128.813 13.113L129.279 16.8617H126.71ZM127.322 13.113C127.189 13.911 126.936 14.6081 126.563 15.2044C126.191 15.7919 125.72 16.2522 125.152 16.5854C124.584 16.9099 123.945 17.0721 123.235 17.0721C122.49 17.0721 121.833 16.9055 121.265 16.5723C120.706 16.2391 120.267 15.7787 119.947 15.1912C119.628 14.5949 119.468 13.9022 119.468 13.113C119.468 12.3238 119.628 11.6355 119.947 11.048C120.267 10.4517 120.706 9.98696 121.265 9.65375C121.833 9.32054 122.49 9.15393 123.235 9.15393C123.945 9.15393 124.584 9.32054 125.152 9.65375C125.72 9.97819 126.191 10.4342 126.563 11.0217C126.945 11.6092 127.198 12.3063 127.322 13.113ZM121.971 13.113C121.971 13.5164 122.055 13.8759 122.223 14.1916C122.392 14.4985 122.623 14.744 122.916 14.9282C123.217 15.1035 123.564 15.1912 123.954 15.1912C124.345 15.1912 124.713 15.1035 125.059 14.9282C125.414 14.744 125.725 14.4985 125.991 14.1916C126.257 13.8759 126.457 13.5164 126.59 13.113C126.457 12.7097 126.257 12.3545 125.991 12.0476C125.725 11.7319 125.414 11.4864 125.059 11.311C124.713 11.1269 124.345 11.0348 123.954 11.0348C123.564 11.0348 123.217 11.1269 122.916 11.311C122.623 11.4864 122.392 11.7319 122.223 12.0476C122.055 12.3545 121.971 12.7097 121.971 13.113Z" fill="white"/>
<path d="M112.969 14.8758L112.29 14.6522L116.643 9.36466H119.292L112.729 16.8619H110.506V6.73404H112.969V14.8758ZM114.486 13.1922L116.323 11.8638L119.492 16.8619H116.683L114.486 13.1922Z" fill="white"/>
<path d="M103.548 17.0595C102.847 17.0595 102.244 16.9192 101.738 16.6386C101.241 16.3493 100.859 15.9415 100.593 15.4154C100.336 14.8893 100.207 14.2667 100.207 13.5476V9.36494H102.683V13.1925C102.683 13.7975 102.83 14.2623 103.122 14.5867C103.415 14.9112 103.837 15.0734 104.387 15.0734C104.795 15.0734 105.142 14.9901 105.426 14.8235C105.71 14.6569 105.927 14.4157 106.078 14.1001C106.238 13.7844 106.317 13.4117 106.317 12.9821L107.09 13.3898C107.001 14.179 106.788 14.8498 106.451 15.4022C106.122 15.9459 105.705 16.358 105.199 16.6386C104.702 16.9192 104.152 17.0595 103.548 17.0595ZM106.797 16.8622L106.317 13.9422V9.36494H108.78V14.3105L109.273 16.8622H106.797Z" fill="white"/>
<path d="M92.7393 9.36438H95.242L95.6946 12.0608V16.8617H93.2185V11.8503L92.7393 9.36438ZM99.3156 9.25916V11.3637C99.076 11.311 98.8364 11.2716 98.5967 11.2453C98.366 11.219 98.153 11.2058 97.9577 11.2058C97.5317 11.2058 97.1457 11.2935 96.7996 11.4689C96.4623 11.6355 96.1916 11.9029 95.9875 12.2712C95.7922 12.6395 95.6946 13.1174 95.6946 13.7049L95.2021 13.0999C95.2642 12.565 95.3662 12.0608 95.5082 11.5873C95.6502 11.1137 95.8455 10.6972 96.094 10.3377C96.3425 9.96942 96.6487 9.68006 97.0126 9.46961C97.3853 9.25916 97.8335 9.15393 98.3571 9.15393C98.508 9.15393 98.6677 9.1627 98.8364 9.18024C99.005 9.19777 99.1647 9.22408 99.3156 9.25916Z" fill="white"/>
<path d="M87.105 17.0721C86.1465 17.0721 85.3078 16.9055 84.5889 16.5723C83.8701 16.2391 83.3109 15.7743 82.9116 15.1781C82.5122 14.5818 82.3125 13.8934 82.3125 13.113C82.3125 12.3238 82.5122 11.6355 82.9116 11.048C83.3109 10.4517 83.8701 9.98696 84.5889 9.65375C85.3167 9.32054 86.1554 9.15393 87.105 9.15393C88.0635 9.15393 88.9022 9.32054 89.621 9.65375C90.3399 9.98696 90.899 10.4517 91.2984 11.048C91.7067 11.6355 91.9108 12.3238 91.9108 13.113C91.9108 13.9022 91.7067 14.5949 91.2984 15.1912C90.899 15.7787 90.3399 16.2391 89.621 16.5723C88.9022 16.9055 88.0635 17.0721 87.105 17.0721ZM87.105 15.2307C87.5931 15.2307 88.0058 15.1474 88.343 14.9808C88.6892 14.8054 88.951 14.5599 89.1285 14.2442C89.3149 13.9285 89.408 13.5515 89.408 13.113C89.408 12.6746 89.3149 12.2975 89.1285 11.9819C88.951 11.6574 88.6892 11.4119 88.343 11.2453C88.0058 11.0699 87.5931 10.9822 87.105 10.9822C86.6346 10.9822 86.2264 11.0699 85.8802 11.2453C85.5341 11.4119 85.2679 11.6574 85.0815 11.9819C84.8951 12.2975 84.8019 12.6746 84.8019 13.113C84.8019 13.5515 84.8951 13.9285 85.0815 14.2442C85.2679 14.5599 85.5341 14.8054 85.8802 14.9808C86.2264 15.1474 86.6346 15.2307 87.105 15.2307Z" fill="white"/>
<path d="M71.9336 9.36438H74.3964V11.6267L74.3032 11.9424V13.8891L74.3964 14.4678V19.0319H71.9336V9.36438ZM73.5843 13.113C73.7175 12.3063 73.9704 11.6092 74.3431 11.0217C74.7159 10.4342 75.1863 9.97819 75.7543 9.65375C76.3311 9.32054 76.9701 9.15393 77.6713 9.15393C78.4168 9.15393 79.0691 9.32054 79.6282 9.65375C80.1962 9.98696 80.6399 10.4517 80.9594 11.048C81.2789 11.6355 81.4387 12.3238 81.4387 13.113C81.4387 13.9022 81.2789 14.5949 80.9594 15.1912C80.6399 15.7787 80.1962 16.2391 79.6282 16.5723C79.0691 16.9055 78.4168 17.0721 77.6713 17.0721C76.9613 17.0721 76.3223 16.9099 75.7543 16.5854C75.1951 16.2522 74.7248 15.7919 74.3431 15.2044C73.9704 14.6081 73.7175 13.911 73.5843 13.113ZM78.9359 13.113C78.9359 12.7097 78.8516 12.3545 78.683 12.0476C78.5144 11.7319 78.2792 11.4864 77.9774 11.311C77.6846 11.1269 77.3429 11.0348 76.9524 11.0348C76.5619 11.0348 76.1891 11.1269 75.8341 11.311C75.488 11.4864 75.1818 11.7319 74.9156 12.0476C74.6582 12.3545 74.4585 12.7097 74.3165 13.113C74.4585 13.5164 74.6582 13.8759 74.9156 14.1916C75.1818 14.4985 75.488 14.744 75.8341 14.9282C76.1891 15.1035 76.5619 15.1912 76.9524 15.1912C77.3429 15.1912 77.6846 15.1035 77.9774 14.9282C78.2792 14.744 78.5144 14.4985 78.683 14.1916C78.8516 13.8759 78.9359 13.5164 78.9359 13.113Z" fill="white"/>
<path d="M66.6019 17.0721C65.6967 17.0721 64.8846 16.9055 64.1657 16.5723C63.4557 16.2391 62.8966 15.7743 62.4883 15.1781C62.0801 14.5818 61.876 13.8847 61.876 13.0867C61.876 12.3063 62.0712 11.6223 62.4617 11.0348C62.8522 10.4473 63.3892 9.98696 64.0725 9.65375C64.7648 9.32054 65.5458 9.15393 66.4155 9.15393C67.303 9.15393 68.0663 9.34684 68.7053 9.73267C69.3443 10.1185 69.8368 10.6622 70.1829 11.3637C70.5291 12.0652 70.7021 12.8894 70.7021 13.8364H63.8595V12.2975H69.3443L68.4523 12.85C68.4257 12.4378 68.3236 12.0915 68.1461 11.8109C67.9775 11.5215 67.7512 11.3023 67.4672 11.1532C67.1832 10.9954 66.846 10.9164 66.4555 10.9164C66.0295 10.9164 65.6612 10.9998 65.3505 11.1664C65.0399 11.333 64.7958 11.5653 64.6183 11.8635C64.4497 12.1616 64.3654 12.508 64.3654 12.9026C64.3654 13.4024 64.4763 13.8277 64.6982 14.1784C64.929 14.5292 65.2573 14.7966 65.6833 14.9808C66.1182 15.1649 66.6463 15.257 67.2675 15.257C67.8355 15.257 68.4035 15.1824 68.9715 15.0334C69.5395 14.8755 70.0498 14.6563 70.5024 14.3757V15.9672C69.9877 16.318 69.3975 16.5898 68.7319 16.7827C68.0751 16.9757 67.3651 17.0721 66.6019 17.0721Z" fill="white"/>
<path d="M54.8955 9.36438H57.3982L57.8509 12.0608V16.8617H55.3748V11.8503L54.8955 9.36438ZM61.4719 9.25916V11.3637C61.2322 11.311 60.9926 11.2716 60.753 11.2453C60.5222 11.219 60.3092 11.2058 60.114 11.2058C59.688 11.2058 59.3019 11.2935 58.9558 11.4689C58.6186 11.6355 58.3479 11.9029 58.1437 12.2712C57.9485 12.6395 57.8509 13.1174 57.8509 13.7049L57.3583 13.0999C57.4204 12.565 57.5225 12.0608 57.6645 11.5873C57.8065 11.1137 58.0017 10.6972 58.2502 10.3377C58.4987 9.96942 58.8049 9.68006 59.1688 9.46961C59.5416 9.25916 59.9897 9.15393 60.5134 9.15393C60.6642 9.15393 60.824 9.1627 60.9926 9.18024C61.1612 9.19777 61.321 9.22408 61.4719 9.25916Z" fill="white"/>
<path d="M50.2395 6.99733C51.056 6.99733 51.7571 7.13763 52.3429 7.41823C52.9375 7.69006 53.3901 8.07589 53.7008 8.5757C54.0203 9.07552 54.18 9.65864 54.18 10.3251C54.18 10.9915 54.0203 11.5746 53.7008 12.0744C53.3901 12.5743 52.9375 12.9645 52.3429 13.2451C51.7571 13.5169 51.056 13.6528 50.2395 13.6528H45.873V11.6404H50.1064C50.5856 11.6404 50.9628 11.5264 51.2379 11.2984C51.5131 11.0616 51.6506 10.7372 51.6506 10.3251C51.6506 9.91294 51.5131 9.59288 51.2379 9.36489C50.9628 9.12814 50.5856 9.00976 50.1064 9.00976H46.0993L47.2309 7.85228V16.8622H44.7148V6.99733H50.2395Z" fill="white"/>
<path fill-rule="evenodd" clip-rule="evenodd" d="M17.619 30.804C24.9009 30.804 30.804 24.9009 30.804 17.619C30.804 10.3372 24.9009 4.43404 17.619 4.43404C10.3372 4.43404 4.43404 10.3372 4.43404 17.619C4.43404 17.6581 4.43421 17.6972 4.43455 17.7362H4.43404L4.43404 40.0002H0L1.05716e-06 17.7362H0.000381372C0.000127255 17.6971 0 17.6581 0 17.619C0 7.8883 7.8883 0 17.619 0C27.3497 0 35.238 7.8883 35.238 17.619C35.238 27.3497 27.3497 35.238 17.619 35.238C13.6405 35.238 9.96989 33.9193 7.02057 31.6952V25.4637C9.42282 28.7038 13.2757 30.804 17.619 30.804Z" fill="#4FC998"/>
<path fill-rule="evenodd" clip-rule="evenodd" d="M27.9831 17.619C27.9831 23.3429 23.343 27.9831 17.619 27.9831C11.8951 27.9831 7.25488 23.3429 7.25488 17.619C7.25488 11.895 11.8951 7.25485 17.619 7.25485C23.343 7.25485 27.9831 11.895 27.9831 17.619ZM17.6191 13.1772C18.8002 13.1772 19.7577 12.2197 19.7577 11.0386C19.7577 9.85743 18.8002 8.89993 17.6191 8.89993C16.4379 8.89993 15.4804 9.85743 15.4804 11.0386C15.4804 12.2197 16.4379 13.1772 17.6191 13.1772ZM21.5314 15.3586C22.122 16.3815 23.43 16.732 24.4529 16.1414C25.4757 15.5508 25.8262 14.2429 25.2356 13.22C24.6451 12.1971 23.3371 11.8466 22.3142 12.4372C21.2913 13.0277 20.9409 14.3357 21.5314 15.3586ZM10.9167 16.1414C11.9396 16.732 13.2476 16.3815 13.8382 15.3586C14.4287 14.3357 14.0783 13.0277 13.0554 12.4372C12.0325 11.8466 10.7245 12.1971 10.134 13.22C9.54339 14.2429 9.89386 15.5508 10.9167 16.1414ZM17.6191 26.3379C18.8002 26.3379 19.7577 25.3804 19.7577 24.1993C19.7577 23.0182 18.8002 22.0607 17.6191 22.0607C16.4379 22.0607 15.4804 23.0182 15.4804 24.1993C15.4804 25.3804 16.4379 26.3379 17.6191 26.3379ZM13.0553 22.7214C12.0324 23.312 10.7244 22.9615 10.1339 21.9387C9.5433 20.9158 9.89377 19.6078 10.9167 19.0172C11.9396 18.4267 13.2475 18.7771 13.8381 19.8C14.4286 20.8229 14.0782 22.1309 13.0553 22.7214ZM25.2356 21.9387C24.645 22.9615 23.3371 23.312 22.3142 22.7214C21.2913 22.1309 20.9408 20.8229 21.5314 19.8C22.122 18.7771 23.4299 18.4267 24.4528 19.0172C25.4757 19.6078 25.8262 20.9158 25.2356 21.9387ZM16.9558 18.518C17.1748 18.7356 17.4348 18.8445 17.7359 18.8445C18.037 18.8445 18.297 18.7356 18.5159 18.518C18.7349 18.3004 18.8444 18.042 18.8444 17.7427C18.8444 17.4344 18.7349 17.1715 18.5159 16.9539C18.297 16.7362 18.037 16.6274 17.7359 16.6274C17.4348 16.6274 17.1748 16.7362 16.9558 16.9539C16.7369 17.1715 16.6274 17.4344 16.6274 17.7427C16.6274 18.042 16.7369 18.3004 16.9558 18.518Z" fill="white"/>
<path d="M139.809 29.8632L139.692 24.9743H140.701L140.584 29.8632H139.809ZM140.201 31.8672C140.032 31.8672 139.885 31.8091 139.76 31.6929C139.636 31.5703 139.574 31.4251 139.574 31.2572C139.574 31.0894 139.636 30.9475 139.76 30.8313C139.885 30.7087 140.032 30.6473 140.201 30.6473C140.371 30.6473 140.515 30.7087 140.633 30.8313C140.757 30.9475 140.819 31.0894 140.819 31.2572C140.819 31.4251 140.757 31.5703 140.633 31.6929C140.515 31.8091 140.371 31.8672 140.201 31.8672Z" fill="#EDFEEC"/>
<path d="M137.587 31.7997V26.8721H138.567V31.7997H137.587ZM138.077 26.0782C137.914 26.0782 137.773 26.0202 137.656 25.904C137.538 25.7814 137.479 25.6394 137.479 25.478C137.479 25.3102 137.538 25.1715 137.656 25.0617C137.773 24.9456 137.914 24.8875 138.077 24.8875C138.247 24.8875 138.391 24.9456 138.508 25.0617C138.626 25.1715 138.685 25.3102 138.685 25.478C138.685 25.6394 138.626 25.7814 138.508 25.904C138.391 26.0202 138.247 26.0782 138.077 26.0782Z" fill="#EDFEEC"/>
<path d="M133.95 31.7997V26.872H134.93V27.5013C135.087 27.269 135.28 27.0883 135.508 26.9592C135.744 26.8236 136.008 26.7559 136.302 26.7559C136.505 26.7623 136.671 26.7914 136.802 26.843V27.7143C136.71 27.6756 136.616 27.6498 136.518 27.6368C136.42 27.6175 136.322 27.6078 136.224 27.6078C135.936 27.6078 135.681 27.6852 135.459 27.8401C135.237 27.9886 135.061 28.208 134.93 28.4985V31.7997H133.95Z" fill="#EDFEEC"/>
<path d="M130.724 31.887C130.234 31.887 129.79 31.7741 129.391 31.5482C128.999 31.3223 128.686 31.0157 128.45 30.6285C128.222 30.2412 128.107 29.8088 128.107 29.3312C128.107 28.8601 128.218 28.4341 128.441 28.0533C128.663 27.6661 128.963 27.3595 129.342 27.1336C129.721 26.9013 130.142 26.7851 130.606 26.7851C131.07 26.7851 131.482 26.9013 131.841 27.1336C132.2 27.3595 132.485 27.6693 132.694 28.063C132.909 28.4503 133.017 28.8891 133.017 29.3796V29.6507H129.087C129.14 29.9218 129.241 30.1638 129.391 30.3768C129.548 30.5898 129.744 30.7576 129.979 30.8802C130.221 31.0028 130.482 31.0641 130.763 31.0641C131.005 31.0641 131.237 31.0286 131.459 30.9576C131.688 30.8802 131.877 30.7705 132.027 30.6285L132.654 31.2384C132.36 31.4578 132.057 31.6224 131.743 31.7321C131.436 31.8354 131.096 31.887 130.724 31.887ZM129.097 28.9246H132.047C132.008 28.6665 131.916 28.4406 131.772 28.247C131.635 28.0469 131.462 27.892 131.253 27.7823C131.051 27.6661 130.828 27.608 130.587 27.608C130.338 27.608 130.11 27.6629 129.901 27.7726C129.692 27.8823 129.515 28.0372 129.372 28.2373C129.234 28.4309 129.143 28.66 129.097 28.9246Z" fill="#EDFEEC"/>
<path d="M119.73 31.8V26.8723H120.71V27.3467C121.083 26.9659 121.55 26.7755 122.112 26.7755C122.451 26.7755 122.752 26.8497 123.013 26.9982C123.281 27.1466 123.493 27.3467 123.65 27.5984C123.859 27.3273 124.104 27.124 124.385 26.9885C124.666 26.8465 124.983 26.7755 125.336 26.7755C125.708 26.7755 126.032 26.8562 126.306 27.0176C126.587 27.1789 126.806 27.4048 126.963 27.6952C127.126 27.9857 127.208 28.3213 127.208 28.702V31.8H126.228V28.8666C126.228 28.4794 126.123 28.176 125.914 27.9566C125.711 27.7307 125.434 27.6178 125.081 27.6178C124.839 27.6178 124.62 27.6726 124.424 27.7824C124.228 27.8921 124.059 28.0599 123.915 28.2858C123.928 28.3503 123.938 28.4181 123.944 28.4891C123.951 28.5601 123.954 28.6311 123.954 28.702V31.8H122.984V28.8666C122.984 28.4794 122.879 28.176 122.67 27.9566C122.468 27.7307 122.19 27.6178 121.837 27.6178C121.602 27.6178 121.39 27.6694 121.2 27.7727C121.011 27.8695 120.848 28.0179 120.71 28.218V31.8H119.73Z" fill="#EDFEEC"/>
<path d="M116.038 26.0782C115.875 26.0782 115.735 26.0202 115.617 25.904C115.499 25.7814 115.441 25.6394 115.441 25.478C115.441 25.3102 115.499 25.1715 115.617 25.0617C115.735 24.9456 115.875 24.8875 116.038 24.8875C116.208 24.8875 116.352 24.9456 116.47 25.0617C116.587 25.1715 116.646 25.3102 116.646 25.478C116.646 25.6394 116.587 25.7814 116.47 25.904C116.352 26.0202 116.208 26.0782 116.038 26.0782ZM115.107 33.8714C115.003 33.8714 114.902 33.8618 114.804 33.8424C114.699 33.8295 114.614 33.8166 114.549 33.8037V33.0292C114.66 33.055 114.791 33.0679 114.941 33.0679C115.156 33.0679 115.31 33.0195 115.401 32.9227C115.499 32.8323 115.548 32.6807 115.548 32.4677V26.8721H116.528V32.5355C116.528 32.9614 116.404 33.2906 116.156 33.5229C115.914 33.7553 115.565 33.8714 115.107 33.8714Z" fill="#EDFEEC"/>
<path d="M112.025 31.8968C111.541 31.8968 111.1 31.7838 110.702 31.5579C110.31 31.332 109.999 31.0255 109.771 30.6382C109.542 30.251 109.428 29.8186 109.428 29.341C109.428 28.8634 109.542 28.431 109.771 28.0437C109.999 27.6565 110.31 27.3499 110.702 27.124C111.1 26.8917 111.541 26.7755 112.025 26.7755C112.515 26.7755 112.956 26.8917 113.348 27.124C113.74 27.3499 114.05 27.6565 114.278 28.0437C114.507 28.431 114.621 28.8634 114.621 29.341C114.621 29.8186 114.507 30.251 114.278 30.6382C114.05 31.0255 113.74 31.332 113.348 31.5579C112.956 31.7838 112.515 31.8968 112.025 31.8968ZM112.025 31.0448C112.332 31.0448 112.609 30.9706 112.858 30.8222C113.106 30.6673 113.302 30.4608 113.446 30.2026C113.589 29.9444 113.661 29.654 113.661 29.3313C113.661 29.0151 113.586 28.7311 113.436 28.4794C113.292 28.2212 113.096 28.0147 112.848 27.8598C112.606 27.7049 112.332 27.6275 112.025 27.6275C111.718 27.6275 111.44 27.7049 111.192 27.8598C110.95 28.0147 110.754 28.2212 110.604 28.4794C110.46 28.7311 110.388 29.0151 110.388 29.3313C110.388 29.654 110.46 29.9444 110.604 30.2026C110.747 30.4608 110.943 30.6673 111.192 30.8222C111.44 30.9706 111.718 31.0448 112.025 31.0448Z" fill="#EDFEEC"/>
<path d="M108.009 26.0782C107.846 26.0782 107.705 26.0202 107.588 25.904C107.47 25.7814 107.411 25.6394 107.411 25.478C107.411 25.3102 107.47 25.1715 107.588 25.0617C107.705 24.9456 107.846 24.8875 108.009 24.8875C108.179 24.8875 108.323 24.9456 108.44 25.0617C108.558 25.1715 108.617 25.3102 108.617 25.478C108.617 25.6394 108.558 25.7814 108.44 25.904C108.323 26.0202 108.179 26.0782 108.009 26.0782ZM107.078 33.8714C106.974 33.8714 106.872 33.8618 106.774 33.8424C106.67 33.8295 106.585 33.8166 106.52 33.8037V33.0292C106.631 33.055 106.761 33.0679 106.912 33.0679C107.127 33.0679 107.281 33.0195 107.372 32.9227C107.47 32.8323 107.519 32.6807 107.519 32.4677V26.8721H108.499V32.5355C108.499 32.9614 108.375 33.2906 108.127 33.5229C107.885 33.7553 107.535 33.8714 107.078 33.8714Z" fill="#EDFEEC"/>
<path d="M103.995 31.8968C103.512 31.8968 103.071 31.7838 102.672 31.5579C102.28 31.332 101.97 31.0255 101.741 30.6382C101.513 30.251 101.398 29.8186 101.398 29.341C101.398 28.8634 101.513 28.431 101.741 28.0437C101.97 27.6565 102.28 27.3499 102.672 27.124C103.071 26.8917 103.512 26.7755 103.995 26.7755C104.485 26.7755 104.926 26.8917 105.318 27.124C105.71 27.3499 106.021 27.6565 106.249 28.0437C106.478 28.431 106.592 28.8634 106.592 29.341C106.592 29.8186 106.478 30.251 106.249 30.6382C106.021 31.0255 105.71 31.332 105.318 31.5579C104.926 31.7838 104.485 31.8968 103.995 31.8968ZM103.995 31.0448C104.302 31.0448 104.58 30.9706 104.828 30.8222C105.077 30.6673 105.273 30.4608 105.416 30.2026C105.56 29.9444 105.632 29.654 105.632 29.3313C105.632 29.0151 105.557 28.7311 105.406 28.4794C105.263 28.2212 105.067 28.0147 104.818 27.8598C104.577 27.7049 104.302 27.6275 103.995 27.6275C103.688 27.6275 103.411 27.7049 103.162 27.8598C102.921 28.0147 102.725 28.2212 102.574 28.4794C102.431 28.7311 102.359 29.0151 102.359 29.3313C102.359 29.654 102.431 29.9444 102.574 30.2026C102.718 30.4608 102.914 30.6673 103.162 30.8222C103.411 30.9706 103.688 31.0448 103.995 31.0448Z" fill="#EDFEEC"/>
<path d="M98.0827 31.8L95.9268 26.8724H97.0047L98.5628 30.5609L100.121 26.8724H101.16L99.0234 31.8H98.0827Z" fill="#EDFEEC"/>
<path d="M94.6592 31.8871C94.1758 31.8871 93.8066 31.7773 93.5519 31.5579C93.2971 31.332 93.1697 31.0061 93.1697 30.5801V27.6855H92.1113V26.8723H93.1697V25.6138L94.1398 25.3814V26.8723H95.6098V27.6855H94.1398V30.3575C94.1398 30.6092 94.1954 30.7899 94.3064 30.8996C94.424 31.0029 94.6135 31.0545 94.8748 31.0545C95.012 31.0545 95.1328 31.0448 95.2374 31.0255C95.3484 31.0061 95.466 30.977 95.5902 30.9383V31.7515C95.4595 31.7967 95.306 31.829 95.1296 31.8483C94.9597 31.8742 94.8029 31.8871 94.6592 31.8871Z" fill="#EDFEEC"/>
<path d="M86.9514 31.8968C86.4679 31.8968 86.0269 31.7838 85.6284 31.5579C85.2364 31.332 84.9261 31.0255 84.6975 30.6382C84.4688 30.251 84.3545 29.8186 84.3545 29.341C84.3545 28.8634 84.4688 28.431 84.6975 28.0437C84.9261 27.6565 85.2364 27.3499 85.6284 27.124C86.0269 26.8917 86.4679 26.7755 86.9514 26.7755C87.4413 26.7755 87.8823 26.8917 88.2743 27.124C88.6663 27.3499 88.9766 27.6565 89.2053 28.0437C89.4339 28.431 89.5482 28.8634 89.5482 29.341C89.5482 29.8186 89.4339 30.251 89.2053 30.6382C88.9766 31.0255 88.6663 31.332 88.2743 31.5579C87.8823 31.7838 87.4413 31.8968 86.9514 31.8968ZM86.9514 31.0448C87.2584 31.0448 87.5361 30.9706 87.7843 30.8222C88.0326 30.6673 88.2286 30.4608 88.3723 30.2026C88.516 29.9444 88.5879 29.654 88.5879 29.3313C88.5879 29.0151 88.5128 28.7311 88.3625 28.4794C88.2188 28.2212 88.0228 28.0147 87.7745 27.8598C87.5328 27.7049 87.2584 27.6275 86.9514 27.6275C86.6443 27.6275 86.3667 27.7049 86.1184 27.8598C85.8767 28.0147 85.6807 28.2212 85.5304 28.4794C85.3867 28.7311 85.3148 29.0151 85.3148 29.3313C85.3148 29.654 85.3867 29.9444 85.5304 30.2026C85.6742 30.4608 85.8701 30.6673 86.1184 30.8222C86.3667 30.9706 86.6443 31.0448 86.9514 31.0448Z" fill="#EDFEEC"/>
<path d="M78.6279 33.7747V26.8722H79.5981V27.3465C80.0162 26.9786 80.5258 26.7947 81.1268 26.7947C81.5972 26.7947 82.0218 26.9077 82.4007 27.1335C82.7862 27.3594 83.09 27.6628 83.3121 28.0436C83.5342 28.4243 83.6453 28.8535 83.6453 29.3311C83.6453 29.8087 83.531 30.2411 83.3023 30.6284C83.0802 31.0092 82.7764 31.3125 82.3909 31.5384C82.012 31.7643 81.5841 31.8772 81.1072 31.8772C80.8328 31.8772 80.5682 31.8353 80.3134 31.7514C80.0587 31.661 79.8235 31.5352 79.6079 31.3738V33.7747H78.6279ZM80.9994 31.035C81.3195 31.035 81.6037 30.9608 81.852 30.8123C82.1068 30.6639 82.3093 30.4638 82.4595 30.2121C82.6098 29.9539 82.6849 29.6635 82.6849 29.3408C82.6849 29.0181 82.6098 28.7277 82.4595 28.4695C82.3093 28.2114 82.1068 28.0081 81.852 27.8596C81.6037 27.7112 81.3195 27.637 80.9994 27.637C80.7185 27.637 80.4572 27.6886 80.2155 27.7918C79.9737 27.8951 79.7712 28.0403 79.6079 28.2275V30.4541C79.7712 30.6348 79.9737 30.7768 80.2155 30.8801C80.4637 30.9833 80.725 31.035 80.9994 31.035Z" fill="#EDFEEC"/>
<path d="M74.4457 31.7997V26.8721H75.4256V31.7997H74.4457ZM74.9357 26.0782C74.7723 26.0782 74.6319 26.0202 74.5143 25.904C74.3967 25.7814 74.3379 25.6394 74.3379 25.478C74.3379 25.3102 74.3967 25.1715 74.5143 25.0617C74.6319 24.9456 74.7723 24.8875 74.9357 24.8875C75.1055 24.8875 75.2492 24.9456 75.3668 25.0617C75.4844 25.1715 75.5432 25.3102 75.5432 25.478C75.5432 25.6394 75.4844 25.7814 75.3668 25.904C75.2492 26.0202 75.1055 26.0782 74.9357 26.0782Z" fill="#EDFEEC"/>
<path d="M70.7604 31.8L68.6045 26.8724H69.6824L71.2406 30.5609L72.7987 26.8724H73.8374L71.7011 31.8H70.7604Z" fill="#EDFEEC"/>
<path d="M65.7736 31.8968C65.2902 31.8968 64.8492 31.7838 64.4507 31.5579C64.0587 31.332 63.7484 31.0255 63.5197 30.6382C63.2911 30.251 63.1768 29.8186 63.1768 29.341C63.1768 28.8634 63.2911 28.431 63.5197 28.0437C63.7484 27.6565 64.0587 27.3499 64.4507 27.124C64.8492 26.8917 65.2902 26.7755 65.7736 26.7755C66.2636 26.7755 66.7046 26.8917 67.0966 27.124C67.4885 27.3499 67.7989 27.6565 68.0275 28.0437C68.2562 28.431 68.3705 28.8634 68.3705 29.341C68.3705 29.8186 68.2562 30.251 68.0275 30.6382C67.7989 31.0255 67.4885 31.332 67.0966 31.5579C66.7046 31.7838 66.2636 31.8968 65.7736 31.8968ZM65.7736 31.0448C66.0807 31.0448 66.3583 30.9706 66.6066 30.8222C66.8548 30.6673 67.0508 30.4608 67.1946 30.2026C67.3383 29.9444 67.4102 29.654 67.4102 29.3313C67.4102 29.0151 67.335 28.7311 67.1848 28.4794C67.041 28.2212 66.845 28.0147 66.5968 27.8598C66.3551 27.7049 66.0807 27.6275 65.7736 27.6275C65.4666 27.6275 65.1889 27.7049 64.9407 27.8598C64.6989 28.0147 64.503 28.2212 64.3527 28.4794C64.209 28.7311 64.1371 29.0151 64.1371 29.3313C64.1371 29.654 64.209 29.9444 64.3527 30.2026C64.4964 30.4608 64.6924 30.6673 64.9407 30.8222C65.1889 30.9706 65.4666 31.0448 65.7736 31.0448Z" fill="#EDFEEC"/>
<path d="M54.7988 31.8V26.8723H55.7788V27.3467C56.1512 26.9659 56.6183 26.7755 57.1801 26.7755C57.5198 26.7755 57.8203 26.8497 58.0817 26.9982C58.3495 27.1466 58.5618 27.3467 58.7186 27.5984C58.9277 27.3273 59.1727 27.124 59.4536 26.9885C59.7345 26.8465 60.0514 26.7755 60.4042 26.7755C60.7765 26.7755 61.0999 26.8562 61.3743 27.0176C61.6552 27.1789 61.8741 27.4048 62.0309 27.6952C62.1942 27.9857 62.2759 28.3213 62.2759 28.702V31.8H61.2959V28.8666C61.2959 28.4794 61.1914 28.176 60.9823 27.9566C60.7798 27.7307 60.5021 27.6178 60.1494 27.6178C59.9076 27.6178 59.6888 27.6726 59.4928 27.7824C59.2968 27.8921 59.1269 28.0599 58.9832 28.2858C58.9963 28.3503 59.0061 28.4181 59.0126 28.4891C59.0192 28.5601 59.0224 28.6311 59.0224 28.702V31.8H58.0523V28.8666C58.0523 28.4794 57.9477 28.176 57.7387 27.9566C57.5362 27.7307 57.2585 27.6178 56.9057 27.6178C56.6705 27.6178 56.4582 27.6694 56.2688 27.7727C56.0793 27.8695 55.916 28.0179 55.7788 28.218V31.8H54.7988Z" fill="#EDFEEC"/>
<path d="M52.665 31.7997V25.023L53.645 24.8391V31.7997H52.665Z" fill="#EDFEEC"/>
<path d="M50.5306 31.7997V26.8721H51.5106V31.7997H50.5306ZM51.0206 26.0782C50.8573 26.0782 50.7168 26.0202 50.5992 25.904C50.4816 25.7814 50.4229 25.6394 50.4229 25.478C50.4229 25.3102 50.4816 25.1715 50.5992 25.0617C50.7168 24.9456 50.8573 24.8875 51.0206 24.8875C51.1905 24.8875 51.3342 24.9456 51.4518 25.0617C51.5694 25.1715 51.6282 25.3102 51.6282 25.478C51.6282 25.6394 51.5694 25.7814 51.4518 25.904C51.3342 26.0202 51.1905 26.0782 51.0206 26.0782Z" fill="#EDFEEC"/>
<path d="M44.7148 31.7994V25.0227H49.791V25.9134H45.7438V27.9948H48.4093V28.8564H45.7438V31.7994H44.7148Z" fill="#EDFEEC"/>
</svg>
