<svg width="50" height="56" viewBox="0 0 50 56" fill="none" xmlns="http://www.w3.org/2000/svg">
<path fill-rule="evenodd" clip-rule="evenodd" d="M24.6665 43.1253C34.861 43.1253 43.1253 34.861 43.1253 24.6665C43.1253 14.4719 34.861 6.20762 24.6665 6.20762C14.4719 6.20762 6.20763 14.4719 6.20763 24.6665C6.20763 24.7212 6.20786 24.7759 6.20834 24.8305H6.20763L6.20762 56H0L1.48001e-06 24.8305H0.000533918C0.000178155 24.7759 0 24.7212 0 24.6665C0 11.0436 11.0436 0 24.6665 0C38.2894 0 49.333 11.0436 49.333 24.6665C49.333 38.2894 38.2894 49.3329 24.6665 49.3329C19.0965 49.3329 13.9578 47.4868 9.82874 44.373V35.6489C13.1919 40.1852 18.5858 43.1253 24.6665 43.1253Z" fill="#4FC998"/>
<path fill-rule="evenodd" clip-rule="evenodd" d="M39.1766 24.6662C39.1766 32.6797 32.6804 39.1759 24.6669 39.1759C16.6534 39.1759 10.1572 32.6797 10.1572 24.6662C10.1572 16.6527 16.6534 10.1565 24.6669 10.1565C32.6804 10.1565 39.1766 16.6527 39.1766 24.6662ZM24.667 18.4477C26.3206 18.4477 27.6611 17.1073 27.6611 15.4537C27.6611 13.8001 26.3206 12.4596 24.667 12.4596C23.0134 12.4596 21.6729 13.8001 21.6729 15.4537C21.6729 17.1073 23.0134 18.4477 24.667 18.4477ZM30.1443 21.5017C30.9711 22.9337 32.8022 23.4244 34.2343 22.5976C35.6663 21.7708 36.1569 19.9397 35.3302 18.5076C34.5034 17.0756 32.6722 16.5849 31.2402 17.4117C29.8081 18.2385 29.3175 20.0697 30.1443 21.5017ZM15.2838 22.5976C16.7158 23.4244 18.547 22.9337 19.3738 21.5017C20.2006 20.0697 19.7099 18.2385 18.2779 17.4117C16.8458 16.5849 15.0147 17.0756 14.1879 18.5076C13.3611 19.9397 13.8518 21.7708 15.2838 22.5976ZM24.667 36.8727C26.3206 36.8727 27.6611 35.5322 27.6611 33.8786C27.6611 32.225 26.3206 30.8846 24.667 30.8846C23.0134 30.8846 21.6729 32.225 21.6729 33.8786C21.6729 35.5322 23.0134 36.8727 24.667 36.8727ZM18.2778 31.8096C16.8457 32.6364 15.0146 32.1458 14.1878 30.7137C13.361 29.2817 13.8516 27.4506 15.2837 26.6238C16.7157 25.797 18.5469 26.2876 19.3737 27.7197C20.2004 29.1517 19.7098 30.9828 18.2778 31.8096ZM35.3301 30.7137C34.5033 32.1458 32.6722 32.6364 31.2401 31.8096C29.8081 30.9828 29.3174 29.1517 30.1442 27.7197C30.971 26.2876 32.8022 25.797 34.2342 26.6238C35.6662 27.4506 36.1569 29.2817 35.3301 30.7137ZM23.7385 25.9252C24.045 26.2299 24.409 26.3822 24.8306 26.3822C25.2521 26.3822 25.6161 26.2299 25.9226 25.9252C26.2292 25.6206 26.3825 25.2588 26.3825 24.8399C26.3825 24.4082 26.2292 24.0401 25.9226 23.7354C25.6161 23.4308 25.2521 23.2784 24.8306 23.2784C24.409 23.2784 24.045 23.4308 23.7385 23.7354C23.4319 24.0401 23.2786 24.4082 23.2786 24.8399C23.2786 25.2588 23.4319 25.6206 23.7385 25.9252Z" fill="white"/>
</svg>
