<svg width="200" height="115" viewBox="0 0 200 115" fill="none" xmlns="http://www.w3.org/2000/svg">
<path fill-rule="evenodd" clip-rule="evenodd" d="M100 43.1253C110.195 43.1253 118.459 34.861 118.459 24.6665C118.459 14.4719 110.195 6.20762 100 6.20762C89.8059 6.20762 81.5416 14.4719 81.5416 24.6665C81.5416 24.7212 81.5418 24.7759 81.5423 24.8305H81.5416L81.5416 56H75.334L75.334 24.8305H75.3345C75.3342 24.7759 75.334 24.7212 75.334 24.6665C75.334 11.0436 86.3775 0 100 0C113.623 0 124.667 11.0436 124.667 24.6665C124.667 38.2894 113.623 49.3329 100 49.3329C94.4305 49.3329 89.2917 47.4868 85.1627 44.373V35.6489C88.5259 40.1852 93.9198 43.1253 100 43.1253Z" fill="#4FC998"/>
<path fill-rule="evenodd" clip-rule="evenodd" d="M114.511 24.6664C114.511 32.6799 108.014 39.1761 100.001 39.1761C91.9874 39.1761 85.4912 32.6799 85.4912 24.6664C85.4912 16.6529 91.9874 10.1567 100.001 10.1567C108.014 10.1567 114.511 16.6529 114.511 24.6664ZM100.001 18.448C101.655 18.448 102.995 17.1075 102.995 15.4539C102.995 13.8003 101.655 12.4598 100.001 12.4598C98.3474 12.4598 97.0069 13.8003 97.0069 15.4539C97.0069 17.1075 98.3474 18.448 100.001 18.448ZM105.478 21.5019C106.305 22.934 108.136 23.4246 109.568 22.5978C111 21.771 111.491 19.9399 110.664 18.5079C109.837 17.0758 108.006 16.5852 106.574 17.412C105.142 18.2387 104.651 20.0699 105.478 21.5019ZM90.6178 22.5978C92.0498 23.4246 93.881 22.934 94.7078 21.5019C95.5345 20.0699 95.0439 18.2387 93.6119 17.412C92.1798 16.5852 90.3487 17.0758 89.5219 18.5079C88.6951 19.9399 89.1858 21.771 90.6178 22.5978ZM100.001 36.8729C101.655 36.8729 102.995 35.5324 102.995 33.8788C102.995 32.2253 101.655 30.8848 100.001 30.8848C98.3474 30.8848 97.0069 32.2253 97.0069 33.8788C97.0069 35.5324 98.3474 36.8729 100.001 36.8729ZM93.6117 31.8098C92.1797 32.6366 90.3486 32.146 89.5218 30.7139C88.695 29.2819 89.1856 27.4508 90.6177 26.624C92.0497 25.7972 93.8809 26.2878 94.7076 27.7199C95.5344 29.1519 95.0438 30.9831 93.6117 31.8098ZM110.664 30.7139C109.837 32.146 108.006 32.6366 106.574 31.8098C105.142 30.9831 104.651 29.1519 105.478 27.7199C106.305 26.2878 108.136 25.7972 109.568 26.624C111 27.4508 111.491 29.2819 110.664 30.7139ZM99.0725 25.9255C99.379 26.2301 99.743 26.3825 100.165 26.3825C100.586 26.3825 100.95 26.2301 101.257 25.9255C101.563 25.6208 101.716 25.259 101.716 24.8401C101.716 24.4085 101.563 24.0403 101.257 23.7356C100.95 23.431 100.586 23.2786 100.165 23.2786C99.743 23.2786 99.379 23.431 99.0725 23.7356C98.7659 24.0403 98.6126 24.4085 98.6126 24.8401C98.6126 25.259 98.7659 25.6208 99.0725 25.9255Z" fill="white"/>
<path d="M179.312 80.53H182.76L183.45 84.6179V91.0261H179.983V84.1023L179.312 80.53ZM187.177 80.2354C188.147 80.2354 188.967 80.4379 189.638 80.843C190.321 81.2481 190.837 81.819 191.184 82.5555C191.545 83.2798 191.725 84.1515 191.725 85.1704V91.0261H188.258V85.686C188.258 84.8144 188.066 84.1576 187.681 83.7156C187.295 83.2614 186.73 83.0343 185.985 83.0343C185.463 83.0343 185.009 83.1571 184.624 83.4026C184.251 83.6359 183.959 83.9734 183.748 84.4154C183.549 84.8451 183.45 85.3607 183.45 85.9622L182.35 85.3913C182.487 84.2742 182.779 83.3351 183.226 82.574C183.686 81.8128 184.251 81.2359 184.922 80.843C185.606 80.4379 186.357 80.2354 187.177 80.2354ZM195.434 80.2354C196.403 80.2354 197.229 80.4379 197.913 80.843C198.596 81.2481 199.112 81.819 199.459 82.5555C199.82 83.2798 200 84.1515 200 85.1704V91.0261H196.533V85.686C196.533 84.8144 196.341 84.1576 195.956 83.7156C195.57 83.2614 195.005 83.0343 194.26 83.0343C193.738 83.0343 193.284 83.1571 192.899 83.4026C192.526 83.6359 192.234 83.9734 192.023 84.4154C191.824 84.8451 191.725 85.3607 191.725 85.9622L190.625 85.3913C190.762 84.2742 191.054 83.3351 191.501 82.574C191.949 81.8128 192.514 81.2359 193.197 80.843C193.881 80.4379 194.626 80.2354 195.434 80.2354Z" fill="white"/>
<path d="M174.137 76.8472H177.585V91.0262H174.137V76.8472Z" fill="white"/>
<path d="M164.715 79.112C163.957 79.112 163.405 79.2532 163.057 79.5355C162.709 79.8179 162.535 80.2782 162.535 80.9166V91.026H159.087V81.2481C159.087 80.2537 159.279 79.4128 159.665 78.7253C160.062 78.0256 160.646 77.4916 161.417 77.1233C162.187 76.7427 163.15 76.5524 164.305 76.5524C164.79 76.5524 165.225 76.5954 165.61 76.6813C165.995 76.755 166.38 76.8593 166.765 76.9944V79.5355C166.455 79.4005 166.132 79.2962 165.796 79.2225C165.461 79.1488 165.101 79.112 164.715 79.112ZM156.888 83.8997V81.3585H166.635V83.8997H156.888ZM168.461 80.3826L170.195 80.7325L171.928 80.3826V91.026H168.461V80.3826ZM170.195 79.4251C169.586 79.4251 169.089 79.2716 168.704 78.9647C168.319 78.6455 168.126 78.2281 168.126 77.7125C168.126 77.1847 168.319 76.7673 168.704 76.4604C169.089 76.1535 169.586 76 170.195 76C170.816 76 171.313 76.1535 171.686 76.4604C172.058 76.7673 172.245 77.1847 172.245 77.7125C172.245 78.2281 172.058 78.6455 171.686 78.9647C171.313 79.2716 170.816 79.4251 170.195 79.4251Z" fill="white"/>
<path d="M147.208 91.0261L146.742 87.2144L147.245 85.778L146.742 84.3601L147.208 80.53H150.805L150.153 85.778L150.805 91.0261H147.208ZM148.065 85.778C147.879 86.8952 147.525 87.8711 147.003 88.7059C146.481 89.5284 145.823 90.1729 145.027 90.6394C144.232 91.0936 143.338 91.3207 142.344 91.3207C141.3 91.3207 140.381 91.0875 139.585 90.621C138.803 90.1545 138.188 89.51 137.74 88.6875C137.293 87.8527 137.069 86.8829 137.069 85.778C137.069 84.6732 137.293 83.7095 137.74 82.887C138.188 82.0522 138.803 81.4016 139.585 80.9351C140.381 80.4686 141.3 80.2354 142.344 80.2354C143.338 80.2354 144.232 80.4686 145.027 80.9351C145.823 81.3893 146.481 82.0277 147.003 82.8502C147.537 83.6727 147.891 84.6486 148.065 85.778ZM140.573 85.778C140.573 86.3427 140.691 86.8461 140.927 87.288C141.163 87.7177 141.486 88.0614 141.896 88.3192C142.319 88.5647 142.803 88.6875 143.35 88.6875C143.897 88.6875 144.412 88.5647 144.897 88.3192C145.394 88.0614 145.829 87.7177 146.202 87.288C146.574 86.8461 146.854 86.3427 147.04 85.778C146.854 85.2133 146.574 84.7162 146.202 84.2865C145.829 83.8445 145.394 83.5008 144.897 83.2553C144.412 82.9975 143.897 82.8686 143.35 82.8686C142.803 82.8686 142.319 82.9975 141.896 83.2553C141.486 83.5008 141.163 83.8445 140.927 84.2865C140.691 84.7162 140.573 85.2133 140.573 85.778Z" fill="white"/>
<path d="M124.641 91.0264V88.6325L132.207 82.5006L134.593 83.0162H124.697V80.5303H135.898V82.9241L128.349 89.0561L126.318 88.5405H135.935V91.0264H124.641Z" fill="white"/>
<path d="M114.793 91.0261L114.327 87.2144L114.83 85.778L114.327 84.3601L114.793 80.53H118.39L117.738 85.778L118.39 91.0261H114.793ZM115.65 85.778C115.464 86.8952 115.11 87.8711 114.588 88.7059C114.066 89.5284 113.408 90.1729 112.612 90.6394C111.817 91.0936 110.923 91.3207 109.929 91.3207C108.885 91.3207 107.966 91.0875 107.17 90.621C106.388 90.1545 105.773 89.51 105.325 88.6875C104.878 87.8527 104.654 86.8829 104.654 85.778C104.654 84.6732 104.878 83.7095 105.325 82.887C105.773 82.0522 106.388 81.4016 107.17 80.9351C107.966 80.4686 108.885 80.2354 109.929 80.2354C110.923 80.2354 111.817 80.4686 112.612 80.9351C113.408 81.3893 114.066 82.0277 114.588 82.8502C115.122 83.6727 115.476 84.6486 115.65 85.778ZM108.158 85.778C108.158 86.3427 108.276 86.8461 108.512 87.288C108.748 87.7177 109.071 88.0614 109.481 88.3192C109.904 88.5647 110.388 88.6875 110.935 88.6875C111.482 88.6875 111.997 88.5647 112.482 88.3192C112.979 88.0614 113.414 87.7177 113.787 87.288C114.159 86.8461 114.439 86.3427 114.625 85.778C114.439 85.2133 114.159 84.7162 113.787 84.2865C113.414 83.8445 112.979 83.5008 112.482 83.2553C111.997 82.9975 111.482 82.8686 110.935 82.8686C110.388 82.8686 109.904 82.9975 109.481 83.2553C109.071 83.5008 108.748 83.8445 108.512 84.2865C108.276 84.7162 108.158 85.2133 108.158 85.778Z" fill="white"/>
<path d="M95.5553 88.2456L94.6048 87.9326L100.699 80.53H104.408L95.2199 91.0262H92.1074V76.8472H95.5553V88.2456ZM97.68 85.8886L100.252 84.0287L104.688 91.0262H100.755L97.68 85.8886Z" fill="white"/>
<path d="M82.3674 91.3026C81.3859 91.3026 80.541 91.1062 79.8327 90.7134C79.137 90.3082 78.6027 89.7374 78.2299 89.0008C77.8696 88.2643 77.6895 87.3927 77.6895 86.386V80.5303H81.156V85.8888C81.156 86.7359 81.361 87.3865 81.771 87.8407C82.181 88.295 82.7712 88.5221 83.5416 88.5221C84.1131 88.5221 84.5977 88.4054 84.9953 88.1722C85.3929 87.9389 85.6973 87.6014 85.9085 87.1594C86.1322 86.7175 86.244 86.1957 86.244 85.5942L87.325 86.165C87.2007 87.2699 86.9025 88.209 86.4304 88.9824C85.9706 89.7435 85.3867 90.3205 84.6785 90.7134C83.9827 91.1062 83.2123 91.3026 82.3674 91.3026ZM86.9149 91.0264L86.244 86.9384V80.5303H89.6919V87.454L90.3815 91.0264H86.9149Z" fill="white"/>
<path d="M67.2334 80.53H70.7372L71.3709 84.3049V91.0261H67.9043V84.0103L67.2334 80.53ZM76.4402 80.3827V83.3289C76.1048 83.2553 75.7693 83.2 75.4338 83.1632C75.1108 83.1264 74.8126 83.108 74.5392 83.108C73.9428 83.108 73.4024 83.2307 72.9178 83.4763C72.4456 83.7095 72.0667 84.0839 71.7809 84.5995C71.5076 85.1151 71.3709 85.7842 71.3709 86.6067L70.6813 85.7596C70.7683 85.0108 70.9112 84.3049 71.11 83.642C71.3088 82.9791 71.5821 82.396 71.93 81.8926C72.2779 81.377 72.7066 80.9719 73.216 80.6773C73.7378 80.3827 74.3653 80.2354 75.0983 80.2354C75.3096 80.2354 75.5332 80.2476 75.7693 80.2722C76.0054 80.2967 76.229 80.3336 76.4402 80.3827Z" fill="white"/>
<path d="M59.3462 91.3207C58.0043 91.3207 56.8301 91.0875 55.8237 90.621C54.8173 90.1545 54.0345 89.5039 53.4754 88.6691C52.9163 87.8343 52.6367 86.8706 52.6367 85.778C52.6367 84.6732 52.9163 83.7095 53.4754 82.887C54.0345 82.0522 54.8173 81.4016 55.8237 80.9351C56.8425 80.4686 58.0167 80.2354 59.3462 80.2354C60.688 80.2354 61.8622 80.4686 62.8686 80.9351C63.875 81.4016 64.6578 82.0522 65.2169 82.887C65.7885 83.7095 66.0742 84.6732 66.0742 85.778C66.0742 86.8829 65.7885 87.8527 65.2169 88.6875C64.6578 89.51 63.875 90.1545 62.8686 90.621C61.8622 91.0875 60.688 91.3207 59.3462 91.3207ZM59.3462 88.7427C60.0295 88.7427 60.6073 88.6261 61.0794 88.3929C61.564 88.1473 61.9305 87.8036 62.179 87.3617C62.44 86.9197 62.5704 86.3919 62.5704 85.778C62.5704 85.1642 62.44 84.6364 62.179 84.1944C61.9305 83.7402 61.564 83.3965 61.0794 83.1632C60.6073 82.9177 60.0295 82.7949 59.3462 82.7949C58.6876 82.7949 58.1161 82.9177 57.6315 83.1632C57.147 83.3965 56.7742 83.7402 56.5133 84.1944C56.2524 84.6364 56.1219 85.1642 56.1219 85.778C56.1219 86.3919 56.2524 86.9197 56.5133 87.3617C56.7742 87.8036 57.147 88.1473 57.6315 88.3929C58.1161 88.6261 58.6876 88.7427 59.3462 88.7427Z" fill="white"/>
<path d="M38.1064 80.53H41.5544V83.6972L41.4239 84.1392V86.8645L41.5544 87.6747V94.0645H38.1064V80.53ZM40.4175 85.778C40.6038 84.6486 40.958 83.6727 41.4798 82.8502C42.0016 82.0277 42.6602 81.3893 43.4554 80.9351C44.263 80.4686 45.1576 80.2354 46.1391 80.2354C47.1828 80.2354 48.0961 80.4686 48.8788 80.9351C49.674 81.4016 50.2953 82.0522 50.7426 82.887C51.1899 83.7095 51.4135 84.6732 51.4135 85.778C51.4135 86.8829 51.1899 87.8527 50.7426 88.6875C50.2953 89.51 49.674 90.1545 48.8788 90.621C48.0961 91.0875 47.1828 91.3207 46.1391 91.3207C45.1451 91.3207 44.2506 91.0936 43.4554 90.6394C42.6726 90.1729 42.0141 89.5284 41.4798 88.7059C40.958 87.8711 40.6038 86.8952 40.4175 85.778ZM47.9097 85.778C47.9097 85.2133 47.7916 84.7162 47.5556 84.2865C47.3195 83.8445 46.9902 83.5008 46.5678 83.2553C46.1578 82.9975 45.6794 82.8686 45.1327 82.8686C44.586 82.8686 44.0642 82.9975 43.5672 83.2553C43.0826 83.5008 42.654 83.8445 42.2812 84.2865C41.9209 84.7162 41.6413 85.2133 41.4425 85.778C41.6413 86.3427 41.9209 86.8461 42.2812 87.288C42.654 87.7177 43.0826 88.0614 43.5672 88.3192C44.0642 88.5647 44.586 88.6875 45.1327 88.6875C45.6794 88.6875 46.1578 88.5647 46.5678 88.3192C46.9902 88.0614 47.3195 87.7177 47.5556 87.288C47.7916 86.8461 47.9097 86.3427 47.9097 85.778Z" fill="white"/>
<path d="M30.6416 91.3207C29.3743 91.3207 28.2374 91.0875 27.231 90.621C26.237 90.1545 25.4543 89.5039 24.8827 88.6691C24.3112 87.8343 24.0254 86.8583 24.0254 85.7412C24.0254 84.6486 24.2987 83.6911 24.8454 82.8686C25.3921 82.0461 26.1438 81.4016 27.1006 80.9351C28.0697 80.4686 29.1631 80.2354 30.3807 80.2354C31.6232 80.2354 32.6918 80.5054 33.5863 81.0456C34.4809 81.5857 35.1705 82.3469 35.6551 83.3289C36.1397 84.311 36.3819 85.465 36.3819 86.7908H26.8024V84.6364H34.4809L33.2322 85.4098C33.195 84.8328 33.0521 84.3479 32.8036 83.955C32.5675 83.5499 32.2507 83.243 31.8531 83.0343C31.4555 82.8133 30.9833 82.7029 30.4366 82.7029C29.8402 82.7029 29.3246 82.8195 28.8897 83.0527C28.4549 83.286 28.1132 83.6113 27.8647 84.0287C27.6286 84.4461 27.5106 84.931 27.5106 85.4834C27.5106 86.1832 27.6659 86.7786 27.9765 87.2696C28.2996 87.7606 28.7593 88.1351 29.3557 88.3929C29.9645 88.6507 30.7038 88.7796 31.5735 88.7796C32.3687 88.7796 33.1639 88.6752 33.9591 88.4665C34.7543 88.2456 35.4687 87.9387 36.1024 87.5458V89.7739C35.3817 90.265 34.5555 90.6455 33.6236 90.9156C32.7042 91.1857 31.7102 91.3207 30.6416 91.3207Z" fill="white"/>
<path d="M14.252 80.53H17.7558L18.3894 84.3049V91.0261H14.9229V84.0103L14.252 80.53ZM23.4588 80.3827V83.3289C23.1233 83.2553 22.7879 83.2 22.4524 83.1632C22.1293 83.1264 21.8311 83.108 21.5578 83.108C20.9614 83.108 20.4209 83.2307 19.9363 83.4763C19.4642 83.7095 19.0852 84.0839 18.7995 84.5995C18.5261 85.1151 18.3894 85.7842 18.3894 86.6067L17.6999 85.7596C17.7868 85.0108 17.9297 84.3049 18.1285 83.642C18.3273 82.9791 18.6007 82.396 18.9486 81.8926C19.2965 81.377 19.7251 80.9719 20.2345 80.6773C20.7564 80.3827 21.3838 80.2354 22.1169 80.2354C22.3281 80.2354 22.5518 80.2476 22.7879 80.2722C23.0239 80.2967 23.2476 80.3336 23.4588 80.3827Z" fill="white"/>
<path d="M7.73449 77.2158C8.87758 77.2158 9.85915 77.4122 10.6792 77.8051C11.5117 78.1856 12.1453 78.7258 12.5802 79.4255C13.0275 80.1253 13.2511 80.9416 13.2511 81.8746C13.2511 82.8076 13.0275 83.624 12.5802 84.3237C12.1453 85.0235 11.5117 85.5698 10.6792 85.9626C9.85915 86.3432 8.87758 86.5334 7.73449 86.5334H1.62145V83.7161H7.54812C8.21906 83.7161 8.74712 83.5565 9.13229 83.2373C9.51746 82.9058 9.71005 82.4516 9.71005 81.8746C9.71005 81.2976 9.51746 80.8496 9.13229 80.5304C8.74712 80.1989 8.21906 80.0332 7.54812 80.0332H1.93828L3.52246 78.4127V91.0265H0V77.2158H7.73449Z" fill="white"/>
<path d="M165.86 109.098L165.695 102.253H167.108L166.943 109.098H165.86ZM166.408 111.903C166.171 111.903 165.965 111.822 165.791 111.659C165.617 111.488 165.53 111.284 165.53 111.05C165.53 110.815 165.617 110.616 165.791 110.453C165.965 110.281 166.171 110.196 166.408 110.196C166.646 110.196 166.847 110.281 167.012 110.453C167.186 110.616 167.273 110.815 167.273 111.05C167.273 111.284 167.186 111.488 167.012 111.659C166.847 111.822 166.646 111.903 166.408 111.903Z" fill="#EDFEEC"/>
<path d="M162.749 111.809V104.91H164.12V111.809H162.749ZM163.435 103.799C163.206 103.799 163.009 103.718 162.845 103.555C162.68 103.383 162.598 103.184 162.598 102.959C162.598 102.724 162.68 102.529 162.845 102.376C163.009 102.213 163.206 102.132 163.435 102.132C163.672 102.132 163.874 102.213 164.038 102.376C164.203 102.529 164.285 102.724 164.285 102.959C164.285 103.184 164.203 103.383 164.038 103.555C163.874 103.718 163.672 103.799 163.435 103.799Z" fill="#EDFEEC"/>
<path d="M157.657 111.809V104.91H159.029V105.791C159.249 105.466 159.518 105.213 159.839 105.032C160.168 104.842 160.538 104.748 160.95 104.748C161.233 104.757 161.467 104.797 161.65 104.87V106.089C161.521 106.035 161.389 105.999 161.252 105.981C161.114 105.954 160.977 105.94 160.84 105.94C160.438 105.94 160.081 106.049 159.77 106.266C159.459 106.473 159.212 106.781 159.029 107.187V111.809H157.657Z" fill="#EDFEEC"/>
<path d="M153.141 111.931C152.455 111.931 151.833 111.773 151.275 111.457C150.726 111.141 150.287 110.711 149.958 110.169C149.638 109.627 149.478 109.022 149.478 108.353C149.478 107.693 149.633 107.097 149.944 106.564C150.255 106.022 150.676 105.593 151.206 105.276C151.737 104.951 152.327 104.789 152.976 104.789C153.625 104.789 154.202 104.951 154.705 105.276C155.208 105.593 155.605 106.026 155.898 106.578C156.2 107.12 156.351 107.734 156.351 108.421V108.8H150.849C150.923 109.18 151.064 109.519 151.275 109.817C151.494 110.115 151.769 110.35 152.098 110.522C152.436 110.693 152.802 110.779 153.195 110.779C153.534 110.779 153.859 110.729 154.17 110.63C154.49 110.522 154.755 110.368 154.965 110.169L155.843 111.023C155.432 111.33 155.006 111.561 154.567 111.714C154.138 111.859 153.662 111.931 153.141 111.931ZM150.863 107.784H154.993C154.938 107.422 154.81 107.106 154.609 106.835C154.416 106.555 154.174 106.338 153.881 106.185C153.598 106.022 153.287 105.941 152.949 105.941C152.601 105.941 152.281 106.017 151.988 106.171C151.695 106.325 151.449 106.541 151.247 106.822C151.055 107.093 150.927 107.413 150.863 107.784Z" fill="#EDFEEC"/>
<path d="M137.749 111.809V104.91H139.121V105.575C139.642 105.041 140.296 104.775 141.083 104.775C141.558 104.775 141.979 104.879 142.345 105.087C142.72 105.294 143.017 105.575 143.237 105.927C143.529 105.547 143.872 105.263 144.266 105.073C144.659 104.874 145.103 104.775 145.596 104.775C146.118 104.775 146.571 104.888 146.955 105.114C147.348 105.34 147.654 105.656 147.874 106.062C148.102 106.469 148.217 106.939 148.217 107.472V111.809H146.845V107.702C146.845 107.16 146.699 106.736 146.406 106.428C146.122 106.112 145.734 105.954 145.24 105.954C144.901 105.954 144.595 106.031 144.321 106.184C144.046 106.338 143.808 106.573 143.607 106.889C143.625 106.98 143.639 107.074 143.648 107.174C143.657 107.273 143.662 107.373 143.662 107.472V111.809H142.304V107.702C142.304 107.16 142.157 106.736 141.865 106.428C141.581 106.112 141.193 105.954 140.699 105.954C140.369 105.954 140.072 106.026 139.807 106.171C139.542 106.306 139.313 106.514 139.121 106.794V111.809H137.749Z" fill="#EDFEEC"/>
<path d="M132.579 103.799C132.351 103.799 132.154 103.718 131.99 103.555C131.825 103.383 131.743 103.184 131.743 102.959C131.743 102.724 131.825 102.529 131.99 102.376C132.154 102.213 132.351 102.132 132.579 102.132C132.817 102.132 133.018 102.213 133.183 102.376C133.348 102.529 133.43 102.724 133.43 102.959C133.43 103.184 133.348 103.383 133.183 103.555C133.018 103.718 132.817 103.799 132.579 103.799ZM131.276 114.709C131.13 114.709 130.988 114.696 130.851 114.669C130.705 114.651 130.586 114.633 130.494 114.614V113.53C130.65 113.566 130.833 113.584 131.043 113.584C131.345 113.584 131.56 113.517 131.688 113.381C131.825 113.255 131.893 113.042 131.893 112.744V104.91H133.265V112.839C133.265 113.435 133.092 113.896 132.744 114.221C132.406 114.547 131.916 114.709 131.276 114.709Z" fill="#EDFEEC"/>
<path d="M126.962 111.945C126.285 111.945 125.668 111.786 125.11 111.47C124.561 111.154 124.126 110.725 123.806 110.183C123.486 109.641 123.326 109.035 123.326 108.367C123.326 107.698 123.486 107.093 123.806 106.55C124.126 106.008 124.561 105.579 125.11 105.263C125.668 104.938 126.285 104.775 126.962 104.775C127.648 104.775 128.265 104.938 128.814 105.263C129.363 105.579 129.797 106.008 130.117 106.55C130.437 107.093 130.597 107.698 130.597 108.367C130.597 109.035 130.437 109.641 130.117 110.183C129.797 110.725 129.363 111.154 128.814 111.47C128.265 111.786 127.648 111.945 126.962 111.945ZM126.962 110.752C127.392 110.752 127.78 110.648 128.128 110.44C128.475 110.223 128.75 109.934 128.951 109.573C129.152 109.211 129.253 108.805 129.253 108.353C129.253 107.91 129.148 107.513 128.937 107.16C128.736 106.799 128.462 106.51 128.114 106.293C127.776 106.076 127.392 105.968 126.962 105.968C126.532 105.968 126.143 106.076 125.796 106.293C125.457 106.51 125.183 106.799 124.972 107.16C124.771 107.513 124.671 107.91 124.671 108.353C124.671 108.805 124.771 109.211 124.972 109.573C125.174 109.934 125.448 110.223 125.796 110.44C126.143 110.648 126.532 110.752 126.962 110.752Z" fill="#EDFEEC"/>
<path d="M121.339 103.799C121.111 103.799 120.914 103.718 120.749 103.555C120.585 103.383 120.502 103.184 120.502 102.959C120.502 102.724 120.585 102.529 120.749 102.376C120.914 102.213 121.111 102.132 121.339 102.132C121.577 102.132 121.778 102.213 121.943 102.376C122.108 102.529 122.19 102.724 122.19 102.959C122.19 103.184 122.108 103.383 121.943 103.555C121.778 103.718 121.577 103.799 121.339 103.799ZM120.036 114.709C119.89 114.709 119.748 114.696 119.611 114.669C119.464 114.651 119.345 114.633 119.254 114.614V113.53C119.409 113.566 119.592 113.584 119.803 113.584C120.104 113.584 120.319 113.517 120.447 113.381C120.585 113.255 120.653 113.042 120.653 112.744V104.91H122.025V112.839C122.025 113.435 121.851 113.896 121.504 114.221C121.165 114.547 120.676 114.709 120.036 114.709Z" fill="#EDFEEC"/>
<path d="M115.72 111.945C115.043 111.945 114.425 111.786 113.867 111.47C113.319 111.154 112.884 110.725 112.564 110.183C112.244 109.641 112.084 109.035 112.084 108.367C112.084 107.698 112.244 107.093 112.564 106.55C112.884 106.008 113.319 105.579 113.867 105.263C114.425 104.938 115.043 104.775 115.72 104.775C116.406 104.775 117.023 104.938 117.572 105.263C118.12 105.579 118.555 106.008 118.875 106.55C119.195 107.093 119.355 107.698 119.355 108.367C119.355 109.035 119.195 109.641 118.875 110.183C118.555 110.725 118.12 111.154 117.572 111.47C117.023 111.786 116.406 111.945 115.72 111.945ZM115.72 110.752C116.149 110.752 116.538 110.648 116.886 110.44C117.233 110.223 117.508 109.934 117.709 109.573C117.91 109.211 118.011 108.805 118.011 108.353C118.011 107.91 117.906 107.513 117.695 107.16C117.494 106.799 117.22 106.51 116.872 106.293C116.534 106.076 116.149 105.968 115.72 105.968C115.29 105.968 114.901 106.076 114.553 106.293C114.215 106.51 113.941 106.799 113.73 107.16C113.529 107.513 113.428 107.91 113.428 108.353C113.428 108.805 113.529 109.211 113.73 109.573C113.932 109.934 114.206 110.223 114.553 110.44C114.901 110.648 115.29 110.752 115.72 110.752Z" fill="#EDFEEC"/>
<path d="M107.442 111.809L104.424 104.911H105.933L108.114 110.074L110.296 104.911H111.75L108.759 111.809H107.442Z" fill="#EDFEEC"/>
<path d="M102.65 111.931C101.973 111.931 101.456 111.777 101.1 111.47C100.743 111.154 100.565 110.698 100.565 110.101V106.049H99.083V104.91H100.565V103.149L101.923 102.823V104.91H103.981V106.049H101.923V109.79C101.923 110.142 102.001 110.395 102.156 110.549C102.321 110.693 102.586 110.765 102.952 110.765C103.144 110.765 103.313 110.752 103.459 110.725C103.615 110.698 103.78 110.657 103.953 110.603V111.741C103.77 111.805 103.555 111.85 103.309 111.877C103.071 111.913 102.851 111.931 102.65 111.931Z" fill="#EDFEEC"/>
<path d="M91.8583 111.945C91.1814 111.945 90.5641 111.786 90.0062 111.47C89.4574 111.154 89.0229 110.725 88.7028 110.183C88.3827 109.641 88.2227 109.035 88.2227 108.367C88.2227 107.698 88.3827 107.093 88.7028 106.55C89.0229 106.008 89.4574 105.579 90.0062 105.263C90.5641 104.938 91.1814 104.775 91.8583 104.775C92.5442 104.775 93.1616 104.938 93.7104 105.263C94.2591 105.579 94.6936 106.008 95.0137 106.55C95.3338 107.093 95.4939 107.698 95.4939 108.367C95.4939 109.035 95.3338 109.641 95.0137 110.183C94.6936 110.725 94.2591 111.154 93.7104 111.47C93.1616 111.786 92.5442 111.945 91.8583 111.945ZM91.8583 110.752C92.2881 110.752 92.6768 110.648 93.0244 110.44C93.3719 110.223 93.6463 109.934 93.8475 109.573C94.0488 109.211 94.1494 108.805 94.1494 108.353C94.1494 107.91 94.0442 107.513 93.8338 107.16C93.6326 106.799 93.3582 106.51 93.0107 106.293C92.6723 106.076 92.2881 105.968 91.8583 105.968C91.4284 105.968 91.0397 106.076 90.6921 106.293C90.3537 106.51 90.0793 106.799 89.869 107.16C89.6678 107.513 89.5671 107.91 89.5671 108.353C89.5671 108.805 89.6678 109.211 89.869 109.573C90.0702 109.934 90.3446 110.223 90.6921 110.44C91.0397 110.648 91.4284 110.752 91.8583 110.752Z" fill="#EDFEEC"/>
<path d="M80.2061 114.574V104.91H81.5643V105.574C82.1496 105.059 82.863 104.802 83.7045 104.802C84.363 104.802 84.9575 104.96 85.488 105.276C86.0276 105.592 86.4529 106.017 86.7639 106.55C87.0748 107.083 87.2303 107.684 87.2303 108.353C87.2303 109.021 87.0703 109.627 86.7501 110.169C86.4392 110.702 86.0139 111.127 85.4742 111.443C84.9438 111.759 84.3447 111.917 83.677 111.917C83.2929 111.917 82.9225 111.859 82.5658 111.741C82.2091 111.615 81.8798 111.438 81.578 111.212V114.574H80.2061ZM83.5261 110.738C83.9743 110.738 84.3721 110.634 84.7197 110.426C85.0764 110.219 85.3599 109.938 85.5703 109.586C85.7806 109.225 85.8858 108.818 85.8858 108.366C85.8858 107.915 85.7806 107.508 85.5703 107.146C85.3599 106.785 85.0764 106.5 84.7197 106.293C84.3721 106.085 83.9743 105.981 83.5261 105.981C83.1328 105.981 82.767 106.053 82.4286 106.198C82.0902 106.342 81.8066 106.546 81.578 106.808V109.925C81.8066 110.178 82.0902 110.377 82.4286 110.521C82.7761 110.666 83.142 110.738 83.5261 110.738Z" fill="#EDFEEC"/>
<path d="M74.3511 111.809V104.91H75.723V111.809H74.3511ZM75.0371 103.799C74.8084 103.799 74.6118 103.718 74.4471 103.555C74.2825 103.383 74.2002 103.184 74.2002 102.959C74.2002 102.724 74.2825 102.529 74.4471 102.376C74.6118 102.213 74.8084 102.132 75.0371 102.132C75.2749 102.132 75.4761 102.213 75.6407 102.376C75.8053 102.529 75.8877 102.724 75.8877 102.959C75.8877 103.184 75.8053 103.383 75.6407 103.555C75.4761 103.718 75.2749 103.799 75.0371 103.799Z" fill="#EDFEEC"/>
<path d="M69.1921 111.809L66.1738 104.911H67.6829L69.8643 110.074L72.0457 104.911H73.4999L70.5091 111.809H69.1921Z" fill="#EDFEEC"/>
<path d="M62.2098 111.945C61.533 111.945 60.9156 111.786 60.3577 111.47C59.809 111.154 59.3745 110.725 59.0544 110.183C58.7343 109.641 58.5742 109.035 58.5742 108.367C58.5742 107.698 58.7343 107.093 59.0544 106.55C59.3745 106.008 59.809 105.579 60.3577 105.263C60.9156 104.938 61.533 104.775 62.2098 104.775C62.8958 104.775 63.5131 104.938 64.0619 105.263C64.6107 105.579 65.0451 106.008 65.3652 106.55C65.6854 107.093 65.8454 107.698 65.8454 108.367C65.8454 109.035 65.6854 109.641 65.3652 110.183C65.0451 110.725 64.6107 111.154 64.0619 111.47C63.5131 111.786 62.8958 111.945 62.2098 111.945ZM62.2098 110.752C62.6397 110.752 63.0284 110.648 63.376 110.44C63.7235 110.223 63.9979 109.934 64.1991 109.573C64.4003 109.211 64.5009 108.805 64.5009 108.353C64.5009 107.91 64.3958 107.513 64.1854 107.16C63.9842 106.799 63.7098 106.51 63.3622 106.293C63.0238 106.076 62.6397 105.968 62.2098 105.968C61.7799 105.968 61.3912 106.076 61.0437 106.293C60.7053 106.51 60.4309 106.799 60.2205 107.16C60.0193 107.513 59.9187 107.91 59.9187 108.353C59.9187 108.805 60.0193 109.211 60.2205 109.573C60.4217 109.934 60.6961 110.223 61.0437 110.44C61.3912 110.648 61.7799 110.752 62.2098 110.752Z" fill="#EDFEEC"/>
<path d="M46.8447 111.809V104.91H48.2167V105.575C48.738 105.041 49.3919 104.775 50.1785 104.775C50.6541 104.775 51.0748 104.879 51.4407 105.087C51.8157 105.294 52.1129 105.575 52.3324 105.927C52.6251 105.547 52.9681 105.263 53.3614 105.073C53.7547 104.874 54.1982 104.775 54.6921 104.775C55.2135 104.775 55.6662 104.888 56.0503 105.114C56.4436 105.34 56.75 105.656 56.9695 106.062C57.1982 106.469 57.3125 106.939 57.3125 107.472V111.809H55.9406V107.702C55.9406 107.16 55.7942 106.736 55.5016 106.428C55.218 106.112 54.8293 105.954 54.3354 105.954C53.997 105.954 53.6906 106.031 53.4162 106.184C53.1419 106.338 52.9041 106.573 52.7028 106.889C52.7211 106.98 52.7349 107.074 52.744 107.174C52.7531 107.273 52.7577 107.373 52.7577 107.472V111.809H51.3995V107.702C51.3995 107.16 51.2532 106.736 50.9605 106.428C50.677 106.112 50.2883 105.954 49.7944 105.954C49.4651 105.954 49.1679 106.026 48.9026 106.171C48.6374 106.306 48.4087 106.514 48.2167 106.794V111.809H46.8447Z" fill="#EDFEEC"/>
<path d="M43.8574 111.809V102.322L45.2293 102.064V111.809H43.8574Z" fill="#EDFEEC"/>
<path d="M40.8697 111.809V104.91H42.2416V111.809H40.8697ZM41.5556 103.799C41.327 103.799 41.1303 103.718 40.9657 103.555C40.8011 103.383 40.7188 103.184 40.7188 102.959C40.7188 102.724 40.8011 102.529 40.9657 102.376C41.1303 102.213 41.327 102.132 41.5556 102.132C41.7934 102.132 41.9946 102.213 42.1593 102.376C42.3239 102.529 42.4062 102.724 42.4062 102.959C42.4062 103.184 42.3239 103.383 42.1593 103.555C41.9946 103.718 41.7934 103.799 41.5556 103.799Z" fill="#EDFEEC"/>
<path d="M32.7275 111.809V102.321H39.8341V103.568H34.1681V106.482H37.8997V107.688H34.1681V111.809H32.7275Z" fill="#EDFEEC"/>
</svg>
