<svg width="264" height="56" viewBox="0 0 264 56" fill="none" xmlns="http://www.w3.org/2000/svg">
<path d="M243.312 13.1105H246.76L247.45 17.1985V23.6067H243.983V16.6829L243.312 13.1105ZM251.177 12.8159C252.147 12.8159 252.967 13.0185 253.638 13.4236C254.321 13.8287 254.837 14.3995 255.184 15.1361C255.545 15.8604 255.725 16.732 255.725 17.7509V23.6067H252.258V18.2665C252.258 17.3949 252.066 16.7382 251.681 16.2962C251.295 15.842 250.73 15.6149 249.985 15.6149C249.463 15.6149 249.009 15.7376 248.624 15.9832C248.251 16.2164 247.959 16.554 247.748 16.996C247.549 17.4256 247.45 17.9412 247.45 18.5428L246.35 17.9719C246.487 16.8548 246.779 15.9157 247.226 15.1545C247.686 14.3934 248.251 13.8164 248.922 13.4236C249.606 13.0185 250.357 12.8159 251.177 12.8159ZM259.434 12.8159C260.403 12.8159 261.229 13.0185 261.913 13.4236C262.596 13.8287 263.112 14.3995 263.459 15.1361C263.82 15.8604 264 16.732 264 17.7509V23.6067H260.533V18.2665C260.533 17.3949 260.341 16.7382 259.956 16.2962C259.57 15.842 259.005 15.6149 258.26 15.6149C257.738 15.6149 257.284 15.7376 256.899 15.9832C256.526 16.2164 256.234 16.554 256.023 16.996C255.824 17.4256 255.725 17.9412 255.725 18.5428L254.625 17.9719C254.762 16.8548 255.054 15.9157 255.501 15.1545C255.949 14.3934 256.514 13.8164 257.197 13.4236C257.881 13.0185 258.626 12.8159 259.434 12.8159Z" fill="white"/>
<path d="M238.137 9.42773H241.585V23.6067H238.137V9.42773Z" fill="white"/>
<path d="M228.715 11.6926C227.957 11.6926 227.405 11.8338 227.057 12.1161C226.709 12.3985 226.535 12.8588 226.535 13.4972V23.6066H223.087V13.8286C223.087 12.8343 223.279 11.9933 223.665 11.3059C224.062 10.6061 224.646 10.0721 225.417 9.70384C226.187 9.32328 227.15 9.13299 228.305 9.13299C228.79 9.13299 229.225 9.17596 229.61 9.26189C229.995 9.33555 230.38 9.4399 230.765 9.57494V12.1161C230.455 11.9811 230.132 11.8767 229.796 11.8031C229.461 11.7294 229.101 11.6926 228.715 11.6926ZM220.888 16.4803V13.9391H230.635V16.4803H220.888ZM232.461 12.9632L234.195 13.313L235.928 12.9632V23.6066H232.461V12.9632ZM234.195 12.0056C233.586 12.0056 233.089 11.8522 232.704 11.5453C232.319 11.2261 232.126 10.8087 232.126 10.2931C232.126 9.76522 232.319 9.34783 232.704 9.04092C233.089 8.73402 233.586 8.58057 234.195 8.58057C234.816 8.58057 235.313 8.73402 235.686 9.04092C236.058 9.34783 236.245 9.76522 236.245 10.2931C236.245 10.8087 236.058 11.2261 235.686 11.5453C235.313 11.8522 234.816 12.0056 234.195 12.0056Z" fill="white"/>
<path d="M211.208 23.6067L210.742 19.7949L211.245 18.3586L210.742 16.9407L211.208 13.1105H214.805L214.153 18.3586L214.805 23.6067H211.208ZM212.065 18.3586C211.879 19.4757 211.525 20.4517 211.003 21.2865C210.481 22.109 209.823 22.7535 209.027 23.22C208.232 23.6742 207.338 23.9013 206.344 23.9013C205.3 23.9013 204.381 23.6681 203.585 23.2016C202.803 22.7351 202.188 22.0906 201.74 21.2681C201.293 20.4333 201.069 19.4635 201.069 18.3586C201.069 17.2538 201.293 16.2901 201.74 15.4676C202.188 14.6328 202.803 13.9822 203.585 13.5157C204.381 13.0492 205.3 12.8159 206.344 12.8159C207.338 12.8159 208.232 13.0492 209.027 13.5157C209.823 13.9699 210.481 14.6082 211.003 15.4307C211.537 16.2532 211.891 17.2292 212.065 18.3586ZM204.573 18.3586C204.573 18.9233 204.691 19.4266 204.927 19.8686C205.163 20.2982 205.486 20.642 205.896 20.8998C206.319 21.1453 206.803 21.2681 207.35 21.2681C207.897 21.2681 208.412 21.1453 208.897 20.8998C209.394 20.642 209.829 20.2982 210.202 19.8686C210.574 19.4266 210.854 18.9233 211.04 18.3586C210.854 17.7939 210.574 17.2967 210.202 16.8671C209.829 16.4251 209.394 16.0814 208.897 15.8359C208.412 15.5781 207.897 15.4492 207.35 15.4492C206.803 15.4492 206.319 15.5781 205.896 15.8359C205.486 16.0814 205.163 16.4251 204.927 16.8671C204.691 17.2967 204.573 17.7939 204.573 18.3586Z" fill="white"/>
<path d="M188.641 23.607V21.2131L196.207 15.0812L198.593 15.5968H188.697V13.1108H199.898V15.5047L192.349 21.6366L190.318 21.121H199.935V23.607H188.641Z" fill="white"/>
<path d="M178.793 23.6067L178.327 19.7949L178.83 18.3586L178.327 16.9407L178.793 13.1105H182.39L181.738 18.3586L182.39 23.6067H178.793ZM179.65 18.3586C179.464 19.4757 179.11 20.4517 178.588 21.2865C178.066 22.109 177.408 22.7535 176.612 23.22C175.817 23.6742 174.923 23.9013 173.929 23.9013C172.885 23.9013 171.966 23.6681 171.17 23.2016C170.388 22.7351 169.773 22.0906 169.325 21.2681C168.878 20.4333 168.654 19.4635 168.654 18.3586C168.654 17.2538 168.878 16.2901 169.325 15.4676C169.773 14.6328 170.388 13.9822 171.17 13.5157C171.966 13.0492 172.885 12.8159 173.929 12.8159C174.923 12.8159 175.817 13.0492 176.612 13.5157C177.408 13.9699 178.066 14.6082 178.588 15.4307C179.122 16.2532 179.476 17.2292 179.65 18.3586ZM172.158 18.3586C172.158 18.9233 172.276 19.4266 172.512 19.8686C172.748 20.2982 173.071 20.642 173.481 20.8998C173.904 21.1453 174.388 21.2681 174.935 21.2681C175.482 21.2681 175.997 21.1453 176.482 20.8998C176.979 20.642 177.414 20.2982 177.787 19.8686C178.159 19.4266 178.439 18.9233 178.625 18.3586C178.439 17.7939 178.159 17.2967 177.787 16.8671C177.414 16.4251 176.979 16.0814 176.482 15.8359C175.997 15.5781 175.482 15.4492 174.935 15.4492C174.388 15.4492 173.904 15.5781 173.481 15.8359C173.071 16.0814 172.748 16.4251 172.512 16.8671C172.276 17.2967 172.158 17.7939 172.158 18.3586Z" fill="white"/>
<path d="M159.555 20.8262L158.605 20.5131L164.699 13.1106H168.408L159.22 23.6067H156.107V9.42773H159.555V20.8262ZM161.68 18.4691L164.252 16.6093L168.688 23.6067H164.755L161.68 18.4691Z" fill="white"/>
<path d="M146.367 23.8832C145.386 23.8832 144.541 23.6868 143.833 23.2939C143.137 22.8888 142.603 22.318 142.23 21.5814C141.87 20.8448 141.689 19.9732 141.689 18.9666V13.1108H145.156V18.4694C145.156 19.3164 145.361 19.9671 145.771 20.4213C146.181 20.8755 146.771 21.1026 147.542 21.1026C148.113 21.1026 148.598 20.986 148.995 20.7528C149.393 20.5195 149.697 20.1819 149.909 19.74C150.132 19.298 150.244 18.7763 150.244 18.1748L151.325 18.7456C151.201 19.8505 150.903 20.7896 150.43 21.563C149.971 22.3241 149.387 22.9011 148.678 23.2939C147.983 23.6868 147.212 23.8832 146.367 23.8832ZM150.915 23.607L150.244 19.519V13.1108H153.692V20.0346L154.381 23.607H150.915Z" fill="white"/>
<path d="M131.233 13.1105H134.737L135.371 16.8855V23.6067H131.904V16.5908L131.233 13.1105ZM140.44 12.9632V15.9095C140.105 15.8359 139.769 15.7806 139.434 15.7438C139.111 15.707 138.813 15.6885 138.539 15.6885C137.943 15.6885 137.402 15.8113 136.918 16.0568C136.446 16.2901 136.067 16.6645 135.781 17.1801C135.508 17.6957 135.371 18.3647 135.371 19.1873L134.681 18.3402C134.768 17.5914 134.911 16.8855 135.11 16.2226C135.309 15.5596 135.582 14.9765 135.93 14.4732C136.278 13.9576 136.707 13.5525 137.216 13.2579C137.738 12.9632 138.365 12.8159 139.098 12.8159C139.31 12.8159 139.533 12.8282 139.769 12.8527C140.005 12.8773 140.229 12.9141 140.44 12.9632Z" fill="white"/>
<path d="M123.346 23.9013C122.004 23.9013 120.83 23.6681 119.824 23.2016C118.817 22.7351 118.035 22.0844 117.475 21.2497C116.916 20.4149 116.637 19.4512 116.637 18.3586C116.637 17.2538 116.916 16.2901 117.475 15.4676C118.035 14.6328 118.817 13.9822 119.824 13.5157C120.843 13.0492 122.017 12.8159 123.346 12.8159C124.688 12.8159 125.862 13.0492 126.869 13.5157C127.875 13.9822 128.658 14.6328 129.217 15.4676C129.788 16.2901 130.074 17.2538 130.074 18.3586C130.074 19.4635 129.788 20.4333 129.217 21.2681C128.658 22.0906 127.875 22.7351 126.869 23.2016C125.862 23.6681 124.688 23.9013 123.346 23.9013ZM123.346 21.3233C124.03 21.3233 124.607 21.2067 125.079 20.9734C125.564 20.7279 125.931 20.3842 126.179 19.9422C126.44 19.5003 126.57 18.9724 126.57 18.3586C126.57 17.7448 126.44 17.2169 126.179 16.775C125.931 16.3208 125.564 15.977 125.079 15.7438C124.607 15.4983 124.03 15.3755 123.346 15.3755C122.688 15.3755 122.116 15.4983 121.632 15.7438C121.147 15.977 120.774 16.3208 120.513 16.775C120.252 17.2169 120.122 17.7448 120.122 18.3586C120.122 18.9724 120.252 19.5003 120.513 19.9422C120.774 20.3842 121.147 20.7279 121.632 20.9734C122.116 21.2067 122.688 21.3233 123.346 21.3233Z" fill="white"/>
<path d="M102.106 13.1105H105.554V16.2778L105.424 16.7197V19.4451L105.554 20.2553V26.645H102.106V13.1105ZM104.417 18.3586C104.604 17.2292 104.958 16.2532 105.48 15.4307C106.002 14.6082 106.66 13.9699 107.455 13.5157C108.263 13.0492 109.158 12.8159 110.139 12.8159C111.183 12.8159 112.096 13.0492 112.879 13.5157C113.674 13.9822 114.295 14.6328 114.743 15.4676C115.19 16.2901 115.413 17.2538 115.413 18.3586C115.413 19.4635 115.19 20.4333 114.743 21.2681C114.295 22.0906 113.674 22.7351 112.879 23.2016C112.096 23.6681 111.183 23.9013 110.139 23.9013C109.145 23.9013 108.251 23.6742 107.455 23.22C106.673 22.7535 106.014 22.109 105.48 21.2865C104.958 20.4517 104.604 19.4757 104.417 18.3586ZM111.91 18.3586C111.91 17.7939 111.792 17.2967 111.556 16.8671C111.319 16.4251 110.99 16.0814 110.568 15.8359C110.158 15.5781 109.679 15.4492 109.133 15.4492C108.586 15.4492 108.064 15.5781 107.567 15.8359C107.083 16.0814 106.654 16.4251 106.281 16.8671C105.921 17.2967 105.641 17.7939 105.443 18.3586C105.641 18.9233 105.921 19.4266 106.281 19.8686C106.654 20.2982 107.083 20.642 107.567 20.8998C108.064 21.1453 108.586 21.2681 109.133 21.2681C109.679 21.2681 110.158 21.1453 110.568 20.8998C110.99 20.642 111.319 20.2982 111.556 19.8686C111.792 19.4266 111.91 18.9233 111.91 18.3586Z" fill="white"/>
<path d="M94.6416 23.9013C93.3743 23.9013 92.2374 23.6681 91.231 23.2016C90.237 22.7351 89.4543 22.0844 88.8827 21.2497C88.3112 20.4149 88.0254 19.4389 88.0254 18.3218C88.0254 17.2292 88.2987 16.2717 88.8454 15.4492C89.3921 14.6267 90.1438 13.9822 91.1006 13.5157C92.0697 13.0492 93.1631 12.8159 94.3807 12.8159C95.6232 12.8159 96.6918 13.086 97.5863 13.6261C98.4809 14.1663 99.1705 14.9274 99.6551 15.9095C100.14 16.8916 100.382 18.0456 100.382 19.3714H90.8024V17.2169H98.4809L97.2322 17.9903C97.195 17.4133 97.0521 16.9284 96.8036 16.5356C96.5675 16.1305 96.2507 15.8236 95.8531 15.6149C95.4555 15.3939 94.9833 15.2834 94.4366 15.2834C93.8402 15.2834 93.3246 15.4001 92.8897 15.6333C92.4549 15.8665 92.1132 16.1919 91.8647 16.6093C91.6286 17.0266 91.5106 17.5116 91.5106 18.064C91.5106 18.7637 91.6659 19.3591 91.9765 19.8502C92.2996 20.3412 92.7593 20.7156 93.3557 20.9734C93.9645 21.2312 94.7038 21.3601 95.5735 21.3601C96.3687 21.3601 97.1639 21.2558 97.9591 21.0471C98.7543 20.8261 99.4687 20.5192 100.102 20.1264V22.3545C99.3817 22.8456 98.5555 23.2261 97.6236 23.4962C96.7042 23.7663 95.7102 23.9013 94.6416 23.9013Z" fill="white"/>
<path d="M78.252 13.1105H81.7558L82.3894 16.8855V23.6067H78.9229V16.5908L78.252 13.1105ZM87.4588 12.9632V15.9095C87.1233 15.8359 86.7879 15.7806 86.4524 15.7438C86.1293 15.707 85.8311 15.6885 85.5578 15.6885C84.9614 15.6885 84.4209 15.8113 83.9363 16.0568C83.4642 16.2901 83.0852 16.6645 82.7995 17.1801C82.5261 17.6957 82.3894 18.3647 82.3894 19.1873L81.6999 18.3402C81.7868 17.5914 81.9297 16.8855 82.1285 16.2226C82.3273 15.5596 82.6007 14.9765 82.9486 14.4732C83.2965 13.9576 83.7251 13.5525 84.2345 13.2579C84.7564 12.9632 85.3838 12.8159 86.1169 12.8159C86.3281 12.8159 86.5518 12.8282 86.7879 12.8527C87.0239 12.8773 87.2476 12.9141 87.4588 12.9632Z" fill="white"/>
<path d="M71.7345 9.79639C72.8776 9.79639 73.8591 9.99281 74.6792 10.3856C75.5117 10.7662 76.1453 11.3064 76.5802 12.0061C77.0275 12.7058 77.2511 13.5222 77.2511 14.4552C77.2511 15.3882 77.0275 16.2046 76.5802 16.9043C76.1453 17.604 75.5117 18.1503 74.6792 18.5432C73.8591 18.9237 72.8776 19.114 71.7345 19.114H65.6214V16.2966H71.5481C72.2191 16.2966 72.7471 16.137 73.1323 15.8179C73.5175 15.4864 73.7101 15.0322 73.7101 14.4552C73.7101 13.8782 73.5175 13.4301 73.1323 13.111C72.7471 12.7795 72.2191 12.6138 71.5481 12.6138H65.9383L67.5225 10.9933V23.6071H64V9.79639H71.7345Z" fill="white"/>
<path fill-rule="evenodd" clip-rule="evenodd" d="M24.6665 43.1253C34.861 43.1253 43.1253 34.861 43.1253 24.6665C43.1253 14.4719 34.861 6.20762 24.6665 6.20762C14.4719 6.20762 6.20763 14.4719 6.20763 24.6665C6.20763 24.7212 6.20786 24.7759 6.20834 24.8305H6.20763L6.20762 56H0L1.48001e-06 24.8305H0.000533918C0.000178155 24.7759 0 24.7212 0 24.6665C0 11.0436 11.0436 0 24.6665 0C38.2894 0 49.333 11.0436 49.333 24.6665C49.333 38.2894 38.2894 49.3329 24.6665 49.3329C19.0965 49.3329 13.9578 47.4868 9.82874 44.373V35.6489C13.1919 40.1852 18.5858 43.1253 24.6665 43.1253Z" fill="#4FC998"/>
<path fill-rule="evenodd" clip-rule="evenodd" d="M39.1766 24.6662C39.1766 32.6797 32.6804 39.1759 24.6669 39.1759C16.6534 39.1759 10.1572 32.6797 10.1572 24.6662C10.1572 16.6527 16.6534 10.1565 24.6669 10.1565C32.6804 10.1565 39.1766 16.6527 39.1766 24.6662ZM24.667 18.4477C26.3206 18.4477 27.6611 17.1073 27.6611 15.4537C27.6611 13.8001 26.3206 12.4596 24.667 12.4596C23.0134 12.4596 21.6729 13.8001 21.6729 15.4537C21.6729 17.1073 23.0134 18.4477 24.667 18.4477ZM30.1443 21.5017C30.9711 22.9337 32.8022 23.4244 34.2343 22.5976C35.6663 21.7708 36.1569 19.9397 35.3302 18.5076C34.5034 17.0756 32.6722 16.5849 31.2402 17.4117C29.8081 18.2385 29.3175 20.0697 30.1443 21.5017ZM15.2838 22.5976C16.7158 23.4244 18.547 22.9337 19.3738 21.5017C20.2006 20.0697 19.7099 18.2385 18.2779 17.4117C16.8458 16.5849 15.0147 17.0756 14.1879 18.5076C13.3611 19.9397 13.8518 21.7708 15.2838 22.5976ZM24.667 36.8727C26.3206 36.8727 27.6611 35.5322 27.6611 33.8786C27.6611 32.225 26.3206 30.8846 24.667 30.8846C23.0134 30.8846 21.6729 32.225 21.6729 33.8786C21.6729 35.5322 23.0134 36.8727 24.667 36.8727ZM18.2778 31.8096C16.8457 32.6364 15.0146 32.1458 14.1878 30.7137C13.361 29.2817 13.8516 27.4506 15.2837 26.6238C16.7157 25.797 18.5469 26.2876 19.3737 27.7197C20.2004 29.1517 19.7098 30.9828 18.2778 31.8096ZM35.3301 30.7137C34.5033 32.1458 32.6722 32.6364 31.2401 31.8096C29.8081 30.9828 29.3174 29.1517 30.1442 27.7197C30.971 26.2876 32.8022 25.797 34.2342 26.6238C35.6662 27.4506 36.1569 29.2817 35.3301 30.7137ZM23.7385 25.9252C24.045 26.2299 24.409 26.3822 24.8306 26.3822C25.2521 26.3822 25.6161 26.2299 25.9226 25.9252C26.2292 25.6206 26.3825 25.2588 26.3825 24.8399C26.3825 24.4082 26.2292 24.0401 25.9226 23.7354C25.6161 23.4308 25.2521 23.2784 24.8306 23.2784C24.409 23.2784 24.045 23.4308 23.7385 23.7354C23.4319 24.0401 23.2786 24.4082 23.2786 24.8399C23.2786 25.2588 23.4319 25.6206 23.7385 25.9252Z" fill="white"/>
<path d="M197.132 41.8078L196.967 34.9634H198.38L198.216 41.8078H197.132ZM197.681 44.6133C197.443 44.6133 197.237 44.532 197.063 44.3694C196.89 44.1977 196.803 43.9944 196.803 43.7595C196.803 43.5245 196.89 43.3258 197.063 43.1631C197.237 42.9915 197.443 42.9056 197.681 42.9056C197.919 42.9056 198.12 42.9915 198.284 43.1631C198.458 43.3258 198.545 43.5245 198.545 43.7595C198.545 43.9944 198.458 44.1977 198.284 44.3694C198.12 44.532 197.919 44.6133 197.681 44.6133Z" fill="#EDFEEC"/>
<path d="M194.021 44.5189V37.6202H195.393V44.5189H194.021ZM194.707 36.5089C194.478 36.5089 194.282 36.4275 194.117 36.2649C193.952 36.0932 193.87 35.8944 193.87 35.6685C193.87 35.4336 193.952 35.2394 194.117 35.0858C194.282 34.9231 194.478 34.8418 194.707 34.8418C194.945 34.8418 195.146 34.9231 195.311 35.0858C195.475 35.2394 195.558 35.4336 195.558 35.6685C195.558 35.8944 195.475 36.0932 195.311 36.2649C195.146 36.4275 194.945 36.5089 194.707 36.5089Z" fill="#EDFEEC"/>
<path d="M188.93 44.5188V37.6202H190.302V38.5011C190.521 38.1758 190.791 37.9229 191.111 37.7421C191.44 37.5524 191.811 37.4575 192.222 37.4575C192.506 37.4666 192.739 37.5072 192.922 37.5795V38.7993C192.794 38.7451 192.661 38.7089 192.524 38.6909C192.387 38.6638 192.25 38.6502 192.113 38.6502C191.71 38.6502 191.353 38.7586 191.042 38.9755C190.731 39.1833 190.485 39.4905 190.302 39.8971V44.5188H188.93Z" fill="#EDFEEC"/>
<path d="M184.413 44.6411C183.727 44.6411 183.105 44.483 182.547 44.1668C181.998 43.8505 181.559 43.4213 181.23 42.8792C180.91 42.3371 180.75 41.7317 180.75 41.0631C180.75 40.4035 180.905 39.8071 181.216 39.274C181.527 38.7319 181.948 38.3027 182.479 37.9865C183.009 37.6612 183.599 37.4985 184.248 37.4985C184.898 37.4985 185.474 37.6612 185.977 37.9865C186.48 38.3027 186.878 38.7364 187.171 39.2876C187.472 39.8297 187.623 40.4441 187.623 41.1308V41.5103H182.122C182.195 41.8898 182.337 42.2286 182.547 42.5268C182.767 42.825 183.041 43.0599 183.37 43.2316C183.709 43.4033 184.075 43.4891 184.468 43.4891C184.806 43.4891 185.131 43.4394 185.442 43.34C185.762 43.2316 186.027 43.078 186.238 42.8792L187.116 43.7331C186.704 44.0403 186.279 44.2707 185.84 44.4243C185.41 44.5688 184.934 44.6411 184.413 44.6411ZM182.136 40.4938H186.265C186.21 40.1324 186.082 39.8161 185.881 39.5451C185.689 39.265 185.447 39.0481 185.154 38.8945C184.87 38.7319 184.559 38.6506 184.221 38.6506C183.873 38.6506 183.553 38.7274 183.261 38.881C182.968 39.0346 182.721 39.2514 182.52 39.5315C182.328 39.8026 182.2 40.1234 182.136 40.4938Z" fill="#EDFEEC"/>
<path d="M169.021 44.519V37.6204H170.393V38.2845C170.915 37.7514 171.569 37.4849 172.355 37.4849C172.831 37.4849 173.252 37.5888 173.617 37.7966C173.992 38.0044 174.29 38.2845 174.509 38.6369C174.802 38.2574 175.145 37.9728 175.538 37.783C175.931 37.5843 176.375 37.4849 176.869 37.4849C177.39 37.4849 177.843 37.5978 178.227 37.8237C178.62 38.0496 178.927 38.3658 179.146 38.7724C179.375 39.179 179.489 39.6489 179.489 40.182V44.519H178.117V40.4124C178.117 39.8702 177.971 39.4456 177.678 39.1384C177.395 38.8221 177.006 38.664 176.512 38.664C176.174 38.664 175.867 38.7408 175.593 38.8944C175.319 39.048 175.081 39.2829 174.88 39.5992C174.898 39.6895 174.912 39.7844 174.921 39.8838C174.93 39.9832 174.934 40.0826 174.934 40.182V44.519H173.576V40.4124C173.576 39.8702 173.43 39.4456 173.137 39.1384C172.854 38.8221 172.465 38.664 171.971 38.664C171.642 38.664 171.345 38.7363 171.079 38.8809C170.814 39.0164 170.585 39.2242 170.393 39.5043V44.519H169.021Z" fill="#EDFEEC"/>
<path d="M163.852 36.5089C163.623 36.5089 163.427 36.4275 163.262 36.2649C163.097 36.0932 163.015 35.8944 163.015 35.6685C163.015 35.4336 163.097 35.2394 163.262 35.0858C163.427 34.9231 163.623 34.8418 163.852 34.8418C164.09 34.8418 164.291 34.9231 164.456 35.0858C164.62 35.2394 164.703 35.4336 164.703 35.6685C164.703 35.8944 164.62 36.0932 164.456 36.2649C164.291 36.4275 164.09 36.5089 163.852 36.5089ZM162.549 47.4193C162.402 47.4193 162.26 47.4057 162.123 47.3786C161.977 47.3605 161.858 47.3425 161.767 47.3244V46.2401C161.922 46.2763 162.105 46.2943 162.315 46.2943C162.617 46.2943 162.832 46.2266 162.96 46.091C163.097 45.9645 163.166 45.7522 163.166 45.454V37.6202H164.538V45.5489C164.538 46.1453 164.364 46.6061 164.017 46.9313C163.678 47.2566 163.189 47.4193 162.549 47.4193Z" fill="#EDFEEC"/>
<path d="M158.234 44.6546C157.557 44.6546 156.94 44.4964 156.382 44.1802C155.833 43.864 155.399 43.4348 155.079 42.8926C154.759 42.3505 154.599 41.7451 154.599 41.0765C154.599 40.4079 154.759 39.8025 155.079 39.2603C155.399 38.7182 155.833 38.289 156.382 37.9728C156.94 37.6475 157.557 37.4849 158.234 37.4849C158.92 37.4849 159.538 37.6475 160.086 37.9728C160.635 38.289 161.07 38.7182 161.39 39.2603C161.71 39.8025 161.87 40.4079 161.87 41.0765C161.87 41.7451 161.71 42.3505 161.39 42.8926C161.07 43.4348 160.635 43.864 160.086 44.1802C159.538 44.4964 158.92 44.6546 158.234 44.6546ZM158.234 43.4619C158.664 43.4619 159.053 43.358 159.4 43.1501C159.748 42.9333 160.022 42.6442 160.224 42.2827C160.425 41.9213 160.525 41.5147 160.525 41.0629C160.525 40.6202 160.42 40.2226 160.21 39.8702C160.009 39.5088 159.734 39.2197 159.387 39.0028C159.048 38.786 158.664 38.6776 158.234 38.6776C157.804 38.6776 157.416 38.786 157.068 39.0028C156.73 39.2197 156.455 39.5088 156.245 39.8702C156.044 40.2226 155.943 40.6202 155.943 41.0629C155.943 41.5147 156.044 41.9213 156.245 42.2827C156.446 42.6442 156.721 42.9333 157.068 43.1501C157.416 43.358 157.804 43.4619 158.234 43.4619Z" fill="#EDFEEC"/>
<path d="M152.612 36.5089C152.383 36.5089 152.186 36.4275 152.022 36.2649C151.857 36.0932 151.775 35.8944 151.775 35.6685C151.775 35.4336 151.857 35.2394 152.022 35.0858C152.186 34.9231 152.383 34.8418 152.612 34.8418C152.849 34.8418 153.051 34.9231 153.215 35.0858C153.38 35.2394 153.462 35.4336 153.462 35.6685C153.462 35.8944 153.38 36.0932 153.215 36.2649C153.051 36.4275 152.849 36.5089 152.612 36.5089ZM151.308 47.4193C151.162 47.4193 151.02 47.4057 150.883 47.3786C150.737 47.3605 150.618 47.3425 150.526 47.3244V46.2401C150.682 46.2763 150.865 46.2943 151.075 46.2943C151.377 46.2943 151.592 46.2266 151.72 46.091C151.857 45.9645 151.926 45.7522 151.926 45.454V37.6202H153.298V45.5489C153.298 46.1453 153.124 46.6061 152.776 46.9313C152.438 47.2566 151.949 47.4193 151.308 47.4193Z" fill="#EDFEEC"/>
<path d="M146.992 44.6546C146.315 44.6546 145.698 44.4964 145.14 44.1802C144.591 43.864 144.157 43.4348 143.837 42.8926C143.517 42.3505 143.356 41.7451 143.356 41.0765C143.356 40.4079 143.517 39.8025 143.837 39.2603C144.157 38.7182 144.591 38.289 145.14 37.9728C145.698 37.6475 146.315 37.4849 146.992 37.4849C147.678 37.4849 148.295 37.6475 148.844 37.9728C149.393 38.289 149.827 38.7182 150.147 39.2603C150.468 39.8025 150.628 40.4079 150.628 41.0765C150.628 41.7451 150.468 42.3505 150.147 42.8926C149.827 43.4348 149.393 43.864 148.844 44.1802C148.295 44.4964 147.678 44.6546 146.992 44.6546ZM146.992 43.4619C147.422 43.4619 147.811 43.358 148.158 43.1501C148.506 42.9333 148.78 42.6442 148.981 42.2827C149.183 41.9213 149.283 41.5147 149.283 41.0629C149.283 40.6202 149.178 40.2226 148.968 39.8702C148.766 39.5088 148.492 39.2197 148.144 39.0028C147.806 38.786 147.422 38.6776 146.992 38.6776C146.562 38.6776 146.173 38.786 145.826 39.0028C145.488 39.2197 145.213 39.5088 145.003 39.8702C144.802 40.2226 144.701 40.6202 144.701 41.0629C144.701 41.5147 144.802 41.9213 145.003 42.2827C145.204 42.6442 145.478 42.9333 145.826 43.1501C146.173 43.358 146.562 43.4619 146.992 43.4619Z" fill="#EDFEEC"/>
<path d="M138.715 44.5192L135.696 37.6206H137.205L139.387 42.7844L141.568 37.6206H143.022L140.032 44.5192H138.715Z" fill="#EDFEEC"/>
<path d="M133.922 44.641C133.246 44.641 132.729 44.4874 132.372 44.1802C132.015 43.864 131.837 43.4077 131.837 42.8113V38.7589H130.355V37.6204H131.837V35.8585L133.195 35.5332V37.6204H135.253V38.7589H133.195V42.4996C133.195 42.852 133.273 43.105 133.429 43.2586C133.593 43.4032 133.858 43.4754 134.224 43.4754C134.416 43.4754 134.586 43.4619 134.732 43.4348C134.887 43.4077 135.052 43.367 135.226 43.3128V44.4513C135.043 44.5145 134.828 44.5597 134.581 44.5868C134.343 44.623 134.124 44.641 133.922 44.641Z" fill="#EDFEEC"/>
<path d="M123.131 44.6546C122.454 44.6546 121.837 44.4964 121.279 44.1802C120.73 43.864 120.295 43.4348 119.975 42.8926C119.655 42.3505 119.495 41.7451 119.495 41.0765C119.495 40.4079 119.655 39.8025 119.975 39.2603C120.295 38.7182 120.73 38.289 121.279 37.9728C121.837 37.6475 122.454 37.4849 123.131 37.4849C123.817 37.4849 124.434 37.6475 124.983 37.9728C125.532 38.289 125.966 38.7182 126.286 39.2603C126.606 39.8025 126.766 40.4079 126.766 41.0765C126.766 41.7451 126.606 42.3505 126.286 42.8926C125.966 43.4348 125.532 43.864 124.983 44.1802C124.434 44.4964 123.817 44.6546 123.131 44.6546ZM123.131 43.4619C123.561 43.4619 123.949 43.358 124.297 43.1501C124.644 42.9333 124.919 42.6442 125.12 42.2827C125.321 41.9213 125.422 41.5147 125.422 41.0629C125.422 40.6202 125.317 40.2226 125.106 39.8702C124.905 39.5088 124.631 39.2197 124.283 39.0028C123.945 38.786 123.561 38.6776 123.131 38.6776C122.701 38.6776 122.312 38.786 121.965 39.0028C121.626 39.2197 121.352 39.5088 121.141 39.8702C120.94 40.2226 120.84 40.6202 120.84 41.0629C120.84 41.5147 120.94 41.9213 121.141 42.2827C121.343 42.6442 121.617 42.9333 121.965 43.1501C122.312 43.358 122.701 43.4619 123.131 43.4619Z" fill="#EDFEEC"/>
<path d="M111.479 47.2837V37.6201H112.837V38.2843C113.422 37.7692 114.135 37.5117 114.977 37.5117C115.635 37.5117 116.23 37.6698 116.76 37.9861C117.3 38.3023 117.725 38.727 118.036 39.2601C118.347 39.7932 118.503 40.3941 118.503 41.0627C118.503 41.7313 118.343 42.3367 118.023 42.8788C117.712 43.4119 117.286 43.8366 116.747 44.1528C116.216 44.4691 115.617 44.6272 114.949 44.6272C114.565 44.6272 114.195 44.5685 113.838 44.451C113.482 44.3245 113.152 44.1483 112.85 43.9224V47.2837H111.479ZM114.799 43.4481C115.247 43.4481 115.645 43.3442 115.992 43.1363C116.349 42.9285 116.632 42.6484 116.843 42.296C117.053 41.9346 117.158 41.528 117.158 41.0762C117.158 40.6245 117.053 40.2179 116.843 39.8564C116.632 39.495 116.349 39.2104 115.992 39.0026C115.645 38.7948 115.247 38.6909 114.799 38.6909C114.405 38.6909 114.039 38.7631 113.701 38.9077C113.363 39.0523 113.079 39.2556 112.85 39.5176V42.6349C113.079 42.8879 113.363 43.0866 113.701 43.2312C114.049 43.3758 114.414 43.4481 114.799 43.4481Z" fill="#EDFEEC"/>
<path d="M105.624 44.5189V37.6202H106.995V44.5189H105.624ZM106.31 36.5089C106.081 36.5089 105.884 36.4275 105.72 36.2649C105.555 36.0932 105.473 35.8944 105.473 35.6685C105.473 35.4336 105.555 35.2394 105.72 35.0858C105.884 34.9231 106.081 34.8418 106.31 34.8418C106.547 34.8418 106.749 34.9231 106.913 35.0858C107.078 35.2394 107.16 35.4336 107.16 35.6685C107.16 35.8944 107.078 36.0932 106.913 36.2649C106.749 36.4275 106.547 36.5089 106.31 36.5089Z" fill="#EDFEEC"/>
<path d="M100.465 44.5192L97.4463 37.6206H98.9554L101.137 42.7844L103.318 37.6206H104.772L101.782 44.5192H100.465Z" fill="#EDFEEC"/>
<path d="M93.4823 44.6546C92.8055 44.6546 92.1881 44.4964 91.6302 44.1802C91.0814 43.864 90.647 43.4348 90.3269 42.8926C90.0067 42.3505 89.8467 41.7451 89.8467 41.0765C89.8467 40.4079 90.0067 39.8025 90.3269 39.2603C90.647 38.7182 91.0814 38.289 91.6302 37.9728C92.1881 37.6475 92.8055 37.4849 93.4823 37.4849C94.1682 37.4849 94.7856 37.6475 95.3344 37.9728C95.8831 38.289 96.3176 38.7182 96.6377 39.2603C96.9578 39.8025 97.1179 40.4079 97.1179 41.0765C97.1179 41.7451 96.9578 42.3505 96.6377 42.8926C96.3176 43.4348 95.8831 43.864 95.3344 44.1802C94.7856 44.4964 94.1682 44.6546 93.4823 44.6546ZM93.4823 43.4619C93.9121 43.4619 94.3009 43.358 94.6484 43.1501C94.996 42.9333 95.2704 42.6442 95.4716 42.2827C95.6728 41.9213 95.7734 41.5147 95.7734 41.0629C95.7734 40.6202 95.6682 40.2226 95.4579 39.8702C95.2566 39.5088 94.9822 39.2197 94.6347 39.0028C94.2963 38.786 93.9121 38.6776 93.4823 38.6776C93.0524 38.6776 92.6637 38.786 92.3161 39.0028C91.9777 39.2197 91.7034 39.5088 91.493 39.8702C91.2918 40.2226 91.1912 40.6202 91.1912 41.0629C91.1912 41.5147 91.2918 41.9213 91.493 42.2827C91.6942 42.6442 91.9686 42.9333 92.3161 43.1501C92.6637 43.358 93.0524 43.4619 93.4823 43.4619Z" fill="#EDFEEC"/>
<path d="M78.1172 44.519V37.6204H79.4891V38.2845C80.0104 37.7514 80.6644 37.4849 81.451 37.4849C81.9266 37.4849 82.3473 37.5888 82.7131 37.7966C83.0881 38.0044 83.3854 38.2845 83.6049 38.6369C83.8976 38.2574 84.2405 37.9728 84.6338 37.783C85.0271 37.5843 85.4707 37.4849 85.9646 37.4849C86.4859 37.4849 86.9387 37.5978 87.3228 37.8237C87.7161 38.0496 88.0225 38.3658 88.242 38.7724C88.4706 39.179 88.585 39.6489 88.585 40.182V44.519H87.213V40.4124C87.213 39.8702 87.0667 39.4456 86.774 39.1384C86.4905 38.8221 86.1018 38.664 85.6079 38.664C85.2695 38.664 84.9631 38.7408 84.6887 38.8944C84.4143 39.048 84.1765 39.2829 83.9753 39.5992C83.9936 39.6895 84.0073 39.7844 84.0165 39.8838C84.0256 39.9832 84.0302 40.0826 84.0302 40.182V44.519H82.672V40.4124C82.672 39.8702 82.5256 39.4456 82.233 39.1384C81.9494 38.8221 81.5607 38.664 81.0668 38.664C80.7376 38.664 80.4403 38.7363 80.1751 38.8809C79.9098 39.0164 79.6812 39.2242 79.4891 39.5043V44.519H78.1172Z" fill="#EDFEEC"/>
<path d="M75.1299 44.5192V35.0319L76.5018 34.7744V44.5192H75.1299Z" fill="#EDFEEC"/>
<path d="M72.1421 44.5189V37.6202H73.514V44.5189H72.1421ZM72.8281 36.5089C72.5994 36.5089 72.4028 36.4275 72.2382 36.2649C72.0735 36.0932 71.9912 35.8944 71.9912 35.6685C71.9912 35.4336 72.0735 35.2394 72.2382 35.0858C72.4028 34.9231 72.5994 34.8418 72.8281 34.8418C73.0659 34.8418 73.2671 34.9231 73.4317 35.0858C73.5964 35.2394 73.6787 35.4336 73.6787 35.6685C73.6787 35.8944 73.5964 36.0932 73.4317 36.2649C73.2671 36.4275 73.0659 36.5089 72.8281 36.5089Z" fill="#EDFEEC"/>
<path d="M64 44.5186V35.0312H71.1066V36.2782H65.4405V39.1921H69.1722V40.3984H65.4405V44.5186H64Z" fill="#EDFEEC"/>
</svg>
