<svg width="100" height="64" viewBox="0 0 100 64" fill="none" xmlns="http://www.w3.org/2000/svg">
<rect width="100" height="64" rx="4" fill="#22374A"/>
<path fill-rule="evenodd" clip-rule="evenodd" d="M21.8095 31.1677C22.8489 31.6452 24.0927 31.884 25.541 31.884C27.5856 31.884 29.1957 31.4229 30.3714 30.5007C31.547 29.5785 32.1349 28.3105 32.1349 26.6967C32.1349 25.7909 31.9815 25.0334 31.6748 24.4241C31.3681 23.7983 30.9592 23.2878 30.448 22.8926C29.9539 22.4974 29.4002 22.1763 28.7868 21.9292C28.1904 21.6822 27.5856 21.4599 26.9722 21.2623C26.3758 21.0647 25.8221 20.8588 25.3109 20.6448C24.8168 20.4307 24.4164 20.1754 24.1097 19.879C23.803 19.5826 23.6497 19.1956 23.6497 18.718C23.6497 18.1581 23.8797 17.7299 24.3397 17.4335C24.7998 17.1371 25.4302 16.9889 26.231 16.9889C26.9296 16.9889 27.4825 17.0835 28.2227 17.3918C28.8046 17.6342 29.4915 18.0085 30.1259 18.5224L31.3947 15.8501C30.866 15.3362 30.4067 15.0278 29.6046 14.6669C28.6164 14.2223 27.5089 14 26.2821 14C25.1235 14 24.0842 14.1976 23.1641 14.5928C22.244 14.9881 21.5199 15.5562 20.9917 16.2973C20.4635 17.0383 20.1994 17.9358 20.1994 18.9897C20.1994 19.879 20.3527 20.62 20.6594 21.2129C20.9661 21.7893 21.3665 22.2668 21.8606 22.6456C22.3718 23.0079 22.9255 23.3125 23.5219 23.5595C24.1353 23.8066 24.7401 24.0289 25.3365 24.2265C25.9499 24.4076 26.5036 24.6135 26.9978 24.844C27.5089 25.0746 27.9178 25.3545 28.2245 25.6839C28.5312 26.0133 28.6846 26.4414 28.6846 26.9684C28.6846 27.5777 28.412 28.0553 27.8667 28.4011C27.3385 28.7469 26.6229 28.9198 25.7199 28.9198C24.7146 28.9198 23.8627 28.7387 23.1641 28.3764C22.4707 28.0004 21.8612 27.4785 21.3357 26.8105L20 29.9903C20.5665 30.4763 21.1696 30.8688 21.8095 31.1677ZM33.4037 31.8018L40.6159 14.4111H43.4447L50.6315 31.8018H46.9361L45.6748 28.5611H45.6651L44.5729 25.741H44.5771L43.7329 23.572L43.1309 22.0176L43.1284 22.0189L42.0133 19.1538L39.414 25.741H39.4152L38.3025 28.5611H38.3012L37.0225 31.8018H33.4037ZM69.7765 31.8018V14.4111H73.3182V28.8085H80.35V31.8018H73.3182H72.3805H69.7765ZM59.11 31.884C57.6961 31.884 56.4353 31.5899 55.328 31.0018C54.2377 30.3973 53.3774 29.5723 52.747 28.5267C52.1166 27.4811 51.8016 26.2966 51.8016 24.9733V14.4111H55.2768V25.741L59.0932 31.0018L62.8921 25.741V14.4111H66.393V24.9978C66.393 26.3211 66.0779 27.5056 65.4475 28.5512C64.8171 29.5804 63.9568 30.3973 62.8665 31.0018C61.7933 31.5899 60.5412 31.884 59.11 31.884ZM80.301 16.0872C80.301 16.9 79.6421 17.559 78.8292 17.559C78.0163 17.559 77.3573 16.9 77.3573 16.0872C77.3573 15.2743 78.0163 14.6153 78.8292 14.6153C79.6421 14.6153 80.301 15.2743 80.301 16.0872ZM80.6132 16.0872C80.6132 17.0725 79.8145 17.8712 78.8292 17.8712C77.8439 17.8712 77.0451 17.0725 77.0451 16.0872C77.0451 15.1018 77.8439 14.3031 78.8292 14.3031C79.8145 14.3031 80.6132 15.1018 80.6132 16.0872ZM78.7422 16.304H78.5212V16.9794H78.1593V15.1953H78.374H78.5212H78.8217C78.9771 15.1953 79.1121 15.2183 79.2266 15.2641C79.3431 15.31 79.4331 15.3746 79.4964 15.4578C79.5598 15.5394 79.5915 15.6362 79.5915 15.7484C79.5915 15.8605 79.5598 15.9582 79.4964 16.0415C79.4331 16.1247 79.3431 16.1893 79.2266 16.2352C79.1914 16.2493 79.1544 16.2612 79.1154 16.2709L79.7203 16.9794H79.2848L78.7422 16.304ZM78.5212 15.4553H78.8064C78.8882 15.4553 78.9597 15.4672 79.0211 15.491C79.0845 15.5148 79.1335 15.5487 79.1683 15.5929C79.203 15.6371 79.2204 15.6915 79.2204 15.756C79.2204 15.8189 79.203 15.8733 79.1683 15.9191C79.1335 15.9633 79.0845 15.9973 79.0211 16.0211C78.9597 16.0449 78.8882 16.0568 78.8064 16.0568H78.5212V15.4553Z" fill="white"/>
<path opacity="0.8" d="M26.3424 56L24.8324 49H25.6124L26.8024 54.78L28.5324 49H29.2824L31.0124 54.76L32.2124 49H32.9624L31.4524 56H30.6724L28.9024 50.07L27.1224 56H26.3424ZM35.8316 56.09C35.3516 56.09 34.9149 55.9767 34.5216 55.75C34.1349 55.5167 33.8249 55.2033 33.5916 54.81C33.3649 54.4167 33.2516 53.9767 33.2516 53.49C33.2516 53.01 33.3616 52.5767 33.5816 52.19C33.8016 51.7967 34.0982 51.4867 34.4716 51.26C34.8449 51.0267 35.2616 50.91 35.7216 50.91C36.1682 50.91 36.5682 51.0267 36.9216 51.26C37.2816 51.4867 37.5649 51.7967 37.7716 52.19C37.9849 52.5767 38.0916 53.01 38.0916 53.49V53.72H33.9816C34.0216 54.0467 34.1249 54.34 34.2916 54.6C34.4649 54.86 34.6882 55.0667 34.9616 55.22C35.2349 55.3667 35.5349 55.44 35.8616 55.44C36.1216 55.44 36.3749 55.4 36.6216 55.32C36.8682 55.24 37.0749 55.1267 37.2416 54.98L37.7016 55.47C37.4216 55.6767 37.1282 55.8333 36.8216 55.94C36.5216 56.04 36.1916 56.09 35.8316 56.09ZM34.0016 53.13H37.3516C37.3116 52.83 37.2116 52.5633 37.0516 52.33C36.8982 52.09 36.7049 51.9033 36.4716 51.77C36.2382 51.63 35.9816 51.56 35.7016 51.56C35.4149 51.56 35.1516 51.6267 34.9116 51.76C34.6716 51.8933 34.4716 52.08 34.3116 52.32C34.1516 52.5533 34.0482 52.8233 34.0016 53.13ZM39.1261 56V49L39.8661 48.83V51.52C40.2928 51.1133 40.8294 50.91 41.4761 50.91C41.9494 50.91 42.3761 51.0267 42.7561 51.26C43.1361 51.4867 43.4361 51.7933 43.6561 52.18C43.8828 52.5667 43.9961 53.0033 43.9961 53.49C43.9961 53.9767 43.8828 54.4167 43.6561 54.81C43.4361 55.1967 43.1361 55.5067 42.7561 55.74C42.3761 55.9667 41.9461 56.08 41.4661 56.08C41.1728 56.08 40.8861 56.03 40.6061 55.93C40.3328 55.83 40.0828 55.6867 39.8561 55.5V56H39.1261ZM41.4061 55.43C41.7594 55.43 42.0761 55.3467 42.3561 55.18C42.6361 55.0067 42.8561 54.7767 43.0161 54.49C43.1828 54.1967 43.2661 53.8667 43.2661 53.5C43.2661 53.1333 43.1828 52.8033 43.0161 52.51C42.8561 52.2167 42.6361 51.9867 42.3561 51.82C42.0761 51.6467 41.7594 51.56 41.4061 51.56C41.0928 51.56 40.7994 51.6233 40.5261 51.75C40.2594 51.87 40.0394 52.04 39.8661 52.26V54.74C40.0394 54.9533 40.2628 55.1233 40.5361 55.25C40.8094 55.37 41.0994 55.43 41.4061 55.43ZM48.083 55.3H49.663C50.0696 55.3 50.4463 55.23 50.793 55.09C51.1396 54.95 51.443 54.7533 51.703 54.5C51.963 54.2467 52.163 53.95 52.303 53.61C52.4496 53.27 52.523 52.9 52.523 52.5C52.523 52.1 52.4496 51.73 52.303 51.39C52.163 51.05 51.963 50.7533 51.703 50.5C51.443 50.2467 51.1396 50.05 50.793 49.91C50.4463 49.77 50.0696 49.7 49.663 49.7H48.083V55.3ZM47.313 56V49H49.623C50.1563 49 50.6463 49.0867 51.093 49.26C51.5396 49.4333 51.9263 49.6767 52.253 49.99C52.5863 50.3033 52.843 50.6733 53.023 51.1C53.2096 51.5267 53.303 51.9933 53.303 52.5C53.303 53.0067 53.213 53.4733 53.033 53.9C52.853 54.3267 52.5963 54.6967 52.263 55.01C51.9363 55.3233 51.5463 55.5667 51.093 55.74C50.6463 55.9133 50.1563 56 49.623 56H47.313ZM54.3702 56V50.99H55.1102V56H54.3702ZM54.7402 50.03C54.6069 50.03 54.4902 49.98 54.3902 49.88C54.2902 49.78 54.2402 49.6633 54.2402 49.53C54.2402 49.39 54.2902 49.2733 54.3902 49.18C54.4902 49.08 54.6069 49.03 54.7402 49.03C54.8802 49.03 54.9969 49.08 55.0902 49.18C55.1902 49.2733 55.2402 49.39 55.2402 49.53C55.2402 49.6633 55.1902 49.78 55.0902 49.88C54.9969 49.98 54.8802 50.03 54.7402 50.03ZM56.0522 56V55.42L59.0722 51.65H56.0822V50.99H59.9722V51.56L56.9422 55.34H60.0022V56H56.0522ZM62.5811 56.09C62.2144 56.09 61.8911 56.0267 61.6111 55.9C61.3378 55.7733 61.1211 55.5967 60.9611 55.37C60.8078 55.1433 60.7311 54.88 60.7311 54.58C60.7311 54.1067 60.9111 53.7333 61.2711 53.46C61.6311 53.1867 62.1178 53.05 62.7311 53.05C63.2711 53.05 63.7611 53.1633 64.2011 53.39V52.73C64.2011 52.33 64.0878 52.03 63.8611 51.83C63.6344 51.6233 63.3044 51.52 62.8711 51.52C62.6244 51.52 62.3744 51.5567 62.1211 51.63C61.8744 51.6967 61.6011 51.8067 61.3011 51.96L61.0211 51.39C61.3811 51.2167 61.7144 51.09 62.0211 51.01C62.3278 50.93 62.6344 50.89 62.9411 50.89C63.5744 50.89 64.0611 51.04 64.4011 51.34C64.7478 51.64 64.9211 52.07 64.9211 52.63V56H64.2011V55.51C63.9744 55.7033 63.7244 55.85 63.4511 55.95C63.1844 56.0433 62.8944 56.09 62.5811 56.09ZM61.4411 54.56C61.4411 54.84 61.5578 55.07 61.7911 55.25C62.0311 55.4233 62.3378 55.51 62.7111 55.51C63.0111 55.51 63.2844 55.4633 63.5311 55.37C63.7778 55.2767 64.0011 55.13 64.2011 54.93V53.99C63.9944 53.85 63.7744 53.75 63.5411 53.69C63.3078 53.6233 63.0444 53.59 62.7511 53.59C62.3511 53.59 62.0311 53.68 61.7911 53.86C61.5578 54.0333 61.4411 54.2667 61.4411 54.56ZM66.5273 50.03C66.394 50.03 66.2773 49.98 66.1773 49.88C66.0773 49.78 66.0273 49.6633 66.0273 49.53C66.0273 49.39 66.0773 49.2733 66.1773 49.18C66.2773 49.08 66.394 49.03 66.5273 49.03C66.6673 49.03 66.784 49.08 66.8773 49.18C66.9773 49.2733 67.0273 49.39 67.0273 49.53C67.0273 49.6633 66.9773 49.78 66.8773 49.88C66.784 49.98 66.6673 50.03 66.5273 50.03ZM65.6073 58.14C65.514 58.14 65.4273 58.1333 65.3473 58.12C65.2673 58.1067 65.2007 58.0933 65.1473 58.08V57.46C65.254 57.4867 65.3773 57.5 65.5173 57.5C65.7507 57.5 65.914 57.4467 66.0073 57.34C66.1073 57.2333 66.1573 57.06 66.1573 56.82V50.99H66.8973V56.88C66.8973 57.2867 66.784 57.5967 66.5573 57.81C66.3373 58.03 66.0207 58.14 65.6073 58.14ZM68.1593 56V50.99H68.8993V51.58C69.2926 51.12 69.8193 50.89 70.4793 50.89C70.8593 50.89 71.1926 50.9733 71.4793 51.14C71.7726 51.3 71.9993 51.5267 72.1593 51.82C72.326 52.1067 72.4093 52.4433 72.4093 52.83V56H71.6793V52.98C71.6793 52.5333 71.5526 52.1833 71.2993 51.93C71.0526 51.67 70.7126 51.54 70.2793 51.54C69.9793 51.54 69.7126 51.6067 69.4793 51.74C69.246 51.8733 69.0526 52.0633 68.8993 52.31V56H68.1593ZM74.2676 56.06C74.1276 56.06 74.0076 56.01 73.9076 55.91C73.8076 55.81 73.7576 55.69 73.7576 55.55C73.7576 55.41 73.8076 55.29 73.9076 55.19C74.0076 55.09 74.1276 55.04 74.2676 55.04C74.4076 55.04 74.5276 55.09 74.6276 55.19C74.7276 55.29 74.7776 55.41 74.7776 55.55C74.7776 55.69 74.7276 55.81 74.6276 55.91C74.5276 56.01 74.4076 56.06 74.2676 56.06ZM74.2676 51.9C74.1276 51.9 74.0076 51.85 73.9076 51.75C73.8076 51.65 73.7576 51.53 73.7576 51.39C73.7576 51.25 73.8076 51.13 73.9076 51.03C74.0076 50.93 74.1276 50.88 74.2676 50.88C74.4076 50.88 74.5276 50.93 74.6276 51.03C74.7276 51.13 74.7776 51.25 74.7776 51.39C74.7776 51.53 74.7276 51.65 74.6276 51.75C74.5276 51.85 74.4076 51.9 74.2676 51.9Z" fill="#718FAA"/>
<path d="M7 42L93 42" stroke="#102537" stroke-width="0.6"/>
</svg>
