<svg width="22" height="22" viewBox="0 0 22 22" fill="none" xmlns="http://www.w3.org/2000/svg">
<path d="M15.0516 7.28688C17.2883 9.52354 17.2883 13.1535 15.0516 15.3902C12.8149 17.6268 9.18492 17.6268 6.94825 15.3902C4.71159 13.1535 4.71159 9.52354 6.94825 7.28688C9.18492 5.05021 12.8149 5.05021 15.0516 7.28688Z" stroke="#C4D4E3" stroke-width="1.5" stroke-linecap="round" stroke-linejoin="round"/>
<path d="M7.5625 19.8363C5.72916 19.103 4.12499 17.7738 3.06166 15.9313C2.01666 14.1255 1.66833 12.118 1.91583 10.2021" stroke="#C4D4E3" stroke-width="1.5" stroke-linecap="round" stroke-linejoin="round"/>
<path d="M5.36255 4.10642C6.92088 2.88725 8.87338 2.16309 11 2.16309C13.0809 2.16309 14.9967 2.86891 16.5367 4.04224" stroke="#C4D4E3" stroke-width="1.5" stroke-linecap="round" stroke-linejoin="round"/>
<path d="M14.4375 19.8363C16.2708 19.103 17.875 17.7738 18.9383 15.9313C19.9833 14.1255 20.3317 12.118 20.0842 10.2021" stroke="#C4D4E3" stroke-width="1.5" stroke-linecap="round" stroke-linejoin="round"/>
</svg>
