<svg width="22" height="22" viewBox="0 0 22 22" fill="none" xmlns="http://www.w3.org/2000/svg">
<path d="M14.6768 2.00098C17.7817 2.0459 20.9158 4.57921 20.916 8.25C20.9159 11.7798 18.6584 14.7181 16.4268 16.7148C15.2975 17.7251 14.1389 18.5277 13.1982 19.0801C12.7285 19.3559 12.3047 19.5744 11.959 19.7266C11.7868 19.8023 11.6246 19.8664 11.4805 19.9121C11.3552 19.9518 11.1778 19.9999 11 20C10.822 19.9999 10.6438 19.9518 10.5186 19.9121C10.3745 19.8664 10.2131 19.8023 10.041 19.7266C9.69517 19.5744 9.27077 19.3561 8.80078 19.0801C7.86012 18.5276 6.7015 17.7252 5.57227 16.7148C3.34069 14.7181 1.08315 11.7797 1.08301 8.25C1.08323 4.58808 4.21001 2.00116 7.33301 2.00098C8.58829 2.00098 9.94512 2.35949 10.9971 3.40625C12.0408 2.3569 13.3862 1.98246 14.6768 2.00098ZM14.6553 3.50098C13.4703 3.48396 12.3668 3.88596 11.624 5C11.485 5.20832 11.2505 5.33388 11 5.33398C10.7495 5.33388 10.515 5.20838 10.376 5C9.63764 3.89254 8.51356 3.50098 7.33301 3.50098C4.95645 3.50116 2.58323 5.49617 2.58301 8.25C2.58315 11.1363 4.45001 13.6988 6.57227 15.5977C7.61996 16.535 8.69659 17.2797 9.56055 17.7871C9.99269 18.0409 10.3638 18.231 10.6445 18.3545C10.7854 18.4165 10.8953 18.4579 10.9727 18.4824C10.9823 18.4855 10.9914 18.487 10.999 18.4893C11.007 18.4869 11.0171 18.4856 11.0273 18.4824C11.1045 18.4579 11.214 18.4163 11.3545 18.3545C11.6351 18.231 12.0065 18.0408 12.4385 17.7871C13.3023 17.2798 14.3792 16.5349 15.4268 15.5977C17.5491 13.6988 19.4159 11.1363 19.416 8.25C19.4158 5.50479 17.0501 3.53563 14.6553 3.50098Z" fill="#C4D4E3"/>
</svg>
