<svg width="22" height="22" viewBox="0 0 22 22" fill="none" xmlns="http://www.w3.org/2000/svg">
<path d="M17.0775 6.55381C17.1142 7.11297 17.0684 7.74547 16.9584 8.45131L16.2892 12.7505C15.7209 16.3346 14.0617 17.5446 10.4775 16.9855L6.17837 16.3071C4.94087 16.1146 3.98753 15.7846 3.29087 15.2896C1.9617 14.3638 1.5767 12.8421 1.94337 10.4955L2.6217 6.19631C3.19003 2.61214 4.8492 1.40214 8.43337 1.96131L12.7325 2.63964C15.6109 3.08881 16.9584 4.26214 17.0775 6.55381Z" stroke="#C4D4E3" stroke-width="1.5" stroke-linecap="round" stroke-linejoin="round"/>
<path d="M18.7917 12.347L17.4167 16.4812C16.2709 19.9279 14.4376 20.8445 10.9909 19.6987L6.85673 18.3237C4.77589 17.6362 3.62089 16.6829 3.29089 15.2895C3.98756 15.7845 4.94089 16.1145 6.17839 16.307L10.4776 16.9854C14.0617 17.5445 15.7209 16.3345 16.2892 12.7504L16.9584 8.45121C17.0684 7.74538 17.1142 7.11288 17.0776 6.55371C19.2684 7.71788 19.7451 9.47788 18.7917 12.347Z" stroke="#C4D4E3" stroke-width="1.5" stroke-linecap="round" stroke-linejoin="round"/>
<path d="M7.55337 8.23199C8.43427 8.23199 9.14837 7.51789 9.14837 6.63699C9.14837 5.7561 8.43427 5.04199 7.55337 5.04199C6.67248 5.04199 5.95837 5.7561 5.95837 6.63699C5.95837 7.51789 6.67248 8.23199 7.55337 8.23199Z" stroke="#C4D4E3" stroke-width="1.5" stroke-linecap="round" stroke-linejoin="round"/>
</svg>
