<svg width="22" height="22" viewBox="0 0 22 22" fill="none" xmlns="http://www.w3.org/2000/svg">
<path d="M4.58333 19.25L4.58333 12.8333M4.58333 12.8333C5.59586 12.8333 6.41667 12.0125 6.41667 11C6.41667 9.98748 5.59586 9.16667 4.58333 9.16667M4.58333 12.8333C3.57081 12.8333 2.75 12.0125 2.75 11C2.75 9.98748 3.57081 9.16667 4.58333 9.16667M11 19.25V11M11 4.58333V2.75M11 4.58333C12.0125 4.58333 12.8333 5.40414 12.8333 6.41667C12.8333 7.42919 12.0125 8.25 11 8.25C9.98748 8.25 9.16667 7.42919 9.16667 6.41667C9.16667 5.40414 9.98748 4.58333 11 4.58333ZM4.58333 9.16667L4.58333 2.75M17.4167 11V2.75M17.4167 19.25V17.4167M17.4167 17.4167C18.4292 17.4167 19.25 16.5959 19.25 15.5833C19.25 14.5708 18.4292 13.75 17.4167 13.75C16.4041 13.75 15.5833 14.5708 15.5833 15.5833C15.5833 16.5959 16.4041 17.4167 17.4167 17.4167Z" stroke="#C4D4E3" stroke-width="1.5" stroke-linecap="round"/>
</svg>
