<svg width="22" height="22" viewBox="0 0 22 22" fill="none" xmlns="http://www.w3.org/2000/svg">
<path d="M14.2816 11.0004C14.2816 12.8154 12.8149 14.2821 10.9999 14.2821C9.18493 14.2821 7.71826 12.8154 7.71826 11.0004C7.71826 9.18542 9.18493 7.71875 10.9999 7.71875C12.8149 7.71875 14.2816 9.18542 14.2816 11.0004Z" stroke="#C4D4E3" stroke-width="1.5" stroke-linecap="round" stroke-linejoin="round"/>
<path d="M11.0001 18.581C14.2359 18.581 17.2518 16.6743 19.3509 13.3743C20.1759 12.0818 20.1759 9.90932 19.3509 8.61682C17.2518 5.31682 14.2359 3.41016 11.0001 3.41016C7.76427 3.41016 4.74843 5.31682 2.64927 8.61682C1.82427 9.90932 1.82427 12.0818 2.64927 13.3743C4.74843 16.6743 7.76427 18.581 11.0001 18.581Z" stroke="#C4D4E3" stroke-width="1.5" stroke-linecap="round" stroke-linejoin="round"/>
</svg>
