<svg width="160" height="81" viewBox="0 0 160 81" fill="none" xmlns="http://www.w3.org/2000/svg">
<rect width="160" height="80" fill="#06131E"/>
<path d="M54 0V80H36.0744V5.97334L45.0372 14.08L11 20.0533V5.97334L40.6625 0H54Z" fill="#172938"/>
<path d="M59.0784 51.4571L55.8396 54.8193C55.3588 55.3184 55.3929 56.1181 55.9144 56.5745L60.5892 60.6654C63.5287 63.3724 66.6372 63.4419 69.7118 60.6654L79.2416 51.1404C79.7304 50.6519 79.7132 49.8544 79.2038 49.3874L75.5372 46.0264C75.0569 45.5861 74.3145 45.6037 73.8556 46.0663L64.9478 55.0455L60.7501 51.3844C60.2626 50.9592 59.5272 50.9911 59.0784 51.4571Z" fill="#EF8D53"/>
<path fill-rule="evenodd" clip-rule="evenodd" d="M70.019 37.0814C70.019 40.1165 67.4621 42.5769 64.308 42.5769C61.1539 42.5769 58.597 40.1165 58.597 37.0814C58.597 34.0464 61.1539 31.5859 64.308 31.5859C67.4621 31.5859 70.019 34.0464 70.019 37.0814ZM75.2838 34.6199C75.2838 33.9497 75.8272 33.4063 76.4974 33.4063H102.286C102.956 33.4063 103.5 33.9497 103.5 34.6199V39.4743C103.5 40.1445 102.956 40.6879 102.286 40.6879H76.4974C75.8272 40.6879 75.2838 40.1445 75.2838 39.4743V34.6199ZM75.2839 72.2412C75.2839 71.571 75.8272 71.0276 76.4974 71.0276H102.286C102.956 71.0276 103.5 71.571 103.5 72.2412V77.0956C103.5 77.7658 102.956 78.3092 102.286 78.3092H76.4974C75.8272 78.3092 75.2839 77.7658 75.2839 77.0956V72.2412ZM85.9192 52.0416C85.5964 52.0416 85.2869 52.1701 85.0592 52.3988L80.1791 57.2989C79.417 58.0642 79.959 59.3689 81.039 59.3689H102.286C102.956 59.3689 103.5 58.8256 103.5 58.1553V53.2552C103.5 52.5849 102.956 52.0416 102.286 52.0416H85.9192ZM64.1573 80.1296C67.3114 80.1296 69.8683 77.669 69.8683 74.6341C69.8683 71.5989 67.3114 69.1387 64.1573 69.1387C61.0032 69.1387 58.4463 71.5989 58.4463 74.6341C58.4463 77.669 61.0032 80.1296 64.1573 80.1296Z" fill="url(#paint0_linear_190_323)"/>
<defs>
<linearGradient id="paint0_linear_190_323" x1="80.973" y1="31.5859" x2="80.973" y2="78.2976" gradientUnits="userSpaceOnUse">
<stop stop-color="#17C982"/>
<stop offset="1" stop-color="#12AF70"/>
</linearGradient>
</defs>
</svg>
