<svg width="160" height="81" viewBox="0 0 160 81" fill="none" xmlns="http://www.w3.org/2000/svg">
<rect y="0.0647583" width="160" height="80" fill="#06131E"/>
<path d="M4.04852 25.9109C4.45822 21.0562 6.16531 16.6801 9.16981 12.7827C12.2426 8.88527 16.5786 5.80835 22.1779 3.55194C27.7772 1.22715 34.5032 0.0647583 42.3558 0.0647583C49.2525 0.0647583 55.2273 0.953648 60.2803 2.73143C65.3333 4.5092 69.2597 6.97074 72.0593 10.116C74.859 13.2613 76.2588 16.9878 76.2588 21.2955C76.2588 24.7827 75.2004 27.9622 73.0836 30.834C71.0351 33.6374 67.8257 35.8938 63.4555 37.6032C59.0854 39.2442 53.5544 40.0306 46.8625 39.9622V38.0135C53.3495 37.6716 58.8805 38.1844 63.4555 39.5519C68.0988 40.8511 71.6837 42.9024 74.2103 45.7058C76.7368 48.5092 78 52.0306 78 56.2699C78 60.8511 76.5319 64.9537 73.5957 68.5776C70.7278 72.1331 66.5283 74.9366 60.9973 76.9878C55.4663 79.0391 48.7403 80.0648 40.8194 80.0648C33.1033 80.0648 26.3774 78.9707 20.6415 76.7827C14.9057 74.5947 10.4331 71.5178 7.22371 67.5519C4.01436 63.5861 2.27314 58.9366 2 53.6032H19.4124C19.9587 57.7058 22.0072 60.8511 25.558 63.0391C29.1087 65.2272 34.1959 66.3212 40.8194 66.3212C47.2381 66.3212 52.0863 65.3297 55.3639 63.3468C58.6415 61.3639 60.2803 58.5947 60.2803 55.0391C60.2803 52.9195 59.7341 51.1417 58.6415 49.7058C57.549 48.2699 55.6712 47.2101 53.0081 46.5263C50.4133 45.7742 46.8625 45.3981 42.3558 45.3981H28.8356V33.193H42.3558C48.2282 33.193 52.4277 32.3041 54.9542 30.5263C57.4807 28.7485 58.7439 26.4579 58.7439 23.6545C58.7439 20.5092 57.31 18.0819 54.442 16.3725C51.5741 14.6631 47.2381 13.8083 41.434 13.8083C35.4933 13.8083 30.8499 14.8682 27.504 16.9878C24.1581 19.0391 22.1438 22.0135 21.4609 25.9109H4.04852Z" fill="#142533"/>
<path fill-rule="evenodd" clip-rule="evenodd" d="M69.2907 46.0803L57.7678 49.5849L55 40.5787L60.2935 38.9687L69.2907 46.0803ZM57.7678 49.5849V75.9475C57.7678 77.8402 59.3247 79.389 61.2274 79.389H100.553C102.456 79.389 104.013 77.8403 104.013 75.9475V49.5849H57.7678ZM64.3559 37.733L73.3531 44.8446L81.9285 42.2365C80.1159 40.8036 78.3032 39.3708 76.4904 37.9381C75.3041 37.0003 74.1177 36.0626 72.9314 35.1249L64.3559 37.733ZM94.5665 38.3928L85.991 41.001L76.9939 33.8893L85.5694 31.2811L94.3069 38.1876L94.5665 38.3928ZM89.6318 30.0455L98.6289 37.1572L102.2 36.0709L99.4326 27.0647L89.6318 30.0455ZM85.2035 55.216L85.1475 55.2136L85.0915 55.2145C83.9476 55.2317 82.8254 55.5399 81.8376 56.1122C81.6027 56.2483 81.3771 56.3984 81.1622 56.5613C80.9473 56.3984 80.7218 56.2483 80.4868 56.1122C79.499 55.5399 78.3768 55.2317 77.2329 55.2145L77.1769 55.2136L77.1209 55.216C75.3303 55.2911 73.6309 56.0476 72.3985 57.3384C71.1729 58.6221 70.5096 60.331 70.5685 62.098C70.5788 63.7799 71.2733 65.3566 72.1067 66.6725C72.9601 68.0202 74.0688 69.266 75.135 70.313C77.2691 72.4088 79.4338 73.9016 79.633 74.0387L79.6356 74.0405L81.1622 75.0836L82.6863 74.0422L82.6869 74.0418C82.8915 73.9019 85.0557 72.4091 87.1895 70.3135C88.2557 69.2664 89.3644 68.0204 90.2178 66.6727C91.0511 65.3566 91.7456 63.7798 91.7559 62.098C91.8148 60.331 91.1515 58.6221 89.9259 57.3384C88.6935 56.0476 86.9941 55.2911 85.2035 55.216Z" fill="url(#paint0_linear_190_343)"/>
<path d="M84.9551 57.5325C84.1785 57.5439 83.4188 57.7484 82.7528 58.1255C82.0868 58.5026 81.5381 59.0388 81.162 59.68C80.7859 59.0388 80.2371 58.5026 79.5711 58.1255C78.9051 57.7484 78.1455 57.5439 77.3689 57.5325C76.1309 57.5832 74.9646 58.0942 74.1246 58.9539C73.2847 59.8135 72.8394 60.9519 72.8862 62.1204C72.8862 66.5293 80.442 71.6216 80.7634 71.8376L81.162 72.1038L81.5606 71.8376C81.882 71.6229 89.4378 66.5293 89.4378 62.1204C89.4845 60.9519 89.0393 59.8135 88.1993 58.9539C87.3594 58.0942 86.193 57.5832 84.9551 57.5325Z" fill="#F57C36"/>
<defs>
<linearGradient id="paint0_linear_190_343" x1="79.5063" y1="27.0647" x2="79.5063" y2="79.389" gradientUnits="userSpaceOnUse">
<stop stop-color="#22DB91"/>
<stop offset="1" stop-color="#12AF70"/>
</linearGradient>
</defs>
</svg>
