<svg width="160" height="81" viewBox="0 0 160 81" fill="none" xmlns="http://www.w3.org/2000/svg">
<rect y="0.0647583" width="160" height="80" fill="#06131E"/>
<path d="M2 29.2412C2.41587 23.2456 4.35659 18.0865 7.82216 13.7641C11.2877 9.37195 15.8623 5.99069 21.5458 3.62032C27.2987 1.24994 33.8139 0.0647583 41.0917 0.0647583C48.0228 0.0647583 54.0875 1.14537 59.2859 3.30659C64.4843 5.39809 68.539 8.36105 71.4501 12.1955C74.3612 16.0299 75.8167 20.4918 75.8167 25.5811C75.8167 29.4852 74.8117 33.1105 72.8017 36.4569C70.7916 39.8033 67.5686 43.1846 63.1327 46.6007C58.7661 49.9471 52.9439 53.5724 45.6662 57.4765L22.0656 70.5484L20.7141 65.738H78V80.0648H3.14363V67.5157L36.5171 47.8556C42.062 44.6486 46.394 41.8948 49.513 39.5942C52.632 37.2238 54.85 35.0277 56.1669 33.0059C57.4838 30.9841 58.1423 28.8229 58.1423 26.5223C58.1423 24.0822 57.4838 21.921 56.1669 20.0386C54.85 18.1563 52.8746 16.6922 50.2408 15.6465C47.6762 14.6007 44.4186 14.0778 40.4678 14.0778C35.824 14.0778 32.0119 14.775 29.0315 16.1693C26.0511 17.494 23.7984 19.3066 22.2736 21.6072C20.8181 23.9079 19.9517 26.4526 19.6744 29.2412H2Z" fill="#142533"/>
<path fill-rule="evenodd" clip-rule="evenodd" d="M94.9858 48.8085H97.8598C98.9176 48.8085 99.7755 47.9509 99.7755 46.8928V44.2682C99.7755 43.2101 98.9176 42.3524 97.8598 42.3524H94.9858C93.9279 42.3524 93.0701 43.2101 93.0701 44.2682V46.8928C93.0701 47.9509 93.9279 48.8085 94.9858 48.8085ZM94.9858 59.0962H97.8598C98.9176 59.0962 99.7755 58.2386 99.7755 57.1805V54.5559C99.7755 53.4978 98.9176 52.6401 97.8598 52.6401H94.9858C93.9279 52.6401 93.0701 53.4978 93.0701 54.5559V57.1805C93.0701 58.2386 93.9279 59.0962 94.9858 59.0962ZM94.9858 69.3841H97.8598C98.9176 69.3841 99.7755 68.5262 99.7755 67.4683V64.8437C99.7755 63.7855 98.9176 62.9279 97.8598 62.9279H94.9858C93.9279 62.9279 93.0701 63.7855 93.0701 64.8437V67.4683C93.0701 68.5262 93.9279 69.3841 94.9858 69.3841ZM61.7473 48.8085H64.621C65.679 48.8085 66.5368 47.9509 66.5368 46.8928V44.2682C66.5368 43.2101 65.679 42.3524 64.621 42.3524H61.7473C60.6892 42.3524 59.8316 43.2101 59.8316 44.2682V46.8928C59.8316 47.9509 60.6892 48.8085 61.7473 48.8085ZM61.7473 59.0962H64.621C65.679 59.0962 66.5368 58.2386 66.5368 57.1805V54.5559C66.5368 53.4978 65.679 52.6401 64.621 52.6401H61.7473C60.6892 52.6401 59.8316 53.4978 59.8316 54.5559V57.1805C59.8316 58.2386 60.6892 59.0962 61.7473 59.0962ZM61.7473 69.3841H64.621C65.679 69.3841 66.5368 68.5262 66.5368 67.4683V64.8437C66.5368 63.7855 65.679 62.9279 64.621 62.9279H61.7473C60.6892 62.9279 59.8316 63.7855 59.8316 64.8437V67.4683C59.8316 68.5262 60.6892 69.3841 61.7473 69.3841ZM99.7755 36.6051V33.9805C99.7755 32.9224 100.633 32.0647 101.691 32.0647C102.749 32.0647 103.607 32.9224 103.607 33.9805V77.7559C103.607 78.8138 102.749 79.6717 101.691 79.6717C100.633 79.6717 99.7755 78.8138 99.7755 77.7559V75.1313C99.7755 74.0731 98.9176 73.2155 97.8598 73.2155H94.9858C93.9279 73.2155 93.0701 74.0731 93.0701 75.1313V77.7559C93.0701 78.8138 92.2125 79.6717 91.1543 79.6717H68.4525C67.3944 79.6717 66.5368 78.8138 66.5368 77.7559V75.1313C66.5368 74.0731 65.679 73.2155 64.621 73.2155H61.7473C60.6892 73.2155 59.8316 74.0731 59.8316 75.1313V77.7559C59.8316 78.8138 58.9739 79.6717 57.9158 79.6717C56.8577 79.6717 56 78.8138 56 77.7559V33.9805C56 32.9224 56.8577 32.0647 57.9158 32.0647C58.9739 32.0647 59.8316 32.9224 59.8316 33.9805V36.6051C59.8316 37.6632 60.6892 38.5208 61.7473 38.5208H64.621C65.679 38.5208 66.5368 37.6632 66.5368 36.6051V33.9805C66.5368 32.9224 67.3944 32.0647 68.4525 32.0647H91.1543C92.2125 32.0647 93.0701 32.9224 93.0701 33.9805V36.6051C93.0701 37.6632 93.9279 38.5208 94.9858 38.5208H97.8598C98.9176 38.5208 99.7755 37.6632 99.7755 36.6051ZM83.736 50.9332L81.7228 46.5167C80.8836 44.6758 78.2352 44.6757 77.3959 46.5167L75.3826 50.9332L70.5658 51.4841C68.5549 51.7141 67.741 54.1642 69.2235 55.5247L72.8183 58.8234L71.8474 63.6079C71.4473 65.5796 73.5856 67.099 75.3532 66.0991L79.5593 63.7198L83.7653 66.0991C85.533 67.099 87.6712 65.5796 87.2712 63.6079L86.3001 58.8234L89.8949 55.5247C91.3775 54.1642 90.5637 51.7141 88.5528 51.4841L83.736 50.9332Z" fill="url(#paint0_linear_190_333)"/>
<path d="M79.4343 48.1845C79.5418 47.9455 79.8812 47.9455 79.9887 48.1845L82.1485 52.9853C82.1925 53.0829 82.2845 53.1502 82.3908 53.1625L87.5687 53.7626C87.8261 53.7924 87.9304 54.1105 87.7404 54.2872L83.8937 57.8638C83.8164 57.9356 83.7819 58.0425 83.8026 58.1461L84.8405 63.3275C84.8918 63.5834 84.6178 63.7807 84.3913 63.6509L79.8627 61.0553C79.7691 61.0017 79.654 61.0017 79.5603 61.0553L75.0317 63.6509C74.8052 63.7807 74.5312 63.5834 74.5824 63.3275L75.6202 58.1461C75.641 58.0425 75.6065 57.9356 75.5291 57.8638L71.6823 54.2872C71.4924 54.1105 71.5967 53.7924 71.8543 53.7626L77.0321 53.1625C77.1384 53.1502 77.2304 53.0829 77.2743 52.9853L79.4343 48.1845Z" fill="#EF8D53"/>
<defs>
<linearGradient id="paint0_linear_190_333" x1="78.3433" y1="23.857" x2="79.7112" y2="85.415" gradientUnits="userSpaceOnUse">
<stop stop-color="#19CE85"/>
<stop offset="1" stop-color="#12AB6E"/>
</linearGradient>
</defs>
</svg>
